{
.appVersion = "1342";
DisplayStrings = (
"aeªº",
"1//2",
"></greaterequal/lessequal ±",
svwzaweet,
"/idotless ï",
fta,
vwanhmrcraft
);
copyright = "Copyright 2020 The XanhMono Project Authors (https://github.com/yellow-type-foundry)";
customParameters = (
{
name = Axes;
value = (
{
Name = Weight;
Tag = wght;
},
{
Name = Italic;
Tag = ital;
}
);
},
{
name = fsType;
value = (
);
}
);
date = "2020-08-11 02:24:04 +0000";
designer = "Lam Bao; Duy Dao";
designerURL = "https://yellow-type.com/";
familyName = "Xanh Mono";
featurePrefixes = (
{
automatic = 1;
code = "languagesystem DFLT dflt;\012\012languagesystem latn dflt;\012languagesystem latn AZE;\012languagesystem latn CRT;\012languagesystem latn KAZ;\012languagesystem latn TAT;\012languagesystem latn TRK;\012languagesystem latn ROM;\012languagesystem latn MOL;\012";
name = Languagesystems;
}
);
features = (
{
automatic = 1;
code = "feature locl;\012feature subs;\012feature sinf;\012feature sups;\012feature numr;\012feature dnom;\012feature frac;\012feature ordn;\012";
name = aalt;
},
{
automatic = 1;

glyphs = (
{
glyphname = A;
lastChange = "2020-08-16 02:13:34 +0000";
layers = (
{
anchors = (
{
name = bottom;
position = "{250, 0}";
},
{
name = ogonek;
position = "{406, 0}";
},
{
name = top;
position = "{250, 740}";
}
);
components = (
{
name = crossbar;
transform = "{0.80615, 0, 0, 1, 48, -2}";
}
);
guideLines = (
{
angle = 103.844;
position = "{367, 38}";
},
{
angle = 256.156;
position = "{87, 45}";
}
);
layerId = "94EC0173-ED25-4379-B549-8ECC2838F2C2";
paths = (
{
closed = 1;
nodes = (
"157 0 LINE",
"157 34 LINE",
"87 34 LINE",
"226 612 LINE",
"367 34 LINE",
"266 34 LINE",
"266 0 LINE",
"502 0 LINE",
"502 34 LINE",
"438 34 LINE",
"265 740 LINE",
"225 740 LINE",
"52 34 LINE",
"-1 34 LINE",
"-1 0 LINE"
);
}
);
width = 500;
},
{
layerId = "3F0F5FFA-301F-4B90-BC1A-8916131A4004";
width = 600;
},
{
anchors = (
{
name = bottom;
position = "{193, 0}";
},
{
name = ogonek;
position = "{376, 0}";
},
{
name = top;
position = "{361, 740}";
}
);
components = (
{
name = crossbar;
transform = "{0.80615, 0, 0, 1, 18, -2}";
}
);
guideLines = (
{
angle = 103.844;
position = "{367, 38}";
},
{
angle = 256.156;
position = "{87, 45}";
}
);
layerId = "63C36BCE-C2CB-4BF3-9C7E-344D74934179";
paths = (
{
closed = 1;
nodes = (
"118 0 LINE",
"124 34 LINE",
"56 34 LINE",
"317 614 LINE",
"336 34 LINE",
"233 34 LINE",
"227 0 LINE",
"461 0 LINE",
"467 34 LINE",
"405 34 LINE",
"381 740 LINE",
"343 740 LINE",
"21 34 LINE",
"-34 34 LINE",
"-40 0 LINE"
);
}
);
width = 500;
}
);
unicode = 0041;
},
{
glyphname = AE;
lastChange = "2020-08-16 03:36:57 +0000";
layers = (
{
guideLines = (
{
angle = 256.156;
position = "{87, 38}";
}
);
layerId = "94EC0173-ED25-4379-B549-8ECC2838F2C2";
paths = (
{
closed = 1;
nodes = (
"161 303 LINE",
"151 273 LINE",
"272 273 LINE",
"272 303 LINE"
);
},
{
closed = 1;
nodes = (
"209 34 LINE",
"209 0 LINE",
"493 0 LINE",
"493 234 LINE",
"465 234 LINE",
"453 108 LINE SMOOTH",
"448 59 OFFCURVE",
"426 36 OFFCURVE",
"368 35 CURVE SMOOTH",
"326 34 LINE",
"326 387 LINE",
"387 387 LINE",
"387 260 LINE",
"417 260 LINE",
"417 548 LINE",
"387 548 LINE",
"387 421 LINE",
"326 421 LINE",
"326 705 LINE",
"365 705 LINE SMOOTH",
"423 705 OFFCURVE",
"446 681 OFFCURVE",
"451 633 CURVE SMOOTH",
"462 526 LINE",
"490 526 LINE",
"490 740 LINE",
"161 740 LINE",
"162 706 LINE",
"253 706 LINE",
"60 34 LINE",
"7 34 LINE",
"7 0 LINE",
"155 0 LINE",
"155 34 LINE",
"95 34 LINE",
"263 634 LINE",
"263 34 LINE"
);
}
);
width = 500;
},
{
layerId = "63C36BCE-C2CB-4BF3-9C7E-344D74934179";
paths = (
{
closed = 1;
nodes = (
"178 303 LINE",
"162 273 LINE",
"283 273 LINE",
"289 303 LINE"
);
},
{
closed = 1;
nodes = (
"169 34 LINE",
"162 0 LINE",
"443 0 LINE",
"493 234 LINE",
"465 234 LINE",
"430 108 LINE SMOOTH",
"414 50 OFFCURVE",
"383 36 OFFCURVE",
"326 35 CURVE SMOOTH",
"283 34 LINE",
"358 387 LINE",
"419 387 LINE",
"392 260 LINE",
"422 260 LINE",
"483 548 LINE",
"453 548 LINE",
"426 421 LINE",
"365 421 LINE",
"426 705 LINE",
"465 705 LINE SMOOTH",
"523 705 OFFCURVE",
"549 691 OFFCURVE",
"540 633 CURVE SMOOTH",
"524 526 LINE",
"552 526 LINE",
"597 740 LINE",
"271 740 LINE",
"265 706 LINE",
"356 706 LINE",
"20 34 LINE",
"-33 34 LINE",
"-40 0 LINE",
"108 0 LINE",
"115 34 LINE",
"55 34 LINE",
"351 634 LINE",
"223 34 LINE"
);
}
);
width = 500;
},
{
layerId = "3F0F5FFA-301F-4B90-BC1A-8916131A4004";
width = 600;
}
);
unicode = 00C6;
},
{
glyphname = B;
lastChange = "2020-08-16 02:14:21 +0000";
layers = (
{
layerId = "94EC0173-ED25-4379-B549-8ECC2838F2C2";
paths = (
{
closed = 1;
nodes = (
"271 0 LINE SMOOTH",
"407 0 OFFCURVE",
"481 74 OFFCURVE",
"481 209 CURVE SMOOTH",
"481 373 OFFCURVE",
"352 398 OFFCURVE",
"352 398 CURVE",
"352 405 LINE",
"352 405 OFFCURVE",
"452 425 OFFCURVE",
"452 560 CURVE SMOOTH",
"452 677 OFFCURVE",
"386 740 OFFCURVE",
"265 740 CURVE SMOOTH",
"28 740 LINE",
"28 706 LINE",
"112 706 LINE",
"112 34 LINE",
"28 34 LINE",
"28 0 LINE"
);
},
{
closed = 1;
nodes = (
"182 383 LINE",
"273 383 LINE SMOOTH",
"355 383 OFFCURVE",
"399 339 OFFCURVE",
"399 257 CURVE SMOOTH",
"399 158 LINE SMOOTH",
"399 76 OFFCURVE",
"355 32 OFFCURVE",
"273 32 CURVE SMOOTH",
"182 32 LINE"
);
},
{
closed = 1;
nodes = (
"182 708 LINE",
"273 708 LINE SMOOTH",
"338 708 OFFCURVE",
"373 673 OFFCURVE",
"373 608 CURVE SMOOTH",
"373 514 LINE SMOOTH",
"373 449 OFFCURVE",
"338 414 OFFCURVE",
"273 414 CURVE SMOOTH",
"182 414 LINE"
);
}
);
width = 500;
},
{
layerId = "3F0F5FFA-301F-4B90-BC1A-8916131A4004";
width = 600;
},
{
layerId = "63C36BCE-C2CB-4BF3-9C7E-344D74934179";
paths = (
{
closed = 1;
nodes = (
"200 0 LINE SMOOTH",
"352 0 OFFCURVE",
"461 115 OFFCURVE",
"461 254 CURVE SMOOTH",
"461 384 OFFCURVE",
"366 398 OFFCURVE",
"366 398 CURVE",
"367 405 LINE",
"367 405 OFFCURVE",
"506 449 OFFCURVE",
"506 602 CURVE SMOOTH",
"506 740 OFFCURVE",
"393 740 OFFCURVE",
"351 740 CURVE SMOOTH",
"124 740 LINE",
"117 706 LINE",
"201 706 LINE",
"58 34 LINE",
"-26 34 LINE",
"-33 0 LINE"
);
},
{
closed = 1;
nodes = (
"202 383 LINE",
"283 383 LINE SMOOTH",
"365 383 OFFCURVE",
"400 339 OFFCURVE",
"383 257 CURVE SMOOTH",
"362 158 LINE SMOOTH",
"345 76 OFFCURVE",
"288 32 OFFCURVE",
"209 32 CURVE SMOOTH",
"128 32 LINE"
);
},
{
closed = 1;
nodes = (
"271 708 LINE",
"352 708 LINE SMOOTH",
"415 708 OFFCURVE",
"445 673 OFFCURVE",
"431 608 CURVE SMOOTH",
"411 514 LINE SMOOTH",
"397 449 OFFCURVE",
"355 414 OFFCURVE",
"290 414 CURVE SMOOTH",
"209 414 LINE"
);
}
);
width = 500;
}
);
unicode = 0042;
},
{
glyphname = C;
lastChange = "2020-08-16 03:34:19 +0000";
layers = (
{
anchors = (
{
name = bottom;
position = "{260, 0}";
},
{
name = top;
position = "{250, 740}";
}
);
layerId = "94EC0173-ED25-4379-B549-8ECC2838F2C2";
paths = (
{
closed = 1;
nodes = (
"362 -10 OFFCURVE",
"386 91 OFFCURVE",
"386 91 CURVE",
"394 91 LINE",
"394 0 LINE",
"426 0 LINE",
"426 252 LINE",
"374 252 LINE",
"374 229 LINE SMOOTH",
"374 75 OFFCURVE",
"314 27 OFFCURVE",
"254 27 CURVE SMOOTH",
"175 27 OFFCURVE",
"133 90 OFFCURVE",
"133 205 CURVE SMOOTH",
"133 535 LINE SMOOTH",
"133 650 OFFCURVE",
"176 713 OFFCURVE",
"254 713 CURVE SMOOTH",
"314 713 OFFCURVE",
"374 665 OFFCURVE",
"374 511 CURVE SMOOTH",
"374 488 LINE",
"426 488 LINE",
"426 740 LINE",
"394 740 LINE",
"394 649 LINE",
"386 649 LINE",
"386 649 OFFCURVE",
"362 750 OFFCURVE",
"254 750 CURVE SMOOTH",
"118 750 OFFCURVE",
"49 560 OFFCURVE",
"49 370 CURVE SMOOTH",
"49 180 OFFCURVE",
"118 -10 OFFCURVE",
"254 -10 CURVE SMOOTH"
);
}
);
width = 500;
},
{
layerId = "3F0F5FFA-301F-4B90-BC1A-8916131A4004";
width = 600;
},
{
anchors = (
{
name = bottom;
position = "{213, 0}";
},
{
name = top;
position = "{350, 740}";
}
);
layerId = "63C36BCE-C2CB-4BF3-9C7E-344D74934179";
paths = (
{
closed = 1;
nodes = (
"307 -10 OFFCURVE",
"354 110 OFFCURVE",
"354 110 CURVE",
"362 110 LINE",
"336 -10 LINE",
"369 -10 LINE",
"425 252 LINE",
"375 252 LINE",
"370 229 LINE SMOOTH",
"337 77 OFFCURVE",
"264 27 OFFCURVE",
"203 27 CURVE SMOOTH",
"130 27 OFFCURVE",
"100 90 OFFCURVE",
"124 205 CURVE SMOOTH",
"194 535 LINE SMOOTH",
"218 650 OFFCURVE",
"285 713 OFFCURVE",
"357 713 CURVE SMOOTH",
"419 713 OFFCURVE",
"464 667 OFFCURVE",
"430 511 CURVE SMOOTH",
"425 488 LINE",
"475 488 LINE",
"531 750 LINE",
"498 750 LINE",
"474 638 LINE",
"466 638 LINE",
"466 638 OFFCURVE",
"467 750 OFFCURVE",
"362 750 CURVE SMOOTH",
"195 750 OFFCURVE",
"58 467 OFFCURVE",
"58 224 CURVE SMOOTH",
"58 90 OFFCURVE",
"100 -10 OFFCURVE",
"199 -10 CURVE SMOOTH"
);
}
);
width = 500;
}
);
unicode = 0043;
},
{
glyphname = D;
lastChange = "2020-08-16 02:16:11 +0000";
layers = (
{
layerId = "94EC0173-ED25-4379-B549-8ECC2838F2C2";
paths = (
{
closed = 1;
nodes = (
"315 708 OFFCURVE",
"388 644 OFFCURVE",
"388 527 CURVE SMOOTH",
"388 213 LINE SMOOTH",
"388 96 OFFCURVE",
"315 32 OFFCURVE",
"227 32 CURVE SMOOTH",
"190 32 LINE",
"190 0 LINE",
"227 0 LINE SMOOTH",
"394 0 OFFCURVE",
"472 185 OFFCURVE",
"472 370 CURVE SMOOTH",
"472 555 OFFCURVE",
"394 740 OFFCURVE",
"227 740 CURVE SMOOTH",
"190 740 LINE",
"190 708 LINE",
"227 708 LINE SMOOTH"
);
},
{
closed = 1;
nodes = (
"192 0 LINE",
"192 740 LINE",
"38 740 LINE",
"38 706 LINE",
"122 706 LINE",
"122 34 LINE",
"38 34 LINE",
"38 0 LINE"
);
}
);
width = 500;
},
{
layerId = "3F0F5FFA-301F-4B90-BC1A-8916131A4004";
width = 600;
},
{
layerId = "63C36BCE-C2CB-4BF3-9C7E-344D74934179";
paths = (
{
closed = 1;
nodes = (
"170 0 LINE SMOOTH",
"345 0 OFFCURVE",
"508 240 OFFCURVE",
"508 498 CURVE SMOOTH",
"508 631 OFFCURVE",
"455 740 OFFCURVE",
"327 740 CURVE SMOOTH",
"138 740 LINE",
"131 706 LINE",
"215 706 LINE",
"72 34 LINE",
"-12 34 LINE",
"-19 0 LINE"
);
},
{
closed = 1;
nodes = (
"285 708 LINE",
"320 708 LINE SMOOTH",
"408 708 OFFCURVE",
"468 644 OFFCURVE",
"443 527 CURVE SMOOTH",
"376 213 LINE SMOOTH",
"351 96 OFFCURVE",
"264 32 OFFCURVE",
"177 32 CURVE SMOOTH",
"142 32 LINE"
);
}
);
width = 500;
}
);
unicode = 0044;
},
{
glyphname = E;
lastChange = "2020-08-16 03:34:37 +0000";
layers = (
{
anchors = (
{
name = bottom;
position = "{250, 0}";
},
{
name = ogonek;
position = "{355, 0}";
},
{
name = top;
position = "{250, 740}";
},
{
name = topleft;
position = "{20, 740}";
}
);
components = (
{
name = "stem-upper-2";
transform = "{1, 0, 0, 1, 40, 0}";
}
);
layerId = "94EC0173-ED25-4379-B549-8ECC2838F2C2";
paths = (
{
closed = 1;
nodes = (
"317 705 LINE SMOOTH",
"365 705 OFFCURVE",
"394 681 OFFCURVE",
"400 633 CURVE SMOOTH",
"414 526 LINE",
"442 526 LINE",
"442 740 LINE",
"169 740 LINE",
"169 705 LINE"
);
},
{
closed = 1;
nodes = (
"314 387 LINE",
"314 260 LINE",
"346 260 LINE",
"346 548 LINE",
"314 548 LINE",
"314 421 LINE",
"123 421 LINE",
"123 387 LINE"
);
},
{
closed = 1;
nodes = (
"169 0 LINE",
"452 0 LINE",
"452 234 LINE",
"424 234 LINE",
"409 108 LINE SMOOTH",
"403 59 OFFCURVE",
"375 35 OFFCURVE",
"327 35 CURVE SMOOTH",
"169 35 LINE"
);
}
);
width = 500;
},
{
layerId = "3F0F5FFA-301F-4B90-BC1A-8916131A4004";
width = 600;
},
{
anchors = (
{
name = bottom;
position = "{193, 0}";
},
{
name = ogonek;
position = "{303, 0}";
},
{
name = top;
position = "{358, 740}";
},
{
name = topleft;
position = "{120, 740}";
}
);
guideLines = (
{
angle = 77.972;
position = "{180, 211}";
}
);
layerId = "63C36BCE-C2CB-4BF3-9C7E-344D74934179";
paths = (
{
closed = 1;
nodes = (
"393 0 LINE",
"443 234 LINE",
"415 234 LINE",
"377 108 LINE SMOOTH",
"357 41 OFFCURVE",
"322 35 OFFCURVE",
"275 35 CURVE SMOOTH",
"133 35 LINE",
"208 387 LINE",
"337 387 LINE",
"310 260 LINE",
"342 260 LINE",
"403 548 LINE",
"371 548 LINE",
"344 421 LINE",
"215 421 LINE",
"276 705 LINE",
"408 705 LINE SMOOTH",
"455 705 OFFCURVE",
"487 691 OFFCURVE",
"480 633 CURVE SMOOTH",
"467 526 LINE",
"495 526 LINE",
"540 740 LINE",
"129 740 LINE",
"122 706 LINE",
"206 706 LINE",
"63 34 LINE",
"-21 34 LINE",
"-28 0 LINE"
);
}
);
width = 500;
}
);
unicode = 0045;
},
{
glyphname = F;
lastChange = "2020-08-16 03:33:37 +0000";
layers = (
{
layerId = "94EC0173-ED25-4379-B549-8ECC2838F2C2";
paths = (
{
closed = 1;
nodes = (
"347 0 LINE",
"347 34 LINE",
"185 34 LINE",
"185 387 LINE",
"326 387 LINE",
"326 260 LINE",
"356 260 LINE",
"356 548 LINE",
"326 548 LINE",
"326 421 LINE",
"185 421 LINE",
"185 705 LINE",
"327 705 LINE SMOOTH",
"375 705 OFFCURVE",
"404 681 OFFCURVE",
"410 633 CURVE SMOOTH",
"424 526 LINE",
"452 526 LINE",
"452 740 LINE",
"31 740 LINE",
"31 706 LINE",
"115 706 LINE",
"115 34 LINE",
"31 34 LINE",
"31 0 LINE"
);
}
);
width = 500;
},
{
layerId = "3F0F5FFA-301F-4B90-BC1A-8916131A4004";
width = 600;
},
{
layerId = "63C36BCE-C2CB-4BF3-9C7E-344D74934179";
paths = (
{
closed = 1;
nodes = (
"300 0 LINE",
"307 34 LINE",
"145 34 LINE",
"220 387 LINE",
"361 387 LINE",
"334 260 LINE",
"364 260 LINE",
"425 548 LINE",
"395 548 LINE",
"368 421 LINE",
"227 421 LINE",
"288 705 LINE",
"430 705 LINE SMOOTH",
"477 705 OFFCURVE",
"509 691 OFFCURVE",
"502 633 CURVE SMOOTH",
"489 526 LINE",
"517 526 LINE",
"562 740 LINE",
"141 740 LINE",
"134 706 LINE",
"218 706 LINE",
"75 34 LINE",
"-9 34 LINE",
"-16 0 LINE"
);
}
);
width = 500;
}
);
unicode = 0046;
},
{
glyphname = G;
lastChange = "2020-08-16 03:34:21 +0000";
layers = (
{
anchors = (
{
name = bottom;
position = "{250, 0}";
},
{
name = top;
position = "{250, 740}";
}
);
layerId = "94EC0173-ED25-4379-B549-8ECC2838F2C2";
paths = (
{
closed = 1;
nodes = (
"178 27 OFFCURVE",
"133 90 OFFCURVE",
"133 205 CURVE SMOOTH",
"133 535 LINE SMOOTH",
"133 650 OFFCURVE",
"177 713 OFFCURVE",
"251 713 CURVE SMOOTH",
"315 713 OFFCURVE",
"374 665 OFFCURVE",
"374 511 CURVE SMOOTH",
"374 488 LINE",
"426 488 LINE",
"426 740 LINE",
"394 740 LINE",
"394 649 LINE",
"386 649 LINE",
"386 649 OFFCURVE",
"360 750 OFFCURVE",
"258 750 CURVE SMOOTH",
"117 750 OFFCURVE",
"49 560 OFFCURVE",
"49 368 CURVE SMOOTH",
"49 158 OFFCURVE",
"130 -10 OFFCURVE",
"249 -10 CURVE SMOOTH",
"361 -10 OFFCURVE",
"384 120 OFFCURVE",
"384 120 CURVE",
"393 120 LINE",
"393 0 LINE",
"428 0 LINE",
"428 404 LINE",
"206 404 LINE",
"206 370 LINE",
"372 370 LINE",
"372 307 LINE SMOOTH",
"372 193 OFFCURVE",
"360 27 OFFCURVE",
"247 27 CURVE SMOOTH"
);
}
);
width = 500;
},
{
layerId = "3F0F5FFA-301F-4B90-BC1A-8916131A4004";
width = 600;
},
{
anchors = (
{
name = bottom;
position = "{193, 0}";
},
{
name = top;
position = "{350, 740}";
}
);
layerId = "63C36BCE-C2CB-4BF3-9C7E-344D74934179";
paths = (
{
closed = 1;
nodes = (
"437 713 OFFCURVE",
"483 667 OFFCURVE",
"449 511 CURVE SMOOTH",
"444 488 LINE",
"494 488 LINE",
"550 750 LINE",
"517 750 LINE",
"493 638 LINE",
"485 638 LINE",
"485 638 OFFCURVE",
"487 750 OFFCURVE",
"379 750 CURVE SMOOTH",
"209 750 OFFCURVE",
"70 470 OFFCURVE",
"70 224 CURVE SMOOTH",
"70 69 OFFCURVE",
"125 -10 OFFCURVE",
"209 -10 CURVE SMOOTH",
"317 -10 OFFCURVE",
"369 120 OFFCURVE",
"369 120 CURVE",
"378 120 LINE",
"353 0 LINE",
"388 0 LINE",
"474 404 LINE",
"252 404 LINE",
"244 370 LINE",
"410 370 LINE",
"397 307 LINE SMOOTH",
"374 197 OFFCURVE",
"328 27 OFFCURVE",
"212 27 CURVE SMOOTH",
"141 27 OFFCURVE",
"112 90 OFFCURVE",
"136 205 CURVE SMOOTH",
"206 535 LINE SMOOTH",
"230 650 OFFCURVE",
"290 713 OFFCURVE",
"369 713 CURVE SMOOTH"
);
}
);
width = 500;
}
);
unicode = 0047;
},
{
glyphname = H;
lastChange = "2020-08-16 02:19:18 +0000";
layers = (
{
components = (
{
alignment = -1;
name = "I-Stem";
transform = "{1, 0, 0, 1, -141, 0}";
},
{
alignment = -1;
name = "I-Stem";
transform = "{-1, 0, 0, 1, 640, 0}";
},
{
name = crossbar;
transform = "{1, 0, 0, 1, 9, 111}";
}
);
layerId = "94EC0173-ED25-4379-B549-8ECC2838F2C2";
width = 500;
},
{
layerId = "3F0F5FFA-301F-4B90-BC1A-8916131A4004";
width = 600;
},
{
layerId = "63C36BCE-C2CB-4BF3-9C7E-344D74934179";
paths = (
{
closed = 1;
nodes = (
"147 0 LINE",
"154 34 LINE",
"88 34 LINE",
"231 706 LINE",
"297 706 LINE",
"304 740 LINE",
"106 740 LINE",
"99 706 LINE",
"165 706 LINE",
"22 34 LINE",
"-44 34 LINE",
"-51 0 LINE"
);
},
{
closed = 1;
nodes = (
"433 34 LINE",
"367 34 LINE",
"510 706 LINE",
"576 706 LINE",
"583 740 LINE",
"385 740 LINE",
"378 706 LINE",
"444 706 LINE",
"301 34 LINE",
"235 34 LINE",
"228 0 LINE",
"426 0 LINE"
);
},
{
closed = 1;
nodes = (
"399 382 LINE",
"406 416 LINE",
"132 416 LINE",
"125 382 LINE"
);
}
);
width = 500;
}
);
unicode = 0048;
},
{
glyphname = Hbar;
lastChange = "2020-08-15 15:50:48 +0000";
layers = (
{
components = (
{
name = H;
},
{
alignment = -1;
name = crossbar;
transform = "{1.52, 0, 0, 0.9, -106, 293}";
}
);
layerId = "94EC0173-ED25-4379-B549-8ECC2838F2C2";
width = 500;
},
{
components = (
{
name = H;
}
);
layerId = "63C36BCE-C2CB-4BF3-9C7E-344D74934179";
paths = (
{
closed = 1;
nodes = (
"98 562 LINE",
"91 532 LINE",
"510 532 LINE",
"517 562 LINE"
);
}
);
width = 500;
},
{
layerId = "3F0F5FFA-301F-4B90-BC1A-8916131A4004";
width = 600;
}
);
unicode = 0126;
},
{
glyphname = I;
lastChange = "2020-08-16 02:19:51 +0000";
layers = (
{
anchors = (
{
name = bottom;
position = "{250, 0}";
},
{
name = ogonek;
position = "{241, 0}";
},
{
name = top;
position = "{250, 740}";
},
{
name = topleft;
position = "{20, 740}";
}
);
layerId = "94EC0173-ED25-4379-B549-8ECC2838F2C2";
paths = (
{
closed = 1;
nodes = (
"450 0 LINE",
"450 34 LINE",
"286 34 LINE",
"286 706 LINE",
"450 706 LINE",
"450 740 LINE",
"52 740 LINE",
"52 706 LINE",
"216 706 LINE",
"216 34 LINE",
"52 34 LINE",
"52 0 LINE"
);
}
);
width = 500;
},
{
layerId = "3F0F5FFA-301F-4B90-BC1A-8916131A4004";
width = 600;
},
{
anchors = (
{
name = bottom;
position = "{193, 0}";
},
{
name = ogonek;
position = "{191, 2}";
},
{
name = top;
position = "{350, 740}";
},
{
name = topleft;
position = "{120, 740}";
}
);
layerId = "63C36BCE-C2CB-4BF3-9C7E-344D74934179";
paths = (
{
closed = 1;
nodes = (
"396 0 LINE",
"403 34 LINE",
"239 34 LINE",
"382 706 LINE",
"546 706 LINE",
"553 740 LINE",
"155 740 LINE",
"148 706 LINE",
"312 706 LINE",
"169 34 LINE",
"5 34 LINE",
"-2 0 LINE"
);
}
);
width = 500;
}
);
unicode = 0049;
},
{
glyphname = J;
lastChange = "2020-08-16 02:20:09 +0000";
layers = (
{
components = (
{
alignment = -1;
name = "stem-upper";
transform = "{1, 0, 0, 0.75676, 57, 180}";
}
);
layerId = "94EC0173-ED25-4379-B549-8ECC2838F2C2";
paths = (
{
closed = 1;
nodes = (
"315 178 LINE SMOOTH",
"315 63 OFFCURVE",
"255 12 OFFCURVE",
"171 19 CURVE",
"145 76 LINE SMOOTH",
"139 90 OFFCURVE",
"124 124 OFFCURVE",
"85 124 CURVE SMOOTH",
"56 124 OFFCURVE",
"40 104 OFFCURVE",
"40 78 CURVE SMOOTH",
"40 31 OFFCURVE",
"92 -10 OFFCURVE",
"181 -10 CURVE SMOOTH",
"299 -10 OFFCURVE",
"385 61 OFFCURVE",
"385 189 CURVE SMOOTH",
"385 223 LINE",
"315 223 LINE"
);
},
{
closed = 1;
nodes = (
"489 706 LINE",
"489 740 LINE",
"143 740 LINE",
"143 706 LINE",
"315 706 LINE",
"385 706 LINE"
);
}
);
width = 500;
},
{
layerId = "3F0F5FFA-301F-4B90-BC1A-8916131A4004";
width = 600;
},
{
guideLines = (
{
angle = 258.0397;
position = "{379, 440}";
}
);
layerId = "63C36BCE-C2CB-4BF3-9C7E-344D74934179";
paths = (
{
closed = 1;
nodes = (
"-5 29 OFFCURVE",
"42 -10 OFFCURVE",
"127 -10 CURVE SMOOTH",
"253 -10 OFFCURVE",
"371 74 OFFCURVE",
"407 244 CURVE SMOOTH",
"505 706 LINE",
"611 706 LINE",
"618 740 LINE",
"272 740 LINE",
"265 706 LINE",
"435 706 LINE",
"337 242 LINE SMOOTH",
"296 49 OFFCURVE",
"198 11 OFFCURVE",
"115 19 CURVE",
"101 76 LINE SMOOTH",
"95 100 OFFCURVE",
"85 134 OFFCURVE",
"47 134 CURVE SMOOTH",
"15 134 OFFCURVE",
"-5 108 OFFCURVE",
"-5 77 CURVE SMOOTH"
);
}
);
width = 500;
}
);
unicode = 004A;
},
{
glyphname = K;
lastChange = "2020-08-16 04:10:57 +0000";
layers = (
{
anchors = (
{
name = bottom;
position = "{250, 0}";
},
{
name = top;
position = "{250, 740}";
}
);
layerId = "94EC0173-ED25-4379-B549-8ECC2838F2C2";
paths = (
{
closed = 1;
nodes = (
"382 740 LINE",
"70 260 LINE",
"109 257 LINE",
"421 737 LINE"
);
},
{
closed = 1;
nodes = (
"300 740 LINE",
"300 706 LINE",
"354 706 LINE",
"392 706 LINE",
"485 706 LINE",
"485 740 LINE"
);
},
{
closed = 1;
nodes = (
"235 466 LINE",
"194 396 LINE",
"382 0 LINE",
"456 0 LINE"
);
},
{
closed = 1;
nodes = (
"511 34 LINE",
"442 34 LINE",
"365 34 LINE",
"287 34 LINE",
"287 0 LINE",
"511 0 LINE"
);
},
{
closed = 1;
nodes = (
"231 34 LINE",
"135 34 LINE",
"135 706 LINE",
"201 706 LINE",
"201 740 LINE",
"1 740 LINE",
"1 706 LINE",
"67 706 LINE",
"67 34 LINE",
"1 34 LINE",
"1 0 LINE",
"231 0 LINE"
);
}
);
width = 500;
},
{
layerId = "3F0F5FFA-301F-4B90-BC1A-8916131A4004";
width = 600;
},
{
anchors = (
{
name = bottom;
position = "{193, 0}";
},
{
name = top;
position = "{350, 740}";
}
);
layerId = "63C36BCE-C2CB-4BF3-9C7E-344D74934179";
paths = (
{
closed = 1;
nodes = (
"489 740 LINE",
"75 260 LINE",
"114 257 LINE",
"528 737 LINE"
);
},
{
closed = 1;
nodes = (
"407 740 LINE",
"400 706 LINE",
"454 706 LINE",
"492 706 LINE",
"565 706 LINE",
"572 740 LINE"
);
},
{
closed = 1;
nodes = (
"279 466 LINE",
"228 396 LINE",
"332 0 LINE",
"401 0 LINE"
);
},
{
closed = 1;
nodes = (
"453 34 LINE",
"394 34 LINE",
"322 34 LINE",
"244 34 LINE",
"237 0 LINE",
"446 0 LINE"
);
},
{
closed = 1;
nodes = (
"188 34 LINE",
"92 34 LINE",
"235 706 LINE",
"301 706 LINE",
"308 740 LINE",
"108 740 LINE",
"101 706 LINE",
"167 706 LINE",
"24 34 LINE",
"-42 34 LINE",
"-49 0 LINE",
"181 0 LINE"
);
}
);
width = 500;
}
);
unicode = 004B;
},
{
glyphname = L;
lastChange = "2020-08-16 03:33:24 +0000";
layers = (
{
anchors = (
{
name = bottom;
position = "{250, 0}";
},
{
name = center;
position = "{250, 370}";
},
{
name = top;
position = "{160, 740}";
},
{
name = topright;
position = "{480, 740}";
}
);
layerId = "94EC0173-ED25-4379-B549-8ECC2838F2C2";
paths = (
{
closed = 1;
nodes = (
"169 0 LINE",
"452 0 LINE",
"452 234 LINE",
"424 234 LINE",
"409 108 LINE SMOOTH",
"403 59 OFFCURVE",
"375 35 OFFCURVE",
"327 35 CURVE SMOOTH",
"169 35 LINE"
);
},
{
closed = 1;
nodes = (
"185 706 LINE",
"269 706 LINE",
"269 740 LINE",
"31 740 LINE",
"31 706 LINE",
"115 706 LINE"
);
},
{
closed = 1;
nodes = (
"185 0 LINE",
"185 740 LINE",
"31 740 LINE",
"31 706 LINE",
"115 706 LINE",
"115 34 LINE",
"31 34 LINE",
"31 0 LINE"
);
}
);
width = 500;
},
{
layerId = "3F0F5FFA-301F-4B90-BC1A-8916131A4004";
width = 600;
},
{
anchors = (
{
name = bottom;
position = "{193, 0}";
},
{
name = center;
position = "{271, 370}";
},
{
name = top;
position = "{260, 740}";
},
{
name = topright;
position = "{580, 740}";
}
);
layerId = "63C36BCE-C2CB-4BF3-9C7E-344D74934179";
paths = (
{
closed = 1;
nodes = (
"289 706 LINE",
"373 706 LINE",
"380 740 LINE",
"142 740 LINE",
"135 706 LINE",
"219 706 LINE"
);
},
{
closed = 1;
nodes = (
"139 0 LINE",
"296 740 LINE",
"142 740 LINE",
"135 706 LINE",
"219 706 LINE",
"76 34 LINE",
"-8 34 LINE",
"-15 0 LINE"
);
},
{
closed = 1;
nodes = (
"456 234 LINE",
"428 234 LINE",
"390 108 LINE SMOOTH",
"370 41 OFFCURVE",
"335 35 OFFCURVE",
"288 35 CURVE SMOOTH",
"130 35 LINE",
"123 0 LINE",
"406 0 LINE"
);
}
);
width = 500;
}
);
unicode = 004C;
},
{
glyphname = Lslash;
lastChange = "2020-08-16 17:00:10 +0000";
layers = (
{
components = (
{
name = L;
}
);
layerId = "94EC0173-ED25-4379-B549-8ECC2838F2C2";
paths = (
{
closed = 1;
nodes = (
"41 325 LINE",
"41 291 LINE",
"328 461 LINE",
"328 495 LINE"
);
}
);
width = 500;
},
{
components = (
{
name = L;
transform = "{1, 0, 0, 1, -1, 0}";
}
);
layerId = "63C36BCE-C2CB-4BF3-9C7E-344D74934179";
paths = (
{
closed = 1;
nodes = (
"47 325 LINE",
"40 291 LINE",
"363 461 LINE",
"370 495 LINE"
);
}
);
width = 500;
},
{
layerId = "3F0F5FFA-301F-4B90-BC1A-8916131A4004";
width = 600;
}
);
unicode = 0141;
},
{
glyphname = M;
lastChange = "2020-08-16 02:21:36 +0000";
layers = (
{
guideLines = (
{
angle = -76.9418;
position = "{99, 740}";
},
{
angle = 76.9418;
position = "{-913, 0}";
}
);
layerId = "94EC0173-ED25-4379-B549-8ECC2838F2C2";
paths = (
{
closed = 1;
nodes = (
"248 0 LINE",
"370 526 LINE",
"370 34 LINE",
"316 34 LINE",
"316 0 LINE",
"502 0 LINE",
"502 34 LINE",
"438 34 LINE",
"438 706 LINE",
"502 706 LINE",
"502 740 LINE",
"389 740 LINE",
"217 0 LINE"
);
},
{
closed = 1;
nodes = (
"159 0 LINE",
"159 34 LINE",
"95 34 LINE",
"95 526 LINE",
"217 0 LINE",
"259 51 LINE",
"99 740 LINE",
"1 740 LINE",
"1 706 LINE",
"61 706 LINE",
"61 34 LINE",
"1 34 LINE",
"1 0 LINE"
);
}
);
width = 500;
},
{
layerId = "3F0F5FFA-301F-4B90-BC1A-8916131A4004";
width = 600;
},
{
guideLines = (
{
angle = -76.9418;
position = "{99, 740}";
},
{
angle = 76.9418;
position = "{-913, 0}";
}
);
layerId = "63C36BCE-C2CB-4BF3-9C7E-344D74934179";
paths = (
{
closed = 1;
nodes = (
"203 0 LINE",
"437 526 LINE",
"332 34 LINE",
"278 34 LINE",
"271 0 LINE",
"457 0 LINE",
"464 34 LINE",
"400 34 LINE",
"543 706 LINE",
"607 706 LINE",
"614 740 LINE",
"501 740 LINE",
"172 0 LINE"
);
},
{
closed = 1;
nodes = (
"114 0 LINE",
"121 34 LINE",
"57 34 LINE",
"162 526 LINE",
"172 0 LINE",
"225 51 LINE",
"211 740 LINE",
"113 740 LINE",
"106 706 LINE",
"166 706 LINE",
"23 34 LINE",
"-37 34 LINE",
"-44 0 LINE"
);
}
);
width = 500;
}
);
unicode = 004D;
},
{
glyphname = N;
lastChange = "2020-08-16 03:37:42 +0000";
layers = (
{
anchors = (
{
name = bottom;
position = "{250, 0}";
},
{
name = top;
position = "{250, 740}";
}
);
guideLines = (
{
angle = -64.6708;
position = "{139, 740}";
}
);
layerId = "94EC0173-ED25-4379-B549-8ECC2838F2C2";
paths = (
{
closed = 1;
nodes = (
"219 0 LINE",
"219 34 LINE",
"135 34 LINE",
"135 586 LINE",
"390 -10 LINE",
"414 -10 LINE",
"414 706 LINE",
"478 706 LINE",
"478 740 LINE",
"296 740 LINE",
"296 706 LINE",
"380 706 LINE",
"380 176 LINE",
"139 740 LINE",
"37 740 LINE",
"37 706 LINE",
"101 706 LINE",
"101 34 LINE",
"37 34 LINE",
"37 0 LINE"
);
}
);
width = 500;
},
{
layerId = "3F0F5FFA-301F-4B90-BC1A-8916131A4004";
width = 600;
},
{
anchors = (
{
name = bottom;
position = "{213, 0}";
},
{
name = top;
position = "{350, 740}";
}
);
guideLines = (
{
angle = 257.9868;
position = "{142, 34}";
},
{
angle = -77.879;
position = "{328, 288}";
}
);
layerId = "63C36BCE-C2CB-4BF3-9C7E-344D74934179";
paths = (
{
closed = 1;
nodes = (
"163 0 LINE",
"170 34 LINE",
"86 34 LINE",
"204 586 LINE",
"332 -10 LINE",
"356 -10 LINE",
"508 706 LINE",
"572 706 LINE",
"579 740 LINE",
"397 740 LINE",
"390 706 LINE",
"474 706 LINE",
"361 176 LINE",
"240 740 LINE",
"138 740 LINE",
"131 706 LINE",
"195 706 LINE",
"52 34 LINE",
"-12 34 LINE",
"-19 0 LINE"
);
}
);
width = 500;
}
);
unicode = 004E;
},
{
glyphname = Eng;
lastChange = "2020-08-16 03:38:13 +0000";
layers = (
{
anchors = (
{
name = bottom;
position = "{250, 0}";
},
{
name = top;
position = "{250, 740}";
}
);
guideLines = (
{
angle = 270;
position = "{380, 441}";
}
);
layerId = "94EC0173-ED25-4379-B549-8ECC2838F2C2";
paths = (
{
closed = 1;
nodes = (
"219 0 LINE",
"219 32 LINE",
"135 32 LINE",
"135 586 LINE",
"380 13 LINE",
"380 -12 LINE SMOOTH",
"380 -87 OFFCURVE",
"346 -161 OFFCURVE",
"262 -154 CURVE",
"244 -104 LINE SMOOTH",
"239 -89 OFFCURVE",
"223 -58 OFFCURVE",
"187 -58 CURVE SMOOTH",
"160 -58 OFFCURVE",
"141 -74 OFFCURVE",
"141 -104 CURVE SMOOTH",
"141 -147 OFFCURVE",
"187 -180 OFFCURVE",
"259 -180 CURVE SMOOTH",
"389 -180 OFFCURVE",
"414 -72 OFFCURVE",
"414 8 CURVE SMOOTH",
"414 706 LINE",
"478 706 LINE",
"478 740 LINE",
"296 740 LINE",
"296 706 LINE",
"380 706 LINE",
"380 176 LINE",
"139 740 LINE",
"37 740 LINE",
"37 706 LINE",
"101 706 LINE",
"101 32 LINE",
"37 32 LINE",
"37 0 LINE"
);
}
);
width = 600;
},
{
layerId = "63C36BCE-C2CB-4BF3-9C7E-344D74934179";
paths = (
{
closed = 1;
nodes = (
"300 -180 OFFCURVE",
"349 -72 OFFCURVE",
"366 8 CURVE SMOOTH",
"514 706 LINE",
"578 706 LINE",
"585 740 LINE",
"403 740 LINE",
"396 706 LINE",
"480 706 LINE",
"367 176 LINE",
"246 740 LINE",
"144 740 LINE",
"137 706 LINE",
"201 706 LINE",
"58 34 LINE",
"-6 34 LINE",
"-13 0 LINE",
"169 0 LINE",
"176 34 LINE",
"92 34 LINE",
"210 586 LINE",
"333 13 LINE",
"330 0 LINE SMOOTH",
"309 -89 OFFCURVE",
"261 -161 OFFCURVE",
"179 -154 CURVE",
"162 -104 LINE SMOOTH",
"157 -90 OFFCURVE",
"144 -58 OFFCURVE",
"105 -58 CURVE SMOOTH",
"75 -58 OFFCURVE",
"58 -79 OFFCURVE",
"58 -105 CURVE SMOOTH",
"58 -149 OFFCURVE",
"106 -180 OFFCURVE",
"174 -180 CURVE SMOOTH"
);
}
);
width = 500;
},
{
layerId = "3F0F5FFA-301F-4B90-BC1A-8916131A4004";
width = 600;
}
);
unicode = 014A;
},
{
glyphname = O;
lastChange = "2020-08-15 07:27:35 +0000";
layers = (
{
anchors = (
{
name = bottom;
position = "{250, 0}";
},
{
name = center;
position = "{250, 370}";
},
{
name = ogonek;
position = "{450, 10}";
},
{
name = top;
position = "{250, 740}";
},
{
name = topleft;
position = "{20, 740}";
},
{
name = topright;
position = "{367, 687}";
}
);
guideLines = (
{
position = "{437, 687}";
}
);
layerId = "94EC0173-ED25-4379-B549-8ECC2838F2C2";
paths = (
{
closed = 1;
nodes = (
"387 -10 OFFCURVE",
"455 180 OFFCURVE",
"455 370 CURVE SMOOTH",
"455 560 OFFCURVE",
"387 750 OFFCURVE",
"250 750 CURVE SMOOTH",
"114 750 OFFCURVE",
"45 560 OFFCURVE",
"45 370 CURVE SMOOTH",
"45 180 OFFCURVE",
"114 -10 OFFCURVE",
"250 -10 CURVE SMOOTH"
);
},
{
closed = 1;
nodes = (
"171 27 OFFCURVE",
"129 90 OFFCURVE",
"129 205 CURVE SMOOTH",
"129 535 LINE SMOOTH",
"129 650 OFFCURVE",
"172 713 OFFCURVE",
"250 713 CURVE SMOOTH",
"328 713 OFFCURVE",
"371 650 OFFCURVE",
"371 535 CURVE SMOOTH",
"371 205 LINE SMOOTH",
"371 90 OFFCURVE",
"328 27 OFFCURVE",
"250 27 CURVE SMOOTH"
);
}
);
width = 500;
},
{
layerId = "3F0F5FFA-301F-4B90-BC1A-8916131A4004";
width = 600;
},
{
anchors = (
{
name = bottom;
position = "{193, 0}";
},
{
name = center;
position = "{271, 370}";
},
{
name = ogonek;
position = "{395, 10}";
},
{
name = top;
position = "{350, 740}";
},
{
name = topleft;
position = "{120, 740}";
},
{
name = topright;
position = "{443, 681}";
}
);
guideLines = (
{
position = "{437, 687}";
}
);
layerId = "63C36BCE-C2CB-4BF3-9C7E-344D74934179";
paths = (
{
closed = 1;
nodes = (
"343 -10 OFFCURVE",
"487 276 OFFCURVE",
"487 519 CURVE SMOOTH",
"487 650 OFFCURVE",
"445 750 OFFCURVE",
"349 750 CURVE SMOOTH",
"188 750 OFFCURVE",
"43 465 OFFCURVE",
"43 222 CURVE SMOOTH",
"43 90 OFFCURVE",
"85 -10 OFFCURVE",
"181 -10 CURVE SMOOTH"
);
},
{
closed = 1;
nodes = (
"112 27 OFFCURVE",
"85 90 OFFCURVE",
"109 205 CURVE SMOOTH",
"179 535 LINE SMOOTH",
"203 650 OFFCURVE",
"261 713 OFFCURVE",
"339 713 CURVE SMOOTH",
"417 713 OFFCURVE",
"445 650 OFFCURVE",
"421 535 CURVE SMOOTH",
"351 205 LINE SMOOTH",
"327 90 OFFCURVE",
"269 27 OFFCURVE",
"191 27 CURVE SMOOTH"
);
}
);
width = 500;
}
);
unicode = 004F;
},
{
glyphname = Oslash;
lastChange = "2020-08-16 16:57:20 +0000";
layers = (
{
components = (
{
alignment = -1;
name = O;
transform = "{1, 0, 0, 1, 0, -10}";
}
);
layerId = "94EC0173-ED25-4379-B549-8ECC2838F2C2";
paths = (
{
closed = 1;
nodes = (
"396.762 759.172 LINE",
"366.328 769.06 LINE",
"103.849 -38.767 LINE",
"134.283 -48.656 LINE"
);
}
);
width = 500;
},
{
components = (
{
alignment = -1;
name = O;
transform = "{1, 0, 0, 1, 7, -10}";
}
);
layerId = "63C36BCE-C2CB-4BF3-9C7E-344D74934179";
paths = (
{
closed = 1;
nodes = (
"504 759 LINE",
"475 769 LINE",
"41 -39 LINE",
"69 -49 LINE"
);
}
);
width = 500;
},
{
layerId = "3F0F5FFA-301F-4B90-BC1A-8916131A4004";
width = 600;
}
);
unicode = 00D8;
},
{
glyphname = OE;
lastChange = "2020-08-15 13:34:05 +0000";
layers = (
{
layerId = "94EC0173-ED25-4379-B549-8ECC2838F2C2";
paths = (
{
closed = 1;
nodes = (
"26 557 OFFCURVE",
"26 374 CURVE SMOOTH",
"26 187 OFFCURVE",
"90 0 OFFCURVE",
"218 0 CURVE SMOOTH",
"462 0 LINE",
"462 234 LINE",
"434 234 LINE",
"419 108 LINE SMOOTH",
"413 59 OFFCURVE",
"383 35 OFFCURVE",
"336 35 CURVE SMOOTH",
"294 35 LINE",
"294 387 LINE",
"338 387 LINE",
"360 260 LINE",
"385 260 LINE",
"385 548 LINE",
"360 548 LINE",
"338 421 LINE",
"294 421 LINE",
"295 705 LINE",
"334 705 LINE SMOOTH",
"380 705 OFFCURVE",
"411 681 OFFCURVE",
"417 633 CURVE SMOOTH",
"431 526 LINE",
"459 526 LINE",
"458 740 LINE",
"217 740 LINE SMOOTH",
"88 740 OFFCURVE"
);
},
{
closed = 1;
nodes = (
"106 547 LINE SMOOTH",
"106 694 OFFCURVE",
"181 708 OFFCURVE",
"217 708 CURVE SMOOTH",
"233 708 LINE",
"233 32 LINE",
"218 32 LINE SMOOTH",
"171 32 OFFCURVE",
"106 46 OFFCURVE",
"106 193 CURVE SMOOTH"
);
}
);
width = 500;
},
{
guideLines = (
{
angle = 257.8934;
position = "{505, 469}";
},
{
angle = 77.9551;
position = "{131, 370}";
}
);
layerId = "63C36BCE-C2CB-4BF3-9C7E-344D74934179";
paths = (
{
closed = 1;
nodes = (
"36 449 OFFCURVE",
"36 232 CURVE SMOOTH",
"36 83 OFFCURVE",
"77 0 OFFCURVE",
"173 0 CURVE SMOOTH",
"407 0 LINE",
"457 234 LINE",
"429 234 LINE",
"387 108 LINE SMOOTH",
"371 59 OFFCURVE",
"336 35 OFFCURVE",
"289 35 CURVE SMOOTH",
"247 35 LINE",
"322 387 LINE",
"366 387 LINE",
"361 260 LINE",
"386 260 LINE",
"447 548 LINE",
"422 548 LINE",
"373 421 LINE",
"329 421 LINE",
"390 705 LINE",
"429 705 LINE SMOOTH",
"476 705 OFFCURVE",
"501 681 OFFCURVE",
"497 633 CURVE SMOOTH",
"488 526 LINE",
"516 526 LINE",
"561 740 LINE",
"320 740 LINE SMOOTH",
"152 740 OFFCURVE"
);
},
{
closed = 1;
nodes = (
"173 567 LINE SMOOTH",
"201 700 OFFCURVE",
"276 708 OFFCURVE",
"313 708 CURVE SMOOTH",
"328 708 LINE",
"185 32 LINE",
"170 32 LINE SMOOTH",
"100 32 OFFCURVE",
"73 97 OFFCURVE",
"89 171 CURVE SMOOTH"
);
}
);
width = 500;
},
{
layerId = "3F0F5FFA-301F-4B90-BC1A-8916131A4004";
width = 600;
}
);
unicode = 0152;
},
{
glyphname = P;
lastChange = "2020-08-16 02:22:30 +0000";
layers = (
{
layerId = "94EC0173-ED25-4379-B549-8ECC2838F2C2";
paths = (
{
closed = 1;
nodes = (
"334 0 LINE",
"334 34 LINE",
"172 34 LINE",
"172 290 LINE",
"207 290 LINE SMOOTH",
"371 290 OFFCURVE",
"453 403 OFFCURVE",
"453 515 CURVE SMOOTH",
"453 628 OFFCURVE",
"371 740 OFFCURVE",
"207 740 CURVE SMOOTH",
"18 740 LINE",
"18 706 LINE",
"102 706 LINE",
"102 34 LINE",
"18 34 LINE",
"18 0 LINE"
);
},
{
closed = 1;
nodes = (
"172 703 LINE",
"230 703 LINE SMOOTH",
"319 703 OFFCURVE",
"368 654 OFFCURVE",
"368 565 CURVE SMOOTH",
"368 465 LINE SMOOTH",
"368 376 OFFCURVE",
"319 327 OFFCURVE",
"230 327 CURVE SMOOTH",
"172 327 LINE"
);
}
);
width = 500;
},
{
layerId = "3F0F5FFA-301F-4B90-BC1A-8916131A4004";
width = 600;
},
{
layerId = "63C36BCE-C2CB-4BF3-9C7E-344D74934179";
paths = (
{
closed = 1;
nodes = (
"297 0 LINE",
"304 34 LINE",
"142 34 LINE",
"197 290 LINE",
"242 290 LINE SMOOTH",
"408 290 OFFCURVE",
"531 418 OFFCURVE",
"531 561 CURVE SMOOTH",
"531 666 OFFCURVE",
"459 740 OFFCURVE",
"327 740 CURVE SMOOTH",
"138 740 LINE",
"131 706 LINE",
"215 706 LINE",
"72 34 LINE",
"-12 34 LINE",
"-19 0 LINE"
);
},
{
closed = 1;
nodes = (
"284 703 LINE",
"342 703 LINE SMOOTH",
"430 703 OFFCURVE",
"470 654 OFFCURVE",
"451 565 CURVE SMOOTH",
"430 465 LINE SMOOTH",
"411 376 OFFCURVE",
"352 327 OFFCURVE",
"263 327 CURVE SMOOTH",
"205 327 LINE"
);
}
);
width = 500;
}
);
unicode = 0050;
},
{
glyphname = Thorn;
lastChange = "2020-08-16 03:38:52 +0000";
layers = (
{
layerId = "94EC0173-ED25-4379-B549-8ECC2838F2C2";
paths = (
{
closed = 1;
nodes = (
"304 0 LINE",
"304 34 LINE",
"172 34 LINE",
"172 145 LINE",
"207 145 LINE SMOOTH",
"371 145 OFFCURVE",
"453 258 OFFCURVE",
"453 370 CURVE SMOOTH",
"453 483 OFFCURVE",
"371 595 OFFCURVE",
"207 595 CURVE SMOOTH",
"172 595 LINE",
"172 706 LINE",
"304 706 LINE",
"304 740 LINE",
"18 740 LINE",
"18 706 LINE",
"102 706 LINE",
"102 34 LINE",
"18 34 LINE",
"18 0 LINE"
);
},
{
closed = 1;
nodes = (
"172 558 LINE",
"230 558 LINE SMOOTH",
"319 558 OFFCURVE",
"368 509 OFFCURVE",
"368 420 CURVE SMOOTH",
"368 320 LINE SMOOTH",
"368 231 OFFCURVE",
"319 182 OFFCURVE",
"230 182 CURVE SMOOTH",
"172 182 LINE"
);
}
);
width = 500;
},
{
layerId = "63C36BCE-C2CB-4BF3-9C7E-344D74934179";
paths = (
{
closed = 1;
nodes = (
"264 0 LINE",
"271 34 LINE",
"139 34 LINE",
"163 145 LINE",
"207 145 LINE SMOOTH",
"374 145 OFFCURVE",
"497 274 OFFCURVE",
"497 416 CURVE SMOOTH",
"497 520 OFFCURVE",
"426 595 OFFCURVE",
"293 595 CURVE SMOOTH",
"258 595 LINE",
"282 706 LINE",
"414 706 LINE",
"421 740 LINE",
"135 740 LINE",
"128 706 LINE",
"212 706 LINE",
"69 34 LINE",
"-15 34 LINE",
"-22 0 LINE"
);
},
{
closed = 1;
nodes = (
"251 558 LINE",
"309 558 LINE SMOOTH",
"396 558 OFFCURVE",
"436 509 OFFCURVE",
"417 420 CURVE SMOOTH",
"396 320 LINE SMOOTH",
"377 231 OFFCURVE",
"318 182 OFFCURVE",
"229 182 CURVE SMOOTH",
"171 182 LINE"
);
}
);
width = 500;
},
{
layerId = "3F0F5FFA-301F-4B90-BC1A-8916131A4004";
width = 600;
}
);
unicode = 00DE;
},
{
glyphname = Q;
lastChange = "2020-08-14 04:11:14 +0000";
layers = (
{
components = (
{
locked = 1;
name = O;
}
);
guideLines = (
{
angle = 90;
position = "{250, -21}";
}
);
layerId = "94EC0173-ED25-4379-B549-8ECC2838F2C2";
paths = (
{
closed = 1;
nodes = (
"420 -180 OFFCURVE",
"439 -123 OFFCURVE",
"439 -78 CURVE SMOOTH",
"439 0 LINE",
"409 0 LINE",
"409 -78 LINE SMOOTH",
"409 -93 OFFCURVE",
"409 -136 OFFCURVE",
"370 -136 CURVE SMOOTH",
"329 -136 OFFCURVE",
"329 -90 OFFCURVE",
"329 -72 CURVE SMOOTH",
"329 84 LINE SMOOTH",
"329 150 OFFCURVE",
"303 187 OFFCURVE",
"255 187 CURVE SMOOTH",
"209 187 OFFCURVE",
"182 153 OFFCURVE",
"182 99 CURVE SMOOTH",
"182 40 OFFCURVE",
"215 18 OFFCURVE",
"250 18 CURVE",
"250 27 LINE",
"230 27 OFFCURVE",
"204 40 OFFCURVE",
"204 94 CURVE SMOOTH",
"204 127 OFFCURVE",
"214 147 OFFCURVE",
"238 147 CURVE SMOOTH",
"272 147 OFFCURVE",
"272 104 OFFCURVE",
"272 95 CURVE SMOOTH",
"272 -72 LINE SMOOTH",
"272 -142 OFFCURVE",
"302 -180 OFFCURVE",
"355 -180 CURVE SMOOTH"
);
}
);
width = 500;
},
{
layerId = "3F0F5FFA-301F-4B90-BC1A-8916131A4004";
width = 600;
},
{
components = (
{
locked = 1;
name = O;
}
);
guideLines = (
{
angle = 90;
position = "{250, -21}";
}
);
layerId = "63C36BCE-C2CB-4BF3-9C7E-344D74934179";
paths = (
{
closed = 1;
nodes = (
"320 -180 OFFCURVE",
"347 -123 OFFCURVE",
"357 -78 CURVE SMOOTH",
"374 0 LINE",
"345 0 LINE",
"330 -66 LINE SMOOTH",
"326 -83 OFFCURVE",
"315 -136 OFFCURVE",
"274 -136 CURVE SMOOTH",
"236 -136 OFFCURVE",
"245 -90 OFFCURVE",
"249 -72 CURVE SMOOTH",
"282 84 LINE SMOOTH",
"296 150 OFFCURVE",
"272 187 OFFCURVE",
"225 187 CURVE SMOOTH",
"173 187 OFFCURVE",
"135 136 OFFCURVE",
"135 77 CURVE SMOOTH",
"135 32 OFFCURVE",
"160 18 OFFCURVE",
"189 18 CURVE",
"191 27 LINE",
"175 27 OFFCURVE",
"156 35 OFFCURVE",
"156 72 CURVE SMOOTH",
"156 109 OFFCURVE",
"173 147 OFFCURVE",
"203 147 CURVE SMOOTH",
"235 147 OFFCURVE",
"229 104 OFFCURVE",
"227 95 CURVE SMOOTH",
"192 -72 LINE SMOOTH",
"177 -142 OFFCURVE",
"200 -180 OFFCURVE",
"253 -180 CURVE SMOOTH"
);
}
);
width = 500;
}
);
unicode = 0051;
},
{
glyphname = R;
lastChange = "2020-08-16 02:24:57 +0000";
layers = (
{
anchors = (
{
name = bottom;
position = "{250, 0}";
},
{
name = top;
position = "{250, 740}";
}
);
layerId = "94EC0173-ED25-4379-B549-8ECC2838F2C2";
paths = (
{
closed = 1;
nodes = (
"255 0 LINE",
"255 34 LINE",
"172 34 LINE",
"172 375 LINE",
"220 375 LINE SMOOTH",
"301 375 OFFCURVE",
"322 350 OFFCURVE",
"322 277 CURVE SMOOTH",
"322 93 LINE SMOOTH",
"322 32 OFFCURVE",
"353 -10 OFFCURVE",
"409 -10 CURVE SMOOTH",
"477 -10 OFFCURVE",
"495 47 OFFCURVE",
"495 92 CURVE SMOOTH",
"495 268 LINE",
"465 268 LINE",
"465 95 LINE SMOOTH",
"465 67 OFFCURVE",
"458 37 OFFCURVE",
"428 37 CURVE SMOOTH",
"391 37 OFFCURVE",
"391 80 OFFCURVE",
"391 101 CURVE SMOOTH",
"391 277 LINE SMOOTH",
"391 346 OFFCURVE",
"359 372 OFFCURVE",
"301 384 CURVE SMOOTH",
"296 385 LINE",
"296 391 LINE",
"301 392 LINE SMOOTH",
"391 410 OFFCURVE",
"451 469 OFFCURVE",
"451 559 CURVE SMOOTH",
"451 641 OFFCURVE",
"397 740 OFFCURVE",
"248 740 CURVE SMOOTH",
"18 740 LINE",
"18 706 LINE",
"102 706 LINE",
"102 34 LINE",
"18 34 LINE",
"18 0 LINE"
);
},
{
closed = 1;
nodes = (
"172 708 LINE",
"231 708 LINE SMOOTH",
"320 708 OFFCURVE",
"369 669 OFFCURVE",
"369 580 CURVE SMOOTH",
"369 525 LINE SMOOTH",
"369 436 OFFCURVE",
"320 407 OFFCURVE",
"231 407 CURVE SMOOTH",
"172 407 LINE"
);
}
);
width = 500;
},
{
layerId = "3F0F5FFA-301F-4B90-BC1A-8916131A4004";
width = 600;
},
{
anchors = (
{
name = bottom;
position = "{233, 0}";
},
{
name = top;
position = "{390, 740}";
}
);
layerId = "63C36BCE-C2CB-4BF3-9C7E-344D74934179";
paths = (
{
closed = 1;
nodes = (
"245 0 LINE",
"252 34 LINE",
"169 34 LINE",
"242 375 LINE",
"290 375 LINE SMOOTH",
"381 375 OFFCURVE",
"384 339 OFFCURVE",
"371 277 CURVE SMOOTH",
"332 93 LINE SMOOTH",
"319 32 OFFCURVE",
"340 -10 OFFCURVE",
"401 -10 CURVE SMOOTH",
"485 -10 OFFCURVE",
"500 68 OFFCURVE",
"505 92 CURVE SMOOTH",
"542 268 LINE",
"512 268 LINE",
"475 95 LINE SMOOTH",
"469 67 OFFCURVE",
"455 37 OFFCURVE",
"426 37 CURVE SMOOTH",
"388 37 OFFCURVE",
"398 83 OFFCURVE",
"402 101 CURVE SMOOTH",
"440 277 LINE SMOOTH",
"455 346 OFFCURVE",
"427 373 OFFCURVE",
"373 384 CURVE SMOOTH",
"368 385 LINE",
"369 391 LINE",
"374 392 LINE SMOOTH",
"485 414 OFFCURVE",
"564 496 OFFCURVE",
"564 596 CURVE SMOOTH",
"564 669 OFFCURVE",
"521 740 OFFCURVE",
"395 740 CURVE SMOOTH",
"165 740 LINE",
"158 706 LINE",
"242 706 LINE",
"99 34 LINE",
"15 34 LINE",
"8 0 LINE"
);
},
{
closed = 1;
nodes = (
"312 708 LINE",
"371 708 LINE SMOOTH",
"462 708 OFFCURVE",
"501 669 OFFCURVE",
"482 580 CURVE SMOOTH",
"470 525 LINE SMOOTH",
"451 436 OFFCURVE",
"393 407 OFFCURVE",
"308 407 CURVE SMOOTH",
"249 407 LINE"
);
}
);
width = 579;
}
);
unicode = 0052;
},
{
glyphname = S;
lastChange = "2020-08-16 03:25:35 +0000";
layers = (
{
anchors = (
{
name = bottom;
position = "{250, 0}";
},
{
name = top;
position = "{250, 740}";
}
);
layerId = "94EC0173-ED25-4379-B549-8ECC2838F2C2";
paths = (
{
closed = 1;
nodes = (
"363 -10 OFFCURVE",
"441 56 OFFCURVE",
"441 160 CURVE SMOOTH",
"441 359 OFFCURVE",
"154 461 OFFCURVE",
"154 622 CURVE SMOOTH",
"154 677 OFFCURVE",
"187 717 OFFCURVE",
"242 717 CURVE SMOOTH",
"323 717 OFFCURVE",
"371 632 OFFCURVE",
"371 524 CURVE SMOOTH",
"371 492 LINE",
"423 492 LINE",
"423 740 LINE",
"391 740 LINE",
"391 639 LINE",
"383 639 LINE",
"371 677 OFFCURVE",
"333 750 OFFCURVE",
"240 750 CURVE SMOOTH",
"156 750 OFFCURVE",
"87 692 OFFCURVE",
"87 599 CURVE SMOOTH",
"87 410 OFFCURVE",
"374 319 OFFCURVE",
"374 136 CURVE SMOOTH",
"374 65 OFFCURVE",
"330 24 OFFCURVE",
"266 24 CURVE SMOOTH",
"134 24 OFFCURVE",
"124 198 OFFCURVE",
"124 256 CURVE SMOOTH",
"124 295 LINE",
"72 295 LINE",
"72 0 LINE",
"104 0 LINE",
"104 133 LINE",
"112 133 LINE",
"118 93 OFFCURVE",
"153 -10 OFFCURVE",
"269 -10 CURVE SMOOTH"
);
}
);
width = 500;
},
{
layerId = "3F0F5FFA-301F-4B90-BC1A-8916131A4004";
width = 600;
},
{
anchors = (
{
name = bottom;
position = "{193, 0}";
},
{
name = top;
position = "{350, 740}";
}
);
guideLines = (
{
angle = 258.6901;
position = "{432, 520}";
}
);
layerId = "63C36BCE-C2CB-4BF3-9C7E-344D74934179";
paths = (
{
closed = 1;
nodes = (
"469 649 LINE",
"461 649 LINE",
"461 649 OFFCURVE",
"436 750 OFFCURVE",
"322 750 CURVE SMOOTH",
"227 750 OFFCURVE",
"161 677 OFFCURVE",
"161 580 CURVE SMOOTH",
"161 419 OFFCURVE",
"347 311 OFFCURVE",
"347 154 CURVE SMOOTH",
"347 75 OFFCURVE",
"299 24 OFFCURVE",
"227 24 CURVE SMOOTH",
"80 24 OFFCURVE",
"97 198 OFFCURVE",
"109 256 CURVE SMOOTH",
"117 295 LINE",
"74 295 LINE",
"11 0 LINE",
"44 0 LINE",
"72 133 LINE",
"80 133 LINE",
"80 133 OFFCURVE",
"75 -10 OFFCURVE",
"227 -10 CURVE SMOOTH",
"333 -10 OFFCURVE",
"409 75 OFFCURVE",
"409 183 CURVE SMOOTH",
"409 352 OFFCURVE",
"223 470 OFFCURVE",
"223 610 CURVE SMOOTH",
"223 675 OFFCURVE",
"263 717 OFFCURVE",
"320 717 CURVE SMOOTH",
"408 717 OFFCURVE",
"454 631 OFFCURVE",
"434 532 CURVE",
"477 532 LINE",
"521 740 LINE",
"488 740 LINE"
);
}
);
width = 500;
}
);
unicode = 0053;
},
{
glyphname = Germandbls;
lastChange = "2020-08-15 08:14:03 +0000";
layers = (
{
layerId = "94EC0173-ED25-4379-B549-8ECC2838F2C2";
paths = (
{
closed = 1;
nodes = (
"200 0 LINE",
"200 585 LINE SMOOTH",
"200 700 OFFCURVE",
"252 747 OFFCURVE",
"323 747 CURVE SMOOTH",
"390 747 OFFCURVE",
"424 706 OFFCURVE",
"424 652 CURVE",
"424 652 OFFCURVE",
"276 650 OFFCURVE",
"276 511 CURVE SMOOTH",
"276 334 OFFCURVE",
"516 259 OFFCURVE",
"516 110 CURVE SMOOTH",
"516 51 OFFCURVE",
"479 24 OFFCURVE",
"431 24 CURVE SMOOTH",
"318 24 OFFCURVE",
"306 179 OFFCURVE",
"306 206 CURVE SMOOTH",
"306 215 LINE",
"258 215 LINE",
"258 0 LINE",
"286 0 LINE",
"286 133 LINE",
"294 133 LINE",
"300 93 OFFCURVE",
"335 -10 OFFCURVE",
"438 -10 CURVE SMOOTH",
"517 -10 OFFCURVE",
"583 48 OFFCURVE",
"583 134 CURVE SMOOTH",
"583 297 OFFCURVE",
"343 386 OFFCURVE",
"343 534 CURVE SMOOTH",
"343 652 OFFCURVE",
"495 640 OFFCURVE",
"495 640 CURVE",
"495 692 OFFCURVE",
"466 773 OFFCURVE",
"331 773 CURVE SMOOTH",
"202 773 OFFCURVE",
"132 699 OFFCURVE",
"132 565 CURVE SMOOTH",
"132 540 LINE",
"38 530 LINE",
"38 508 LINE",
"132 508 LINE",
"132 38 LINE",
"15 28 LINE",
"15 0 LINE"
);
}
);
width = 600;
},
{
layerId = "63C36BCE-C2CB-4BF3-9C7E-344D74934179";
paths = (
{
closed = 1;
nodes = (
"100 0 LINE",
"224 585 LINE SMOOTH",
"248 700 OFFCURVE",
"313 747 OFFCURVE",
"380 747 CURVE SMOOTH",
"443 747 OFFCURVE",
"469 706 OFFCURVE",
"458 652 CURVE",
"458 652 OFFCURVE",
"282 632 OFFCURVE",
"282 473 CURVE SMOOTH",
"282 329 OFFCURVE",
"427 254 OFFCURVE",
"427 127 CURVE SMOOTH",
"427 62 OFFCURVE",
"389 24 OFFCURVE",
"336 24 CURVE SMOOTH",
"230 24 OFFCURVE",
"237 145 OFFCURVE",
"243 172 CURVE SMOOTH",
"245 181 LINE",
"197 181 LINE",
"158 0 LINE",
"186 0 LINE",
"207 99 LINE",
"215 99 LINE",
"215 99 OFFCURVE",
"215 -10 OFFCURVE",
"338 -10 CURVE SMOOTH",
"420 -10 OFFCURVE",
"493 63 OFFCURVE",
"493 158 CURVE SMOOTH",
"493 293 OFFCURVE",
"348 382 OFFCURVE",
"348 508 CURVE SMOOTH",
"348 647 OFFCURVE",
"526 640 OFFCURVE",
"526 640 CURVE",
"537 692 OFFCURVE",
"526 773 OFFCURVE",
"392 773 CURVE SMOOTH",
"261 773 OFFCURVE",
"180 699 OFFCURVE",
"149 552 CURVE SMOOTH",
"40 38 LINE",
"-39 28 LINE",
"-45 0 LINE"
);
}
);
width = 500;
},
{
layerId = "3F0F5FFA-301F-4B90-BC1A-8916131A4004";
width = 600;
}
);
unicode = 1E9E;
},
{
glyphname = T;
lastChange = "2020-08-16 02:29:08 +0000";
layers = (
{
anchors = (
{
name = bottom;
position = "{250, 0}";
},
{
name = center;
position = "{250, 370}";
},
{
name = top;
position = "{250, 740}";
}
);
layerId = "94EC0173-ED25-4379-B549-8ECC2838F2C2";
paths = (
{
closed = 1;
nodes = (
"57 526 LINE",
"71 633 LINE SMOOTH",
"77 681 OFFCURVE",
"106 705 OFFCURVE",
"154 705 CURVE SMOOTH",
"342 705 LINE SMOOTH",
"390 705 OFFCURVE",
"419 681 OFFCURVE",
"425 633 CURVE SMOOTH",
"439 526 LINE",
"467 526 LINE",
"467 750 LINE",
"449 750 LINE",
"419 740 LINE",
"77 740 LINE",
"47 750 LINE",
"29 750 LINE",
"29 526 LINE"
);
},
{
closed = 1;
nodes = (
"422 0 LINE",
"422 32 LINE",
"283 32 LINE",
"283 146 LINE",
"213 146 LINE",
"213 32 LINE",
"74 32 LINE",
"74 0 LINE"
);
},
{
closed = 1;
nodes = (
"213 0 LINE",
"283 0 LINE",
"283 710 LINE",
"213 710 LINE"
);
}
);
width = 500;
},
{
layerId = "3F0F5FFA-301F-4B90-BC1A-8916131A4004";
width = 600;
},
{
anchors = (
{
name = bottom;
position = "{193, 0}";
},
{
name = center;
position = "{271, 370}";
},
{
name = top;
position = "{350, 740}";
}
);
layerId = "63C36BCE-C2CB-4BF3-9C7E-344D74934179";
paths = (
{
closed = 1;
nodes = (
"117 526 LINE",
"154 633 LINE SMOOTH",
"176 698 OFFCURVE",
"202 705 OFFCURVE",
"252 705 CURVE SMOOTH",
"440 705 LINE SMOOTH",
"487 705 OFFCURVE",
"513 694 OFFCURVE",
"508 633 CURVE SMOOTH",
"499 526 LINE",
"527 526 LINE",
"574 750 LINE",
"556 750 LINE",
"524 740 LINE",
"182 740 LINE",
"154 750 LINE",
"136 750 LINE",
"89 526 LINE"
);
},
{
closed = 1;
nodes = (
"370 0 LINE",
"377 32 LINE",
"238 32 LINE",
"262 146 LINE",
"192 146 LINE",
"168 32 LINE",
"29 32 LINE",
"22 0 LINE"
);
},
{
closed = 1;
nodes = (
"161 0 LINE",
"231 0 LINE",
"382 710 LINE",
"312 710 LINE"
);
}
);
width = 500;
}
);
unicode = 0054;
},
{
glyphname = Tbar;
lastChange = "2020-08-15 15:51:12 +0000";
layers = (
{
components = (
{
name = T;
},
{
alignment = -1;
name = crossbar;
transform = "{1.22521, 0, 0, 0.9, -39, 115}";
}
);
layerId = "94EC0173-ED25-4379-B549-8ECC2838F2C2";
width = 500;
},
{
components = (
{
name = T;
}
);
layerId = "63C36BCE-C2CB-4BF3-9C7E-344D74934179";
paths = (
{
closed = 1;
nodes = (
"128 390 LINE",
"121 360 LINE",
"430 360 LINE",
"437 390 LINE"
);
}
);
width = 500;
},
{
layerId = "3F0F5FFA-301F-4B90-BC1A-8916131A4004";
width = 600;
}
);
unicode = 0166;
},
{
glyphname = U;
lastChange = "2020-08-16 02:26:04 +0000";
layers = (
{
anchors = (
{
name = bottom;
position = "{250, 0}";
},
{
name = ogonek;
position = "{293, 0}";
},
{
name = top;
position = "{250, 740}";
},
{
name = topright;
position = "{415, 740}";
}
);
layerId = "94EC0173-ED25-4379-B549-8ECC2838F2C2";
paths = (
{
closed = 1;
nodes = (
"358 -10 OFFCURVE",
"415 52 OFFCURVE",
"415 165 CURVE SMOOTH",
"415 740 LINE",
"381 740 LINE",
"381 164 LINE SMOOTH",
"381 78 OFFCURVE",
"342 31 OFFCURVE",
"270 31 CURVE SMOOTH",
"198 31 OFFCURVE",
"159 78 OFFCURVE",
"159 164 CURVE SMOOTH",
"159 740 LINE",
"89 740 LINE",
"89 165 LINE SMOOTH",
"89 52 OFFCURVE",
"146 -10 OFFCURVE",
"252 -10 CURVE SMOOTH"
);
},
{
closed = 1;
nodes = (
"159 706 LINE",
"233 706 LINE",
"233 740 LINE",
"25 740 LINE",
"25 706 LINE",
"89 706 LINE"
);
},
{
closed = 1;
nodes = (
"415 706 LINE",
"474 706 LINE",
"474 740 LINE",
"322 740 LINE",
"322 706 LINE",
"381 706 LINE"
);
}
);
width = 500;
},
{
layerId = "3F0F5FFA-301F-4B90-BC1A-8916131A4004";
width = 600;
},
{
anchors = (
{
name = bottom;
position = "{198, 0}";
},
{
name = ogonek;
position = "{236, 0}";
},
{
name = top;
position = "{378, 740}";
},
{
name = topright;
position = "{580, 740}";
}
);
guideLines = (
{
angle = 258.0494;
position = "{228, 31}";
}
);
layerId = "63C36BCE-C2CB-4BF3-9C7E-344D74934179";
paths = (
{
closed = 1;
nodes = (
"298 -10 OFFCURVE",
"369 52 OFFCURVE",
"393 165 CURVE SMOOTH",
"515 740 LINE",
"481 740 LINE",
"359 164 LINE SMOOTH",
"341 78 OFFCURVE",
"291 31 OFFCURVE",
"219 31 CURVE SMOOTH",
"147 31 OFFCURVE",
"119 78 OFFCURVE",
"137 164 CURVE SMOOTH",
"259 740 LINE",
"189 740 LINE",
"67 165 LINE SMOOTH",
"43 52 OFFCURVE",
"87 -10 OFFCURVE",
"193 -10 CURVE SMOOTH"
);
},
{
closed = 1;
nodes = (
"252 706 LINE",
"326 706 LINE",
"333 740 LINE",
"125 740 LINE",
"118 706 LINE",
"182 706 LINE"
);
},
{
closed = 1;
nodes = (
"508 706 LINE",
"567 706 LINE",
"574 740 LINE",
"422 740 LINE",
"415 706 LINE",
"474 706 LINE"
);
}
);
width = 500;
}
);
unicode = 0055;
},
{
glyphname = Uhorn;
lastChange = "2020-08-16 03:39:42 +0000";
layers = (
{
anchors = (
{
name = bottom;
position = "{250, 0}";
},
{
name = ogonek;
position = "{450, 10}";
},
{
name = top;
position = "{250, 740}";
},
{
name = topright;
position = "{415, 740}";
}
);
components = (
{
name = horncomb;
transform = "{1, 0, 0, 1, 40, 232}";
}
);
layerId = "94EC0173-ED25-4379-B549-8ECC2838F2C2";
paths = (
{
closed = 1;
nodes = (
"358 -10 OFFCURVE",
"415 52 OFFCURVE",
"415 165 CURVE SMOOTH",
"415 740 LINE",
"381 740 LINE",
"381 164 LINE SMOOTH",
"381 78 OFFCURVE",
"342 31 OFFCURVE",
"270 31 CURVE SMOOTH",
"198 31 OFFCURVE",
"159 78 OFFCURVE",
"159 164 CURVE SMOOTH",
"159 740 LINE",
"89 740 LINE",
"89 165 LINE SMOOTH",
"89 52 OFFCURVE",
"146 -10 OFFCURVE",
"252 -10 CURVE SMOOTH"
);
},
{
closed = 1;
nodes = (
"159 706 LINE",
"233 706 LINE",
"233 740 LINE",
"25 740 LINE",
"25 706 LINE",
"89 706 LINE"
);
},
{
closed = 1;
nodes = (
"415 706 LINE",
"415 740 LINE",
"322 740 LINE",
"322 706 LINE",
"381 706 LINE"
);
}
);
width = 500;
},
{
anchors = (
{
name = bottom;
position = "{198, 0}";
},
{
name = ogonek;
position = "{395, 10}";
},
{
name = top;
position = "{378, 740}";
},
{
name = topright;
position = "{525, 710}";
}
);
components = (
{
name = horncomb;
transform = "{1, 0, 0, 1, 25, 232}";
}
);
guideLines = (
{
angle = 77.9993;
position = "{460, 436}";
}
);
layerId = "63C36BCE-C2CB-4BF3-9C7E-344D74934179";
paths = (
{
closed = 1;
nodes = (
"308 -10 OFFCURVE",
"379 52 OFFCURVE",
"403 165 CURVE SMOOTH",
"525 740 LINE",
"491 740 LINE",
"369 164 LINE SMOOTH",
"351 78 OFFCURVE",
"301 31 OFFCURVE",
"229 31 CURVE SMOOTH",
"157 31 OFFCURVE",
"129 78 OFFCURVE",
"147 164 CURVE SMOOTH",
"269 740 LINE",
"199 740 LINE",
"77 165 LINE SMOOTH",
"53 52 OFFCURVE",
"97 -10 OFFCURVE",
"203 -10 CURVE SMOOTH"
);
},
{
closed = 1;
nodes = (
"336 706 LINE",
"343 740 LINE",
"135 740 LINE",
"128 706 LINE"
);
},
{
closed = 1;
nodes = (
"517 706 LINE",
"525 740 LINE",
"432 740 LINE",
"425 706 LINE"
);
}
);
width = 500;
},
{
components = (
{
name = U;
},
{
name = horncomb;
}
);
layerId = "3F0F5FFA-301F-4B90-BC1A-8916131A4004";
width = 600;
}
);
unicode = 01AF;
},
{
glyphname = V;
lastChange = "2020-08-16 02:26:18 +0000";
layers = (
{
guideLines = (
{
angle = -76.1826;
position = "{112, 740}";
},
{
angle = 76.156;
position = "{404, 702}";
}
);
layerId = "94EC0173-ED25-4379-B549-8ECC2838F2C2";
paths = (
{
closed = 1;
nodes = (
"53 706 LINE",
"226 0 LINE",
"266 0 LINE",
"439 706 LINE",
"492 706 LINE",
"492 740 LINE",
"334 740 LINE",
"334 706 LINE",
"404 706 LINE",
"263 128 LINE",
"124 706 LINE",
"225 706 LINE",
"225 740 LINE",
"-11 740 LINE",
"-11 706 LINE"
);
}
);
width = 500;
},
{
layerId = "3F0F5FFA-301F-4B90-BC1A-8916131A4004";
width = 600;
},
{
guideLines = (
{
angle = -76.1826;
position = "{112, 740}";
},
{
angle = 76.156;
position = "{404, 702}";
}
);
layerId = "63C36BCE-C2CB-4BF3-9C7E-344D74934179";
paths = (
{
closed = 1;
nodes = (
"150 706 LINE",
"173 0 LINE",
"213 0 LINE",
"536 706 LINE",
"589 706 LINE",
"596 740 LINE",
"438 740 LINE",
"431 706 LINE",
"501 706 LINE",
"237 128 LINE",
"221 706 LINE",
"322 706 LINE",
"329 740 LINE",
"93 740 LINE",
"86 706 LINE"
);
}
);
width = 500;
}
);
unicode = 0056;
},
{
glyphname = W;
lastChange = "2020-08-16 02:26:46 +0000";
layers = (
{
anchors = (
{
name = bottom;
position = "{250, 0}";
},
{
name = top;
position = "{250, 740}";
}
);
layerId = "94EC0173-ED25-4379-B549-8ECC2838F2C2";
paths = (
{
closed = 1;
nodes = (
"136 0 LINE",
"169 0 LINE",
"185 114 LINE",
"99 740 LINE",
"34 740 LINE"
);
},
{
closed = 1;
nodes = (
"-21 706 LINE",
"39 706 LINE",
"102 706 LINE",
"153 706 LINE",
"153 740 LINE",
"-21 740 LINE"
);
},
{
closed = 1;
nodes = (
"263 740 LINE",
"141 0 LINE",
"174 0 LINE",
"286 677 LINE"
);
},
{
closed = 1;
nodes = (
"320 0 LINE",
"353 0 LINE",
"369 114 LINE",
"283 740 LINE",
"218 740 LINE"
);
},
{
closed = 1;
nodes = (
"447 740 LINE",
"325 0 LINE",
"358 0 LINE",
"480 740 LINE"
);
},
{
closed = 1;
nodes = (
"398 740 LINE",
"398 706 LINE",
"441 706 LINE",
"476 706 LINE",
"524 706 LINE",
"524 740 LINE"
);
}
);
width = 500;
},
{
layerId = "3F0F5FFA-301F-4B90-BC1A-8916131A4004";
width = 600;
},
{
anchors = (
{
name = bottom;
position = "{183, 0}";
},
{
name = top;
position = "{360, 740}";
}
);
layerId = "63C36BCE-C2CB-4BF3-9C7E-344D74934179";
paths = (
{
closed = 1;
nodes = (
"86 0 LINE",
"119 0 LINE",
"159 114 LINE",
"206 740 LINE",
"141 740 LINE"
);
},
{
closed = 1;
nodes = (
"79 706 LINE",
"139 706 LINE",
"202 706 LINE",
"253 706 LINE",
"260 740 LINE",
"86 740 LINE"
);
},
{
closed = 1;
nodes = (
"370 740 LINE",
"91 0 LINE",
"124 0 LINE",
"380 677 LINE"
);
},
{
closed = 1;
nodes = (
"270 0 LINE",
"303 0 LINE",
"343 114 LINE",
"390 740 LINE",
"325 740 LINE"
);
},
{
closed = 1;
nodes = (
"554 740 LINE",
"275 0 LINE",
"308 0 LINE",
"587 740 LINE"
);
},
{
closed = 1;
nodes = (
"505 740 LINE",
"498 706 LINE",
"541 706 LINE",
"576 706 LINE",
"624 706 LINE",
"631 740 LINE"
);
}
);
width = 500;
}
);
unicode = 0057;
},
{
glyphname = X;
lastChange = "2020-08-17 02:09:54 +0000";
layers = (
{
layerId = "94EC0173-ED25-4379-B549-8ECC2838F2C2";
paths = (
{
closed = 1;
nodes = (
"87 34 LINE",
"16 34 LINE",
"16 0 LINE",
"179 0 LINE",
"179 34 LINE",
"119 34 LINE",
"257 393 LINE",
"225 393 LINE"
);
},
{
closed = 1;
nodes = (
"81 706 LINE",
"340 34 LINE",
"263 34 LINE",
"263 0 LINE",
"483 0 LINE",
"483 34 LINE",
"412 34 LINE",
"153 706 LINE",
"223 706 LINE",
"223 740 LINE",
"10 740 LINE",
"10 706 LINE"
);
},
{
closed = 1;
nodes = (
"387 706 LINE",
"458 706 LINE",
"458 740 LINE",
"300 740 LINE",
"300 706 LINE",
"355 706 LINE",
"235 393 LINE",
"267 393 LINE"
);
}
);
width = 500;
},
{
layerId = "3F0F5FFA-301F-4B90-BC1A-8916131A4004";
width = 600;
},
{
layerId = "63C36BCE-C2CB-4BF3-9C7E-344D74934179";
paths = (
{
closed = 1;
nodes = (
"44 34 LINE",
"-27 34 LINE",
"-34 0 LINE",
"129 0 LINE",
"136 34 LINE",
"76 34 LINE",
"291 393 LINE",
"259 393 LINE"
);
},
{
closed = 1;
nodes = (
"181 706 LINE",
"297 34 LINE",
"220 34 LINE",
"213 0 LINE",
"433 0 LINE",
"440 34 LINE",
"369 34 LINE",
"253 706 LINE",
"323 706 LINE",
"330 740 LINE",
"117 740 LINE",
"110 706 LINE"
);
},
{
closed = 1;
nodes = (
"487 706 LINE",
"558 706 LINE",
"565 740 LINE",
"407 740 LINE",
"400 706 LINE",
"455 706 LINE",
"269 393 LINE",
"301 393 LINE"
);
}
);
width = 500;
}
);
unicode = 0058;
},
{
glyphname = Y;
lastChange = "2020-08-17 02:27:28 +0000";
layers = (
{
anchors = (
{
name = bottom;
position = "{250, 0}";
},
{
name = top;
position = "{250, 740}";
},
{
name = topleft;
position = "{20, 740}";
}
);
components = (
{
alignment = -1;
name = "stem-upper";
transform = "{1, 0, 0, 0.4802, -45, 0}";
}
);
layerId = "94EC0173-ED25-4379-B549-8ECC2838F2C2";
paths = (
{
closed = 1;
nodes = (
"226 280 LINE",
"259 280 LINE",
"278 321 LINE",
"107 740 LINE",
"39 740 LINE"
);
},
{
closed = 1;
nodes = (
"-26 706 LINE",
"51 706 LINE",
"119 706 LINE",
"220 706 LINE",
"220 740 LINE",
"-26 740 LINE"
);
},
{
closed = 1;
nodes = (
"408 740 LINE",
"235 280 LINE",
"270 280 LINE",
"443 740 LINE"
);
},
{
closed = 1;
nodes = (
"329 740 LINE",
"329 706 LINE",
"399 706 LINE",
"434 706 LINE",
"497 706 LINE",
"497 740 LINE"
);
},
{
closed = 1;
nodes = (
"427 0 LINE",
"427 34 LINE",
"283 34 LINE",
"283 146 LINE",
"213 146 LINE",
"213 34 LINE",
"69 34 LINE",
"69 0 LINE"
);
}
);
width = 500;
},
{
layerId = "3F0F5FFA-301F-4B90-BC1A-8916131A4004";
width = 600;
},
{
anchors = (
{
name = bottom;
position = "{253, 0}";
},
{
name = top;
position = "{420, 740}";
},
{
name = topleft;
position = "{120, 740}";
}
);
guideLines = (
{
angle = 258.0494;
position = "{338, 354}";
}
);
layerId = "63C36BCE-C2CB-4BF3-9C7E-344D74934179";
paths = (
{
closed = 1;
nodes = (
"276 280 LINE",
"309 280 LINE",
"336 321 LINE",
"254 740 LINE",
"186 740 LINE"
);
},
{
closed = 1;
nodes = (
"114 706 LINE",
"191 706 LINE",
"259 706 LINE",
"360 706 LINE",
"367 740 LINE",
"121 740 LINE"
);
},
{
closed = 1;
nodes = (
"555 740 LINE",
"281 280 LINE",
"316 280 LINE",
"590 740 LINE"
);
},
{
closed = 1;
nodes = (
"476 740 LINE",
"469 706 LINE",
"539 706 LINE",
"574 706 LINE",
"637 706 LINE",
"644 740 LINE"
);
},
{
closed = 1;
nodes = (
"417 0 LINE",
"424 34 LINE",
"280 34 LINE",
"304 146 LINE",
"234 146 LINE",
"210 34 LINE",
"66 34 LINE",
"59 0 LINE"
);
},
{
closed = 1;
nodes = (
"203 0 LINE",
"273 0 LINE",
"345 341 LINE",
"275 341 LINE"
);
}
);
width = 500;
}
);
unicode = 0059;
},
{
glyphname = Z;
lastChange = "2020-08-16 03:34:43 +0000";
layers = (
{
anchors = (
{
name = bottom;
position = "{250, 0}";
},
{
name = center;
position = "{250, 370}";
},
{
name = top;
position = "{280, 740}";
}
);
layerId = "94EC0173-ED25-4379-B549-8ECC2838F2C2";
paths = (
{
closed = 1;
nodes = (
"398 740 LINE",
"85 740 LINE",
"85 516 LINE",
"113 516 LINE",
"127 633 LINE SMOOTH",
"133 681 OFFCURVE",
"162 705 OFFCURVE",
"210 705 CURVE SMOOTH",
"398 705 LINE"
);
},
{
closed = 1;
nodes = (
"61 20 LINE",
"61 0 LINE",
"124 0 LINE",
"460 720 LINE",
"460 740 LINE",
"397 740 LINE"
);
},
{
closed = 1;
nodes = (
"79 0 LINE",
"452 0 LINE",
"452 224 LINE",
"424 224 LINE",
"410 107 LINE SMOOTH",
"404 59 OFFCURVE",
"375 35 OFFCURVE",
"327 35 CURVE SMOOTH",
"79 35 LINE"
);
}
);
width = 500;
},
{
layerId = "3F0F5FFA-301F-4B90-BC1A-8916131A4004";
width = 600;
},
{
anchors = (
{
name = bottom;
position = "{193, 0}";
},
{
name = center;
position = "{271, 370}";
},
{
name = top;
position = "{380, 740}";
}
);
layerId = "63C36BCE-C2CB-4BF3-9C7E-344D74934179";
paths = (
{
closed = 1;
nodes = (
"515 740 LINE",
"202 740 LINE",
"155 516 LINE",
"183 516 LINE",
"218 633 LINE SMOOTH",
"238 699 OFFCURVE",
"272 705 OFFCURVE",
"320 705 CURVE SMOOTH",
"508 705 LINE"
);
},
{
closed = 1;
nodes = (
"25 20 LINE",
"21 0 LINE",
"84 0 LINE",
"573 720 LINE",
"577 740 LINE",
"514 740 LINE"
);
},
{
closed = 1;
nodes = (
"39 0 LINE",
"412 0 LINE",
"460 224 LINE",
"432 224 LINE",
"397 107 LINE SMOOTH",
"377 41 OFFCURVE",
"342 35 OFFCURVE",
"294 35 CURVE SMOOTH",
"46 35 LINE"
);
}
);
width = 500;
}
);
unicode = 005A;
},
{
glyphname = a;
lastChange = "2020-09-01 17:05:44 +0000";
layers = (
{
anchors = (
{
name = bottom;
position = "{245, 0}";
},
{
name = ogonek;
position = "{363, 0}";
},
{
name = top;
position = "{235, 540}";
}
);
layerId = "94EC0173-ED25-4379-B549-8ECC2838F2C2";
paths = (
{
closed = 1;
nodes = (
"457 -10 OFFCURVE",
"474 82 OFFCURVE",
"474 82 CURVE",
"456 88 LINE",
"456 88 OFFCURVE",
"445 42 OFFCURVE",
"411 42 CURVE SMOOTH",
"392 42 OFFCURVE",
"382 57 OFFCURVE",
"382 84 CURVE SMOOTH",
"382 408 LINE SMOOTH",
"382 477 OFFCURVE",
"345 550 OFFCURVE",
"239 550 CURVE SMOOTH",
"109 550 OFFCURVE",
"48 447 OFFCURVE",
"48 387 CURVE SMOOTH",
"48 356 OFFCURVE",
"65 333 OFFCURVE",
"95 333 CURVE SMOOTH",
"125 333 OFFCURVE",
"141 357 OFFCURVE",
"141 380 CURVE SMOOTH",
"141 405 OFFCURVE",
"125 419 OFFCURVE",
"95 451 CURVE",
"95 451 OFFCURVE",
"127 513 OFFCURVE",
"205 513 CURVE SMOOTH",
"268 513 OFFCURVE",
"314 473 OFFCURVE",
"314 408 CURVE SMOOTH",
"314 77 LINE SMOOTH",
"314 16 OFFCURVE",
"345 -10 OFFCURVE",
"385 -10 CURVE SMOOTH"
);
},
{
closed = 1;
nodes = (
"278 -10 OFFCURVE",
"315 74 OFFCURVE",
"315 74 CURVE",
"315 106 LINE",
"315 106 OFFCURVE",
"286 34 OFFCURVE",
"215 34 CURVE SMOOTH",
"161 34 OFFCURVE",
"127 76 OFFCURVE",
"127 128 CURVE SMOOTH",
"127 195 OFFCURVE",
"173 217 OFFCURVE",
"219 240 CURVE SMOOTH",
"319 289 LINE",
"319 313 LINE",
"212 264 LINE SMOOTH",
"145 233 OFFCURVE",
"66 194 OFFCURVE",
"66 105 CURVE SMOOTH",
"66 41 OFFCURVE",
"111 -10 OFFCURVE",
"184 -10 CURVE SMOOTH"
);
}
);
width = 490;
},
{
layerId = "3F0F5FFA-301F-4B90-BC1A-8916131A4004";
width = 600;
},
{
anchors = (
{
name = bottom;
position = "{203, 0}";
},
{
name = ogonek;
position = "{308, 0}";
},
{
name = top;
position = "{303, 540}";
}
);
guideLines = (
{
angle = 257.6192;
position = "{411, 623}";
},
{
angle = 78.1176;
position = "{413, 315}";
},
{
position = "{305, 142}";
},
{
angle = 77.6249;
position = "{110, 263}";
}
);
layerId = "63C36BCE-C2CB-4BF3-9C7E-344D74934179";
paths = (
{
closed = 1;
nodes = (
"170 381 LINE SMOOTH",
"193 465 OFFCURVE",
"236 517 OFFCURVE",
"293 517 CURVE SMOOTH",
"344 517 OFFCURVE",
"367 477 OFFCURVE",
"367 477 CURVE",
"341 351 OFFCURVE",
"246 30 OFFCURVE",
"145 30 CURVE SMOOTH",
"103 30 OFFCURVE",
"86 81 OFFCURVE",
"104 144 CURVE SMOOTH"
);
},
{
closed = 1;
nodes = (
"380 530 OFFCURVE",
"358 550 OFFCURVE",
"313 550 CURVE SMOOTH",
"150 550 OFFCURVE",
"43 286 OFFCURVE",
"36 144 CURVE SMOOTH",
"31 38 OFFCURVE",
"72 -10 OFFCURVE",
"125 -10 CURVE SMOOTH",
"217 -10 OFFCURVE",
"285 132 OFFCURVE",
"325 253 CURVE SMOOTH",
"343 307 LINE",
"358 307 LINE",
"292 97 LINE SMOOTH",
"266 15 OFFCURVE",
"302 -10 OFFCURVE",
"337 -10 CURVE SMOOTH",
"387 -10 OFFCURVE",
"420 38 OFFCURVE",
"463 97 CURVE SMOOTH",
"487 130 LINE",
"470 142 LINE",
"443 106 LINE SMOOTH",
"413 66 OFFCURVE",
"399 42 OFFCURVE",
"372 42 CURVE SMOOTH",
"347 42 OFFCURVE",
"350 69 OFFCURVE",
"353 84 CURVE SMOOTH",
"452 550 LINE",
"428 550 LINE",
"380 530 LINE"
);
}
);
width = 500;
}
);
unicode = 0061;
},
{
glyphname = ae;
lastChange = "2020-08-15 13:29:03 +0000";
layers = (
{
layerId = "94EC0173-ED25-4379-B549-8ECC2838F2C2";
paths = (
{
closed = 1;
nodes = (
"16 36 OFFCURVE",
"58 -10 OFFCURVE",
"124 -10 CURVE SMOOTH",
"214 -10 OFFCURVE",
"234 76 OFFCURVE",
"234 76 CURVE",
"247 76 LINE",
"247 76 OFFCURVE",
"274 -10 OFFCURVE",
"365 -10 CURVE SMOOTH",
"445 -10 OFFCURVE",
"480 55 OFFCURVE",
"480 168 CURVE SMOOTH",
"480 193 LINE",
"448 193 LINE",
"448 168 LINE SMOOTH",
"448 46 OFFCURVE",
"404 25 OFFCURVE",
"369 25 CURVE SMOOTH",
"284 25 OFFCURVE",
"284 144 OFFCURVE",
"284 200 CURVE SMOOTH",
"284 324 LINE",
"482 324 LINE",
"482 324 OFFCURVE",
"484 341 OFFCURVE",
"484 367 CURVE SMOOTH",
"484 484 OFFCURVE",
"440 550 OFFCURVE",
"370 550 CURVE SMOOTH",
"330 550 OFFCURVE",
"298 528 OFFCURVE",
"274 494 CURVE",
"261 523 OFFCURVE",
"235 550 OFFCURVE",
"178 550 CURVE SMOOTH",
"77 550 OFFCURVE",
"18 468 OFFCURVE",
"18 408 CURVE SMOOTH",
"18 376 OFFCURVE",
"35 353 OFFCURVE",
"65 353 CURVE SMOOTH",
"95 353 OFFCURVE",
"111 377 OFFCURVE",
"111 400 CURVE SMOOTH",
"111 425 OFFCURVE",
"95 439 OFFCURVE",
"65 471 CURVE",
"65 471 OFFCURVE",
"92 513 OFFCURVE",
"145 513 CURVE SMOOTH",
"216 513 OFFCURVE",
"216 439 OFFCURVE",
"216 425 CURVE SMOOTH",
"216 287 LINE",
"216 276 LINE",
"141 247 LINE SMOOTH",
"90 227 OFFCURVE",
"16 191 OFFCURVE",
"16 103 CURVE SMOOTH"
);
},
{
closed = 1;
nodes = (
"77 189 OFFCURVE",
"127 216 OFFCURVE",
"151 226 CURVE SMOOTH",
"216 254 LINE",
"216 246 LINE",
"216 97 LINE",
"216 97 OFFCURVE",
"206 34 OFFCURVE",
"146 34 CURVE SMOOTH",
"109 34 OFFCURVE",
"77 59 OFFCURVE",
"77 117 CURVE SMOOTH"
);
},
{
closed = 1;
nodes = (
"286 473 OFFCURVE",
"319 518 OFFCURVE",
"363 518 CURVE SMOOTH",
"404 518 OFFCURVE",
"424 477 OFFCURVE",
"424 419 CURVE SMOOTH",
"424 350 OFFCURVE",
"396 350 OFFCURVE",
"365 350 CURVE SMOOTH",
"284 350 LINE"
);
}
);
width = 500;
},
{
guideLines = (
{
angle = 77.8481;
position = "{67, 244}";
}
);
layerId = "63C36BCE-C2CB-4BF3-9C7E-344D74934179";
paths = (
{
closed = 1;
nodes = (
"108 381 LINE SMOOTH",
"117 424 OFFCURVE",
"139 513 OFFCURVE",
"210 513 CURVE SMOOTH",
"249 513 OFFCURVE",
"271 486 OFFCURVE",
"271 486 CURVE",
"256 421 LINE SMOOTH",
"220 267 OFFCURVE",
"135 30 OFFCURVE",
"61 30 CURVE SMOOTH",
"39 30 OFFCURVE",
"37 49 OFFCURVE",
"43 78 CURVE SMOOTH"
);
},
{
closed = 1;
nodes = (
"431 158 LINE SMOOTH",
"411 91 OFFCURVE",
"386 25 OFFCURVE",
"330 25 CURVE SMOOTH",
"287 25 OFFCURVE",
"260 64 OFFCURVE",
"260 126 CURVE SMOOTH",
"260 147 OFFCURVE",
"263 182 OFFCURVE",
"271 220 CURVE SMOOTH",
"292 320 LINE SMOOTH",
"318 443 OFFCURVE",
"358 519 OFFCURVE",
"421 519 CURVE SMOOTH",
"454 519 OFFCURVE",
"466 498 OFFCURVE",
"466 470 CURVE SMOOTH",
"466 393 OFFCURVE",
"377 322 OFFCURVE",
"291 322 CURVE SMOOTH",
"282 322 LINE",
"278 300 LINE",
"291 300 LINE SMOOTH",
"388 300 OFFCURVE",
"532 371 OFFCURVE",
"532 469 CURVE SMOOTH",
"532 520 OFFCURVE",
"494 550 OFFCURVE",
"444 550 CURVE SMOOTH",
"404 550 OFFCURVE",
"363 531 OFFCURVE",
"330 501 CURVE",
"340 550 LINE",
"320 550 LINE",
"292 533 LINE",
"292 533 OFFCURVE",
"265 550 OFFCURVE",
"232 550 CURVE SMOOTH",
"41 550 OFFCURVE",
"-92 -10 OFFCURVE",
"48 -10 CURVE SMOOTH",
"105 -10 OFFCURVE",
"162 84 OFFCURVE",
"202 183 CURVE",
"215 183 LINE",
"198 73 OFFCURVE",
"236 -10 OFFCURVE",
"320 -10 CURVE SMOOTH",
"413 -10 OFFCURVE",
"443 94 OFFCURVE",
"459 158 CURVE SMOOTH",
"462 170 LINE",
"437 178 LINE"
);
}
);
width = 500;
},
{
layerId = "3F0F5FFA-301F-4B90-BC1A-8916131A4004";
width = 600;
}
);
unicode = 00E6;
},
{
glyphname = b;
lastChange = "2020-08-16 04:11:48 +0000";
layers = (
{
components = (
{
name = "serif-top2";
transform = "{1, 0, 0, 1, -235, 50}";
}
);
layerId = "94EC0173-ED25-4379-B549-8ECC2838F2C2";
paths = (
{
closed = 1;
nodes = (
"132 0 LINE",
"132 85 LINE",
"142 85 LINE",
"142 85 OFFCURVE",
"169 -10 OFFCURVE",
"267 -10 CURVE SMOOTH",
"382 -10 OFFCURVE",
"447 120 OFFCURVE",
"447 288 CURVE SMOOTH",
"447 441 OFFCURVE",
"393 550 OFFCURVE",
"294 550 CURVE SMOOTH",
"206 550 OFFCURVE",
"170 465 OFFCURVE",
"170 465 CURVE",
"167 465 LINE",
"167 652 LINE",
"99 652 LINE",
"99 0 LINE"
);
},
{
closed = 1;
nodes = (
"211 22 OFFCURVE",
"167 59 OFFCURVE",
"167 159 CURVE SMOOTH",
"167 401 LINE",
"167 401 OFFCURVE",
"179 509 OFFCURVE",
"272 509 CURVE SMOOTH",
"323 509 OFFCURVE",
"370 477 OFFCURVE",
"370 396 CURVE SMOOTH",
"370 159 LINE SMOOTH",
"370 68 OFFCURVE",
"330 22 OFFCURVE",
"267 22 CURVE SMOOTH"
);
}
);
width = 500;
},
{
layerId = "3F0F5FFA-301F-4B90-BC1A-8916131A4004";
width = 600;
},
{
guideLines = (
{
angle = 78.074;
position = "{200, 285}";
},
{
angle = 258.0542;
position = "{148, 360}";
},
{
angle = 257.9777;
position = "{401, 277}";
}
);
layerId = "63C36BCE-C2CB-4BF3-9C7E-344D74934179";
paths = (
{
closed = 1;
nodes = (
"217 688 LINE",
"81 48 LINE",
"81 48 OFFCURVE",
"120 -10 OFFCURVE",
"209 -10 CURVE SMOOTH",
"388 -10 OFFCURVE",
"484 234 OFFCURVE",
"484 395 CURVE SMOOTH",
"484 491 OFFCURVE",
"451 550 OFFCURVE",
"380 550 CURVE SMOOTH",
"273 550 OFFCURVE",
"222 413 OFFCURVE",
"194 332 CURVE",
"179 332 LINE",
"254 540 LINE",
"298 750 LINE",
"274 750 LINE",
"225 725 LINE",
"100 712 LINE",
"95 688 LINE"
);
},
{
closed = 1;
nodes = (
"163 112 CURVE SMOOTH",
"193 250 LINE SMOOTH",
"227 407 OFFCURVE",
"289 514 OFFCURVE",
"361 514 CURVE SMOOTH",
"404 514 OFFCURVE",
"433 475 OFFCURVE",
"417 400 CURVE SMOOTH",
"370 182 LINE SMOOTH",
"347 75 OFFCURVE",
"292 22 OFFCURVE",
"225 22 CURVE SMOOTH",
"166 22 OFFCURVE",
"152 62 OFFCURVE"
);
}
);
width = 500;
}
);
unicode = 0062;
},
{
glyphname = c;
lastChange = "2020-09-01 17:06:04 +0000";
layers = (
{
anchors = (
{
name = bottom;
position = "{283, 0}";
},
{
name = top;
position = "{250, 540}";
}
);
layerId = "94EC0173-ED25-4379-B549-8ECC2838F2C2";
paths = (
{
closed = 1;
nodes = (
"211 32 OFFCURVE",
"142 94 OFFCURVE",
"142 220 CURVE SMOOTH",
"142 320 LINE SMOOTH",
"142 443 OFFCURVE",
"196 518 OFFCURVE",
"290 518 CURVE SMOOTH",
"359 518 OFFCURVE",
"391 478 OFFCURVE",
"391 478 CURVE",
"367 437 OFFCURVE",
"343 419 OFFCURVE",
"343 392 CURVE SMOOTH",
"343 367 OFFCURVE",
"364 352 OFFCURVE",
"386 352 CURVE SMOOTH",
"412 352 OFFCURVE",
"441 372 OFFCURVE",
"441 419 CURVE SMOOTH",
"441 493 OFFCURVE",
"371 550 OFFCURVE",
"283 550 CURVE SMOOTH",
"155 550 OFFCURVE",
"68 428 OFFCURVE",
"68 262 CURVE SMOOTH",
"68 101 OFFCURVE",
"151 -10 OFFCURVE",
"269 -10 CURVE SMOOTH",
"403 -10 OFFCURVE",
"434 125 OFFCURVE",
"434 125 CURVE",
"413 132 LINE",
"413 132 OFFCURVE",
"386 32 OFFCURVE",
"287 32 CURVE SMOOTH"
);
}
);
width = 500;
},
{
layerId = "3F0F5FFA-301F-4B90-BC1A-8916131A4004";
width = 600;
},
{
anchors = (
{
name = bottom;
position = "{235, 0}";
},
{
name = top;
position = "{297, 540}";
}
);
layerId = "63C36BCE-C2CB-4BF3-9C7E-344D74934179";
paths = (
{
closed = 1;
nodes = (
"266 519 OFFCURVE",
"195 443 OFFCURVE",
"169 320 CURVE SMOOTH",
"148 220 LINE SMOOTH",
"122 95 OFFCURVE",
"160 25 OFFCURVE",
"235 25 CURVE SMOOTH",
"331 25 OFFCURVE",
"375 128 OFFCURVE",
"388 163 CURVE SMOOTH",
"403 204 LINE",
"428 196 LINE",
"416 163 LINE SMOOTH",
"374 48 OFFCURVE",
"302 -10 OFFCURVE",
"220 -10 CURVE SMOOTH",
"126 -10 OFFCURVE",
"73 67 OFFCURVE",
"73 185 CURVE SMOOTH",
"73 363 OFFCURVE",
"192 550 OFFCURVE",
"355 550 CURVE SMOOTH",
"424 550 OFFCURVE",
"485 516 OFFCURVE",
"485 468 CURVE SMOOTH",
"485 441 OFFCURVE",
"466 420 OFFCURVE",
"436 420 CURVE SMOOTH",
"404 420 OFFCURVE",
"383 444 OFFCURVE",
"377 488 CURVE SMOOTH",
"373 516 LINE",
"373 516 OFFCURVE",
"363 519 OFFCURVE",
"347 519 CURVE SMOOTH"
);
}
);
width = 500;
}
);
unicode = 0063;
},
{
glyphname = d;
lastChange = "2020-08-16 07:58:04 +0000";
layers = (
{
components = (
{
name = "serif-top2";
transform = "{1, 0, 0, 1, -11, 50}";
},
{
alignment = -1;
name = "serif-top-5";
transform = "{-1, 0, 0, -1, 725, 690}";
}
);
guideLines = (
{
angle = 270;
position = "{323, 225}";
}
);
layerId = "94EC0173-ED25-4379-B549-8ECC2838F2C2";
paths = (
{
closed = 1;
nodes = (
"284 -10 OFFCURVE",
"320 75 OFFCURVE",
"320 75 CURVE",
"323 75 LINE",
"323 0 LINE",
"391 63 LINE",
"391 696 LINE",
"323 696 LINE",
"323 504 LINE",
"305 527 OFFCURVE",
"275 550 OFFCURVE",
"228 550 CURVE SMOOTH",
"106 550 OFFCURVE",
"43 412 OFFCURVE",
"43 241 CURVE SMOOTH",
"43 98 OFFCURVE",
"92 -10 OFFCURVE",
"197 -10 CURVE SMOOTH"
);
},
{
closed = 1;
nodes = (
"167 31 OFFCURVE",
"120 63 OFFCURVE",
"120 144 CURVE SMOOTH",
"120 381 LINE SMOOTH",
"120 472 OFFCURVE",
"160 518 OFFCURVE",
"223 518 CURVE SMOOTH",
"279 518 OFFCURVE",
"323 481 OFFCURVE",
"323 381 CURVE SMOOTH",
"323 139 LINE",
"323 139 OFFCURVE",
"311 31 OFFCURVE",
"218 31 CURVE SMOOTH"
);
}
);
width = 495;
},
{
layerId = "3F0F5FFA-301F-4B90-BC1A-8916131A4004";
width = 600;
},
{
guideLines = (
{
angle = 77.8191;
position = "{100, 258}";
},
{
angle = 258.354;
position = "{336, 417}";
},
{
position = "{285, 142}";
}
);
layerId = "63C36BCE-C2CB-4BF3-9C7E-344D74934179";
paths = (
{
closed = 1;
nodes = (
"331 517 OFFCURVE",
"348 477 OFFCURVE",
"348 477 CURVE",
"322 351 OFFCURVE",
"227 30 OFFCURVE",
"126 30 CURVE SMOOTH",
"84 30 OFFCURVE",
"70 80 OFFCURVE",
"87 144 CURVE SMOOTH",
"151 381 LINE SMOOTH",
"174 465 OFFCURVE",
"216 517 OFFCURVE",
"277 517 CURVE SMOOTH"
);
},
{
closed = 1;
nodes = (
"130 550 OFFCURVE",
"24 286 OFFCURVE",
"18 144 CURVE SMOOTH",
"13 45 OFFCURVE",
"56 -10 OFFCURVE",
"110 -10 CURVE SMOOTH",
"198 -10 OFFCURVE",
"266 132 OFFCURVE",
"306 253 CURVE SMOOTH",
"324 307 LINE",
"339 307 LINE",
"273 97 LINE SMOOTH",
"247 15 OFFCURVE",
"283 -10 OFFCURVE",
"318 -10 CURVE SMOOTH",
"367 -10 OFFCURVE",
"401 39 OFFCURVE",
"444 97 CURVE SMOOTH",
"468 129 LINE",
"451 142 LINE",
"424 106 LINE SMOOTH",
"394 66 OFFCURVE",
"380 42 OFFCURVE",
"353 42 CURVE SMOOTH",
"328 42 OFFCURVE",
"331 69 OFFCURVE",
"334 84 CURVE SMOOTH",
"476 750 LINE",
"452 750 LINE",
"403 725 LINE",
"278 712 LINE",
"273 688 LINE",
"395 688 LINE",
"361 530 LINE",
"361 530 OFFCURVE",
"339 550 OFFCURVE",
"294 550 CURVE SMOOTH"
);
}
);
width = 500;
}
);
unicode = 0064;
},
{
glyphname = eth;
lastChange = "2020-08-15 15:19:14 +0000";
layers = (
{
layerId = "94EC0173-ED25-4379-B549-8ECC2838F2C2";
paths = (
{
closed = 1;
nodes = (
"257 693 OFFCURVE",
"391 562 OFFCURVE",
"391 367 CURVE SMOOTH",
"391 358 LINE",
"383 358 LINE",
"383 358 OFFCURVE",
"365 505 OFFCURVE",
"229 505 CURVE SMOOTH",
"109 505 OFFCURVE",
"41 390 OFFCURVE",
"41 245 CURVE SMOOTH",
"41 79 OFFCURVE",
"128 -10 OFFCURVE",
"235 -10 CURVE SMOOTH",
"340 -10 OFFCURVE",
"459 76 OFFCURVE",
"459 311 CURVE SMOOTH",
"459 693 OFFCURVE",
"131 750 OFFCURVE",
"131 750 CURVE",
"125 728 LINE"
);
},
{
closed = 1;
nodes = (
"158 25 OFFCURVE",
"109 76 OFFCURVE",
"109 170 CURVE SMOOTH",
"109 325 LINE SMOOTH",
"109 419 OFFCURVE",
"158 473 OFFCURVE",
"230 473 CURVE SMOOTH",
"307 473 OFFCURVE",
"361 419 OFFCURVE",
"361 325 CURVE SMOOTH",
"361 170 LINE SMOOTH",
"361 76 OFFCURVE",
"310 25 OFFCURVE",
"234 25 CURVE SMOOTH"
);
},
{
closed = 1;
nodes = (
"145 611 LINE",
"145 578 LINE",
"435 670 LINE",
"435 703 LINE"
);
}
);
width = 500;
},
{
layerId = "63C36BCE-C2CB-4BF3-9C7E-344D74934179";
paths = (
{
closed = 1;
nodes = (
"405 693 OFFCURVE",
"512 561 OFFCURVE",
"469 367 CURVE SMOOTH",
"467 358 LINE",
"459 358 LINE",
"459 358 OFFCURVE",
"473 505 OFFCURVE",
"339 505 CURVE SMOOTH",
"193 505 OFFCURVE",
"84 327 OFFCURVE",
"84 168 CURVE SMOOTH",
"84 48 OFFCURVE",
"146 -10 OFFCURVE",
"233 -10 CURVE SMOOTH",
"404 -10 OFFCURVE",
"539 209 OFFCURVE",
"539 421 CURVE SMOOTH",
"539 709 OFFCURVE",
"291 750 OFFCURVE",
"291 750 CURVE",
"280 728 LINE"
);
},
{
closed = 1;
nodes = (
"164 25 OFFCURVE",
"125 76 OFFCURVE",
"145 170 CURVE SMOOTH",
"178 325 LINE SMOOTH",
"198 419 OFFCURVE",
"259 473 OFFCURVE",
"331 473 CURVE SMOOTH",
"407 473 OFFCURVE",
"450 419 OFFCURVE",
"430 325 CURVE SMOOTH",
"397 170 LINE SMOOTH",
"377 76 OFFCURVE",
"316 25 OFFCURVE",
"240 25 CURVE SMOOTH"
);
},
{
closed = 1;
nodes = (
"275 611 LINE",
"268 578 LINE",
"578 670 LINE",
"585 703 LINE"
);
}
);
width = 600;
},
{
layerId = "3F0F5FFA-301F-4B90-BC1A-8916131A4004";
width = 600;
}
);
unicode = 00F0;
},
{
glyphname = dcroat;
lastChange = "2020-08-16 03:41:38 +0000";
layers = (
{
components = (
{
name = "serif-top-5";
transform = "{-1, 0, 0, -1, 725, 690}";
},
{
alignment = -1;
name = crossbar;
transform = "{1.06511, 0, 0, 0.9, 75, 352}";
}
);
layerId = "94EC0173-ED25-4379-B549-8ECC2838F2C2";
paths = (
{
closed = 1;
nodes = (
"284 -10 OFFCURVE",
"320 75 OFFCURVE",
"320 75 CURVE",
"323 75 LINE",
"323 0 LINE",
"391 63 LINE",
"391 589 LINE",
"323 589 LINE",
"323 504 LINE",
"305 527 OFFCURVE",
"275 550 OFFCURVE",
"228 550 CURVE SMOOTH",
"106 550 OFFCURVE",
"43 412 OFFCURVE",
"43 241 CURVE SMOOTH",
"43 98 OFFCURVE",
"92 -10 OFFCURVE",
"197 -10 CURVE SMOOTH"
);
},
{
closed = 1;
nodes = (
"167 31 OFFCURVE",
"120 63 OFFCURVE",
"120 144 CURVE SMOOTH",
"120 381 LINE SMOOTH",
"120 472 OFFCURVE",
"160 518 OFFCURVE",
"223 518 CURVE SMOOTH",
"279 518 OFFCURVE",
"323 481 OFFCURVE",
"323 381 CURVE SMOOTH",
"323 139 LINE",
"323 139 OFFCURVE",
"311 31 OFFCURVE",
"218 31 CURVE SMOOTH"
);
},
{
closed = 1;
nodes = (
"323 678 LINE",
"323 584 LINE",
"391 584 LINE",
"391 740 LINE",
"367 740 LINE",
"323 715 LINE",
"323 702 LINE",
"323 678 LINE"
);
},
{
closed = 1;
nodes = (
"323 678 LINE",
"323 584 LINE",
"391 584 LINE",
"391 740 LINE",
"367 740 LINE",
"323 715 LINE",
"261 702 LINE",
"261 678 LINE"
);
}
);
width = 500;
},
{
components = (
{
alignment = -1;
name = crossbar;
transform = "{1.15678, 0, 0, 0.9, 54, 353}";
}
);
guideLines = (
{
angle = 257.8557;
position = "{378, 609}";
}
);
layerId = "63C36BCE-C2CB-4BF3-9C7E-344D74934179";
paths = (
{
closed = 1;
nodes = (
"137 381 LINE SMOOTH",
"156 466 OFFCURVE",
"204 517 OFFCURVE",
"269 517 CURVE SMOOTH",
"327 517 OFFCURVE",
"348 477 OFFCURVE",
"348 477 CURVE",
"322 351 OFFCURVE",
"227 30 OFFCURVE",
"126 30 CURVE SMOOTH",
"84 30 OFFCURVE",
"71 80 OFFCURVE",
"85 144 CURVE SMOOTH"
);
},
{
closed = 1;
nodes = (
"361 530 LINE",
"361 530 OFFCURVE",
"339 550 OFFCURVE",
"294 550 CURVE SMOOTH",
"134 550 OFFCURVE",
"17 327 OFFCURVE",
"17 144 CURVE SMOOTH",
"17 39 OFFCURVE",
"56 -10 OFFCURVE",
"109 -10 CURVE SMOOTH",
"198 -10 OFFCURVE",
"266 132 OFFCURVE",
"306 253 CURVE SMOOTH",
"324 307 LINE",
"337 307 LINE",
"273 97 LINE SMOOTH",
"248 15 OFFCURVE",
"283 -10 OFFCURVE",
"318 -10 CURVE SMOOTH",
"368 -10 OFFCURVE",
"401 39 OFFCURVE",
"444 97 CURVE SMOOTH",
"468 129 LINE",
"451 142 LINE",
"424 106 LINE SMOOTH",
"394 66 OFFCURVE",
"380 42 OFFCURVE",
"353 42 CURVE SMOOTH",
"328 42 OFFCURVE",
"331 69 OFFCURVE",
"334 84 CURVE SMOOTH",
"476 750 LINE",
"452 750 LINE",
"403 725 LINE"
);
},
{
closed = 1;
nodes = (
"452 750 LINE",
"403 725 LINE",
"338 712 LINE",
"333 688 LINE",
"395 688 LINE",
"476 750 LINE"
);
}
);
width = 500;
},
{
layerId = "3F0F5FFA-301F-4B90-BC1A-8916131A4004";
width = 600;
}
);
unicode = 0111;
},
{
glyphname = e;
lastChange = "2020-09-01 17:05:51 +0000";
layers = (
{
anchors = (
{
name = bottom;
position = "{250, 0}";
},
{
name = ogonek;
position = "{308, 0}";
},
{
name = top;
position = "{269, 540}";
}
);
guideLines = (
{
angle = 90;
position = "{260, 233}";
}
);
layerId = "94EC0173-ED25-4379-B549-8ECC2838F2C2";
paths = (
{
closed = 1;
nodes = (
"411 -10 OFFCURVE",
"442 125 OFFCURVE",
"442 125 CURVE",
"421 132 LINE",
"421 132 OFFCURVE",
"394 32 OFFCURVE",
"291 32 CURVE SMOOTH",
"210 32 OFFCURVE",
"135 94 OFFCURVE",
"135 220 CURVE SMOOTH",
"135 320 LINE SMOOTH",
"135 432 OFFCURVE",
"183 518 OFFCURVE",
"270 518 CURVE SMOOTH",
"334 518 OFFCURVE",
"382 472 OFFCURVE",
"382 390 CURVE SMOOTH",
"382 330 OFFCURVE",
"356 330 OFFCURVE",
"335 330 CURVE SMOOTH",
"107 330 LINE",
"107 304 LINE",
"446 304 LINE",
"446 304 OFFCURVE",
"448 322 OFFCURVE",
"448 345 CURVE SMOOTH",
"448 474 OFFCURVE",
"377 550 OFFCURVE",
"272 550 CURVE SMOOTH",
"128 550 OFFCURVE",
"61 408 OFFCURVE",
"61 265 CURVE SMOOTH",
"61 100 OFFCURVE",
"151 -10 OFFCURVE",
"274 -10 CURVE SMOOTH"
);
}
);
width = 500;
},
{
layerId = "3F0F5FFA-301F-4B90-BC1A-8916131A4004";
paths = (
{
closed = 1;
nodes = (
"169 25 OFFCURVE",
"123 95 OFFCURVE",
"123 220 CURVE SMOOTH",
"123 320 LINE SMOOTH",
"123 444 OFFCURVE",
"167 518 OFFCURVE",
"247 518 CURVE SMOOTH",
"318 518 OFFCURVE",
"353 461 OFFCURVE",
"353 401 CURVE SMOOTH",
"353 340 OFFCURVE",
"317 340 OFFCURVE",
"295 340 CURVE SMOOTH",
"99 340 LINE",
"99 315 LINE",
"411 315 LINE",
"413 337 OFFCURVE",
"413 344 OFFCURVE",
"413 348 CURVE SMOOTH",
"413 474 OFFCURVE",
"351 550 OFFCURVE",
"250 550 CURVE SMOOTH",
"116 550 OFFCURVE",
"53 410 OFFCURVE",
"53 267 CURVE SMOOTH",
"53 119 OFFCURVE",
"120 -10 OFFCURVE",
"247 -10 CURVE SMOOTH",
"384 -10 OFFCURVE",
"409 139 OFFCURVE",
"409 233 CURVE",
"381 233 LINE",
"381 95 OFFCURVE",
"329 25 OFFCURVE",
"250 25 CURVE SMOOTH"
);
}
);
width = 600;
},
{
anchors = (
{
name = bottom;
position = "{193, 0}";
},
{
name = ogonek;
position = "{240, 0}";
},
{
name = top;
position = "{333, 540}";
}
);
guideLines = (
{
angle = 90;
position = "{260, 233}";
}
);
layerId = "63C36BCE-C2CB-4BF3-9C7E-344D74934179";
paths = (
{
closed = 1;
nodes = (
"325 -10 OFFCURVE",
"385 93 OFFCURVE",
"410 163 CURVE SMOOTH",
"422 196 LINE",
"397 204 LINE",
"382 163 LINE SMOOTH",
"369 128 OFFCURVE",
"322 25 OFFCURVE",
"229 25 CURVE SMOOTH",
"152 25 OFFCURVE",
"116 95 OFFCURVE",
"142 220 CURVE SMOOTH",
"163 320 LINE SMOOTH",
"189 443 OFFCURVE",
"244 519 OFFCURVE",
"323 519 CURVE SMOOTH",
"372 519 OFFCURVE",
"403 488 OFFCURVE",
"403 437 CURVE SMOOTH",
"403 320 OFFCURVE",
"250 281 OFFCURVE",
"116 301 CURVE",
"116 279 LINE",
"241 261 OFFCURVE",
"469 291 OFFCURVE",
"469 439 CURVE SMOOTH",
"469 508 OFFCURVE",
"418 550 OFFCURVE",
"344 550 CURVE SMOOTH",
"186 550 OFFCURVE",
"67 361 OFFCURVE",
"67 188 CURVE SMOOTH",
"67 66 OFFCURVE",
"125 -10 OFFCURVE",
"217 -10 CURVE SMOOTH"
);
}
);
width = 500;
}
);
unicode = 0065;
},
{
glyphname = f;
lastChange = "2020-08-16 03:26:04 +0000";
layers = (
{
components = (
{
alignment = -1;
name = "stem-lower";
transform = "{1, 0, 0, 0.76415, -77, 0}";
}
);
layerId = "94EC0173-ED25-4379-B549-8ECC2838F2C2";
paths = (
{
closed = 1;
nodes = (
"65 34 LINE",
"65 0 LINE",
"439 0 LINE",
"439 34 LINE",
"250 34 LINE",
"182 34 LINE"
);
},
{
closed = 1;
nodes = (
"422 697 LINE SMOOTH",
"430 683 OFFCURVE",
"448 651 OFFCURVE",
"485 651 CURVE SMOOTH",
"512 651 OFFCURVE",
"525 669 OFFCURVE",
"525 694 CURVE SMOOTH",
"525 743 OFFCURVE",
"468 773 OFFCURVE",
"392 773 CURVE SMOOTH",
"249 773 OFFCURVE",
"182 684 OFFCURVE",
"182 565 CURVE SMOOTH",
"182 540 LINE",
"68 530 LINE",
"68 508 LINE",
"484 508 LINE",
"484 540 LINE",
"250 540 LINE",
"250 585 LINE SMOOTH",
"250 700 OFFCURVE",
"310 754 OFFCURVE",
"394 747 CURVE"
);
}
);
width = 500;
},
{
layerId = "3F0F5FFA-301F-4B90-BC1A-8916131A4004";
width = 600;
},
{
guideLines = (
{
angle = 78.0514;
position = "{246, 299}";
},
{
angle = 258.0514;
position = "{313, 299}";
}
);
layerId = "63C36BCE-C2CB-4BF3-9C7E-344D74934179";
paths = (
{
closed = 1;
nodes = (
"139 530 LINE",
"303 541 LINE",
"296 508 LINE",
"134 508 LINE"
);
},
{
closed = 1;
nodes = (
"345 540 LINE",
"564 540 LINE",
"554 508 LINE",
"338 508 LINE"
);
},
{
closed = 1;
nodes = (
"297 540 LINE SMOOTH",
"325 671 OFFCURVE",
"390 773 OFFCURVE",
"527 773 CURVE SMOOTH",
"609 773 OFFCURVE",
"663 737 OFFCURVE",
"663 691 CURVE SMOOTH",
"663 664 OFFCURVE",
"644 643 OFFCURVE",
"616 643 CURVE SMOOTH",
"577 643 OFFCURVE",
"565 684 OFFCURVE",
"558 711 CURVE SMOOTH",
"551 738 LINE",
"551 738 OFFCURVE",
"541 744 OFFCURVE",
"517 744 CURVE SMOOTH",
"405 744 OFFCURVE",
"380 614 OFFCURVE",
"364 540 CURVE SMOOTH",
"259 43 LINE SMOOTH",
"231 -88 OFFCURVE",
"172 -190 OFFCURVE",
"38 -190 CURVE SMOOTH",
"-40 -190 OFFCURVE",
"-97 -156 OFFCURVE",
"-97 -108 CURVE SMOOTH",
"-97 -81 OFFCURVE",
"-78 -60 OFFCURVE",
"-50 -60 CURVE SMOOTH",
"-11 -60 OFFCURVE",
"1 -101 OFFCURVE",
"8 -128 CURVE SMOOTH",
"15 -155 LINE",
"15 -155 OFFCURVE",
"25 -161 OFFCURVE",
"48 -161 CURVE SMOOTH",
"156 -161 OFFCURVE",
"176 -31 OFFCURVE",
"192 43 CURVE SMOOTH"
);
}
);
width = 500;
}
);
unicode = 0066;
},
{
glyphname = g;
lastChange = "2020-08-16 03:45:23 +0000";
layers = (
{
guideLines = (
{
position = "{174, -159}";
},
{
angle = 175.3894;
position = "{196, 50}";
},
{
angle = 175.3893;
position = "{249, 115}";
}
);
layerId = "94EC0173-ED25-4379-B549-8ECC2838F2C2";
paths = (
{
closed = 1;
nodes = (
"379 -190 OFFCURVE",
"470 -126 OFFCURVE",
"470 -25 CURVE SMOOTH",
"470 62 OFFCURVE",
"401 113 OFFCURVE",
"315 120 CURVE SMOOTH",
"187 130 LINE SMOOTH",
"161 132 OFFCURVE",
"101 138 OFFCURVE",
"101 180 CURVE SMOOTH",
"101 208 OFFCURVE",
"128 225 OFFCURVE",
"149 238 CURVE SMOOTH",
"169 250 LINE",
"158 267 LINE",
"140 256 LINE SMOOTH",
"114 240 OFFCURVE",
"56 212 OFFCURVE",
"56 150 CURVE SMOOTH",
"56 104 OFFCURVE",
"89 71 OFFCURVE",
"156 65 CURVE",
"156 61 LINE",
"156 61 OFFCURVE",
"52 38 OFFCURVE",
"52 -56 CURVE SMOOTH",
"52 -133 OFFCURVE",
"125 -190 OFFCURVE",
"248 -190 CURVE SMOOTH"
);
},
{
closed = 1;
nodes = (
"168 -154 OFFCURVE",
"107 -111 OFFCURVE",
"107 -42 CURVE SMOOTH",
"107 32 OFFCURVE",
"174 55 OFFCURVE",
"196 62 CURVE",
"292 55 LINE SMOOTH",
"339 52 OFFCURVE",
"416 34 OFFCURVE",
"416 -40 CURVE SMOOTH",
"416 -111 OFFCURVE",
"348 -154 OFFCURVE",
"258 -154 CURVE SMOOTH"
);
},
{
closed = 1;
nodes = (
"383 216 OFFCURVE",
"433 302 OFFCURVE",
"433 383 CURVE SMOOTH",
"433 464 OFFCURVE",
"383 550 OFFCURVE",
"266 550 CURVE SMOOTH",
"149 550 OFFCURVE",
"99 464 OFFCURVE",
"99 383 CURVE SMOOTH",
"99 302 OFFCURVE",
"149 216 OFFCURVE",
"266 216 CURVE SMOOTH"
);
},
{
closed = 1;
nodes = (
"195 244 OFFCURVE",
"167 295 OFFCURVE",
"167 362 CURVE SMOOTH",
"167 404 LINE SMOOTH",
"167 471 OFFCURVE",
"195 522 OFFCURVE",
"266 522 CURVE SMOOTH",
"337 522 OFFCURVE",
"365 471 OFFCURVE",
"365 404 CURVE SMOOTH",
"365 362 LINE SMOOTH",
"365 295 OFFCURVE",
"337 244 OFFCURVE",
"266 244 CURVE SMOOTH"
);
},
{
closed = 1;
nodes = (
"480 509 LINE",
"480 540 LINE",
"309 540 LINE",
"343 509 LINE"
);
}
);
width = 520;
},
{
layerId = "3F0F5FFA-301F-4B90-BC1A-8916131A4004";
width = 600;
},
{
guideLines = (
{
angle = -14.9314;
position = "{263, 109}";
}
);
layerId = "63C36BCE-C2CB-4BF3-9C7E-344D74934179";
paths = (
{
closed = 1;
nodes = (
"137 206 OFFCURVE",
"100 178 OFFCURVE",
"100 134 CURVE SMOOTH",
"100 100 OFFCURVE",
"122 80 OFFCURVE",
"146 67 CURVE",
"146 60 LINE",
"146 60 OFFCURVE",
"-38 34 OFFCURVE",
"-38 -87 CURVE SMOOTH",
"-38 -174 OFFCURVE",
"57 -213 OFFCURVE",
"163 -213 CURVE SMOOTH",
"292 -213 OFFCURVE",
"418 -156 OFFCURVE",
"418 -50 CURVE SMOOTH",
"418 40 OFFCURVE",
"328 70 OFFCURVE",
"282 88 CURVE SMOOTH",
"209 117 LINE SMOOTH",
"185 127 OFFCURVE",
"153 137 OFFCURVE",
"153 169 CURVE SMOOTH",
"153 198 OFFCURVE",
"182 211 OFFCURVE",
"199 218 CURVE",
"207 217 OFFCURVE",
"216 216 OFFCURVE",
"225 216 CURVE SMOOTH",
"336 216 OFFCURVE",
"429 309 OFFCURVE",
"429 419 CURVE SMOOTH",
"429 453 OFFCURVE",
"420 485 OFFCURVE",
"400 509 CURVE",
"524 509 LINE",
"530 540 LINE",
"357 540 LINE",
"341 546 OFFCURVE",
"323 550 OFFCURVE",
"301 550 CURVE SMOOTH",
"190 550 OFFCURVE",
"97 457 OFFCURVE",
"97 347 CURVE SMOOTH",
"97 294 OFFCURVE",
"119 247 OFFCURVE",
"167 227 CURVE",
"167 222 LINE"
);
},
{
closed = 1;
nodes = (
"20 0 OFFCURVE",
"94 28 OFFCURVE",
"156 45 CURVE SMOOTH",
"181 52 LINE",
"258 22 LINE SMOOTH",
"294 8 OFFCURVE",
"359 -15 OFFCURVE",
"359 -76 CURVE SMOOTH",
"359 -143 OFFCURVE",
"277 -177 OFFCURVE",
"186 -177 CURVE SMOOTH",
"89 -177 OFFCURVE",
"20 -138 OFFCURVE",
"20 -70 CURVE SMOOTH"
);
},
{
closed = 1;
nodes = (
"173 404 LINE SMOOTH",
"187 471 OFFCURVE",
"228 522 OFFCURVE",
"295 522 CURVE SMOOTH",
"358 522 OFFCURVE",
"376 476 OFFCURVE",
"361 404 CURVE SMOOTH",
"352 362 LINE SMOOTH",
"338 295 OFFCURVE",
"297 244 OFFCURVE",
"229 244 CURVE SMOOTH",
"166 244 OFFCURVE",
"149 290 OFFCURVE",
"164 362 CURVE SMOOTH"
);
}
);
width = 500;
}
);
unicode = 0067;
},
{
glyphname = h;
lastChange = "2020-08-16 04:11:52 +0000";
layers = (
{
components = (
{
alignment = -1;
name = "serif-lower2";
transform = "{1, 0, 0, 1, -236, 0}";
},
{
alignment = -1;
name = "stem-lower";
transform = "{1, 0, 0, 0.91646, -161, 0}";
},
{
alignment = -1;
name = "serif-top2";
transform = "{1, 0, 0, 1, -236, 50}";
},
{
alignment = -1;
name = ncurve;
transform = "{1, 0, 0, 1, 11, 0}";
}
);
layerId = "94EC0173-ED25-4379-B549-8ECC2838F2C2";
paths = (
{
closed = 1;
nodes = (
"265 0 LINE",
"265 33 LINE",
"166 33 LINE",
"166 146 LINE",
"98 146 LINE",
"98 33 LINE",
"14 33 LINE",
"14 0 LINE"
);
}
);
width = 500;
},
{
components = (
{
alignment = -1;
name = "serif-lower2";
transform = "{-1, 0, 0, 1, 772, 0}";
},
{
name = "serif-lower2";
transform = "{1, 0, 0, 1, -225, 0}";
},
{
name = "stem-lower";
transform = "{1, 0, 0, 0.91646, -150, 0}";
},
{
name = "serif-top2";
transform = "{1, 0, 0, 1, -225, 0}";
}
);
layerId = "3F0F5FFA-301F-4B90-BC1A-8916131A4004";
paths = (
{
closed = 1;
nodes = (
"438 145 LINE",
"438 386 LINE SMOOTH",
"438 479 OFFCURVE",
"380 510 OFFCURVE",
"325 510 CURVE SMOOTH",
"216 510 OFFCURVE",
"182 396 OFFCURVE",
"182 396 CURVE",
"172 396 LINE",
"172 328 LINE",
"177 328 LINE",
"177 328 OFFCURVE",
"194 462 OFFCURVE",
"295 462 CURVE SMOOTH",
"352 462 OFFCURVE",
"370 427 OFFCURVE",
"370 386 CURVE SMOOTH",
"370 145 LINE"
);
}
);
width = 600;
},
{
guideLines = (
{
position = "{305, 293}";
}
);
layerId = "63C36BCE-C2CB-4BF3-9C7E-344D74934179";
paths = (
{
closed = 1;
nodes = (
"393 -10 OFFCURVE",
"426 39 OFFCURVE",
"468 97 CURVE SMOOTH",
"492 130 LINE",
"475 142 LINE",
"448 106 LINE SMOOTH",
"418 66 OFFCURVE",
"404 42 OFFCURVE",
"377 42 CURVE SMOOTH",
"345 42 OFFCURVE",
"355 74 OFFCURVE",
"358 84 CURVE SMOOTH",
"461 430 LINE SMOOTH",
"483 504 OFFCURVE",
"448 550 OFFCURVE",
"387 550 CURVE SMOOTH",
"279 550 OFFCURVE",
"218 408 OFFCURVE",
"180 293 CURVE",
"165 293 LINE",
"237 540 LINE",
"282 750 LINE",
"258 750 LINE",
"209 725 LINE",
"84 712 LINE",
"79 688 LINE",
"201 688 LINE",
"55 0 LINE",
"124 0 LINE",
"202 368 OFFCURVE",
"271 497 OFFCURVE",
"356 497 CURVE SMOOTH",
"397 497 OFFCURVE",
"405 468 OFFCURVE",
"392 424 CURVE SMOOTH",
"289 77 LINE SMOOTH",
"271 17 OFFCURVE",
"302 -10 OFFCURVE",
"340 -10 CURVE SMOOTH"
);
}
);
width = 500;
}
);
unicode = 0068;
},
{
glyphname = i;
lastChange = "2020-08-16 03:15:20 +0000";
layers = (
{
anchors = (
{
name = bottom;
position = "{250, 0}";
}
);
components = (
{
alignment = -1;
name = idotless;
transform = "{1, 0, 0, 1, 7, 0}";
},
{
alignment = -1;
name = dotaccentcomb;
transform = "{1, 0, 0, 1, 7, 0}";
}
);
layerId = "94EC0173-ED25-4379-B549-8ECC2838F2C2";
width = 500;
},
{
components = (
{
name = idotless;
},
{
name = dotaccentcomb;
}
);
layerId = "3F0F5FFA-301F-4B90-BC1A-8916131A4004";
width = 600;
},
{
anchors = (
{
name = bottom;
position = "{277, 0}";
},
{
name = ogonek;
position = "{517, 10}";
},
{
name = top;
position = "{240, 679}";
}
);
guideLines = (
{
angle = 257.6973;
position = "{205, 304}";
},
{
angle = 233.1301;
position = "{437, 159}";
},
{
angle = 233.1301;
position = "{426, 184}";
}
);
layerId = "63C36BCE-C2CB-4BF3-9C7E-344D74934179";
paths = (
{
closed = 1;
nodes = (
"264 648 OFFCURVE",
"283 630 OFFCURVE",
"309 630 CURVE SMOOTH",
"344 630 OFFCURVE",
"377 662 OFFCURVE",
"377 697 CURVE SMOOTH",
"377 722 OFFCURVE",
"359 740 OFFCURVE",
"332 740 CURVE SMOOTH",
"297 740 OFFCURVE",
"264 708 OFFCURVE",
"264 673 CURVE SMOOTH"
);
},
{
closed = 1;
nodes = (
"303 554 LINE",
"254 529 LINE",
"77 516 LINE",
"77 492 LINE",
"246 492 LINE",
"162 108 LINE SMOOTH",
"146 36 OFFCURVE",
"180 -10 OFFCURVE",
"242 -10 CURVE SMOOTH",
"304 -10 OFFCURVE",
"346 35 OFFCURVE",
"415 129 CURVE SMOOTH",
"437 159 LINE",
"418 173 LINE",
"396 144 LINE SMOOTH",
"348 81 OFFCURVE",
"311 40 OFFCURVE",
"270 40 CURVE SMOOTH",
"234 40 OFFCURVE",
"220 65 OFFCURVE",
"229 108 CURVE SMOOTH",
"327 554 LINE"
);
}
);
width = 500;
}
);
unicode = 0069;
},
{
glyphname = idotless;
lastChange = "2020-08-18 01:45:51 +0000";
layers = (
{
anchors = (
{
name = bottom;
position = "{243, 0}";
},
{
name = ogonek;
position = "{235, 0}";
},
{
name = top;
position = "{240, 540}";
}
);
components = (
{
alignment = -1;
name = "serif-lower1";
transform = "{1, 0, 0, 1, -125, 0}";
},
{
alignment = -1;
name = "stem-lower";
transform = "{1, 0, 0, 0.61481, -50, 0}";
},
{
name = "serif-top1";
transform = "{1, 0, 0, 1, -125, -150}";
}
);
layerId = "94EC0173-ED25-4379-B549-8ECC2838F2C2";
width = 500;
},
{
layerId = "3F0F5FFA-301F-4B90-BC1A-8916131A4004";
width = 600;
},
{
anchors = (
{
name = bottom;
position = "{174, 0}";
},
{
name = ogonek;
position = "{215, 0}";
},
{
name = top;
position = "{307, 540}";
}
);
layerId = "63C36BCE-C2CB-4BF3-9C7E-344D74934179";
paths = (
{
closed = 1;
nodes = (
"303 554 LINE",
"254 529 LINE",
"77 516 LINE",
"77 492 LINE",
"246 492 LINE",
"166 115 LINE SMOOTH",
"150 40 OFFCURVE",
"167 -10 OFFCURVE",
"225 -10 CURVE SMOOTH",
"283 -10 OFFCURVE",
"314 39 OFFCURVE",
"357 97 CURVE SMOOTH",
"435 203 LINE",
"418 215 LINE",
"337 106 LINE SMOOTH",
"307 66 OFFCURVE",
"291 42 OFFCURVE",
"264 42 CURVE SMOOTH",
"232 42 OFFCURVE",
"225 78 OFFCURVE",
"234 119 CURVE SMOOTH",
"327 554 LINE"
);
}
);
width = 500;
}
);
unicode = 0131;
},
{
glyphname = j;
lastChange = "2020-08-15 15:27:07 +0000";
layers = (
{
components = (
{
alignment = -1;
name = "stem-lower";
transform = "{1, 0, 0, 0.61481, 56, 0}";
},
{
name = "serif-top1";
transform = "{1, 0, 0, 1, -19, -150}";
},
{
alignment = -1;
name = dotaccentcomb;
transform = "{1, 0, 0, 1, 106, 0}";
}
);
layerId = "94EC0173-ED25-4379-B549-8ECC2838F2C2";
paths = (
{
closed = 1;
nodes = (
"315 -2 LINE SMOOTH",
"315 -117 OFFCURVE",
"255 -171 OFFCURVE",
"171 -164 CURVE",
"153 -114 LINE SMOOTH",
"144 -90 OFFCURVE",
"128 -68 OFFCURVE",
"96 -68 CURVE SMOOTH",
"68 -68 OFFCURVE",
"50 -85 OFFCURVE",
"50 -114 CURVE SMOOTH",
"50 -160 OFFCURVE",
"97 -190 OFFCURVE",
"177 -190 CURVE SMOOTH",
"314 -190 OFFCURVE",
"383 -102 OFFCURVE",
"383 18 CURVE SMOOTH",
"383 43 LINE",
"315 43 LINE"
);
}
);
width = 500;
},
{
layerId = "3F0F5FFA-301F-4B90-BC1A-8916131A4004";
width = 600;
},
{
layerId = "63C36BCE-C2CB-4BF3-9C7E-344D74934179";
paths = (
{
closed = 1;
nodes = (
"240 43 LINE SMOOTH",
"224 -31 OFFCURVE",
"200 -161 OFFCURVE",
"66 -161 CURVE SMOOTH",
"39 -161 OFFCURVE",
"23 -155 OFFCURVE",
"23 -155 CURVE",
"16 -128 LINE SMOOTH",
"9 -101 OFFCURVE",
"-3 -60 OFFCURVE",
"-42 -60 CURVE SMOOTH",
"-70 -60 OFFCURVE",
"-89 -81 OFFCURVE",
"-89 -108 CURVE SMOOTH",
"-89 -156 OFFCURVE",
"-28 -190 OFFCURVE",
"58 -190 CURVE SMOOTH",
"245 -190 OFFCURVE",
"291 -31 OFFCURVE",
"307 43 CURVE SMOOTH",
"417 554 LINE",
"393 554 LINE",
"344 529 LINE",
"147 516 LINE",
"147 492 LINE",
"336 492 LINE"
);
},
{
closed = 1;
nodes = (
"355 648 OFFCURVE",
"374 630 OFFCURVE",
"400 630 CURVE SMOOTH",
"435 630 OFFCURVE",
"468 662 OFFCURVE",
"468 697 CURVE SMOOTH",
"468 722 OFFCURVE",
"450 740 OFFCURVE",
"423 740 CURVE SMOOTH",
"388 740 OFFCURVE",
"355 708 OFFCURVE",
"355 673 CURVE SMOOTH"
);
}
);
width = 500;
}
);
unicode = 006A;
},
{
glyphname = k;
lastChange = "2020-08-16 04:12:06 +0000";
layers = (
{
anchors = (
{
name = bottom;
position = "{250, 0}";
},
{
name = top;
position = "{250, 900}";
}
);
components = (
{
locked = 1;
name = "stem-lower";
transform = "{1, 0, 0, 0.91646, -167, 0}";
},
{
name = "serif-top2";
transform = "{1, 0, 0, 1, -242, 50}";
}
);
guideLines = (
{
angle = -56.2169;
position = "{251, 335}";
}
);
layerId = "94EC0173-ED25-4379-B549-8ECC2838F2C2";
paths = (
{
closed = 1;
nodes = (
"382 540 LINE",
"100 210 LINE",
"136 207 LINE",
"418 537 LINE"
);
},
{
closed = 1;
nodes = (
"300 540 LINE",
"300 506 LINE",
"354 506 LINE",
"392 506 LINE",
"482 506 LINE",
"482 540 LINE"
);
},
{
closed = 1;
nodes = (
"239 0 LINE",
"239 34 LINE",
"160 34 LINE",
"160 146 LINE",
"92 146 LINE",
"92 34 LINE",
"-7 34 LINE",
"-7 0 LINE"
);
},
{
closed = 1;
nodes = (
"241 335 LINE",
"202 284 LINE",
"392 0 LINE",
"466 0 LINE"
);
},
{
closed = 1;
nodes = (
"514 34 LINE",
"442 34 LINE",
"369 34 LINE",
"307 34 LINE",
"307 0 LINE",
"514 0 LINE"
);
}
);
width = 500;
},
{
layerId = "3F0F5FFA-301F-4B90-BC1A-8916131A4004";
width = 600;
},
{
anchors = (
{
name = bottom;
position = "{193, 0}";
},
{
name = top;
position = "{384, 900}";
}
);
guideLines = (
{
angle = -61.6872;
position = "{308, 274}";
},
{
angle = 118.3128;
position = "{305, 140}";
}
);
layerId = "63C36BCE-C2CB-4BF3-9C7E-344D74934179";
paths = (
{
closed = 1;
nodes = (
"405 -10 OFFCURVE",
"433 25 OFFCURVE",
"485 97 CURVE SMOOTH",
"509 130 LINE",
"492 142 LINE",
"465 106 LINE SMOOTH",
"435 66 OFFCURVE",
"416 42 OFFCURVE",
"391 42 CURVE SMOOTH",
"367 42 OFFCURVE",
"356 65 OFFCURVE",
"345 85 CURVE SMOOTH",
"248 265 LINE",
"255 265 LINE SMOOTH",
"407 265 OFFCURVE",
"477 354 OFFCURVE",
"477 440 CURVE SMOOTH",
"477 509 OFFCURVE",
"431 550 OFFCURVE",
"363 550 CURVE SMOOTH",
"241 550 OFFCURVE",
"194 417 OFFCURVE",
"153 293 CURVE",
"138 293 LINE",
"210 540 LINE",
"254 750 LINE",
"230 750 LINE",
"181 725 LINE",
"46 712 LINE",
"41 688 LINE",
"173 688 LINE",
"27 0 LINE",
"96 0 LINE",
"125 116 LINE SMOOTH",
"156 240 OFFCURVE",
"218 519 OFFCURVE",
"340 519 CURVE SMOOTH",
"379 519 OFFCURVE",
"411 490 OFFCURVE",
"411 438 CURVE SMOOTH",
"411 362 OFFCURVE",
"342 290 OFFCURVE",
"244 290 CURVE SMOOTH",
"163 290 LINE",
"163 282 LINE",
"276 73 LINE SMOOTH",
"301 27 OFFCURVE",
"320 -10 OFFCURVE",
"364 -10 CURVE SMOOTH"
);
}
);
width = 500;
}
);
unicode = 006B;
},
{
glyphname = l;
lastChange = "2020-08-17 02:36:00 +0000";
layers = (
{
anchors = (
{
name = bottom;
position = "{250, 0}";
},
{
name = center;
position = "{250, 598}";
},
{
name = top;
position = "{250, 740}";
},
{
name = topright;
position = "{480, 1196}";
}
);
components = (
{
alignment = -1;
name = "serif-lower1";
transform = "{1, 0, 0, 1, -118, 0}";
},
{
alignment = -1;
name = "stem-lower";
transform = "{1, 0, 0, 0.91646, -43, 0}";
},
{
name = "serif-top1";
transform = "{1, 0, 0, 1, -118, 50}";
}
);
layerId = "94EC0173-ED25-4379-B549-8ECC2838F2C2";
width = 500;
},
{
layerId = "3F0F5FFA-301F-4B90-BC1A-8916131A4004";
width = 600;
},
{
anchors = (
{
name = bottom;
position = "{193, 0}";
},
{
name = center;
position = "{320, 598}";
},
{
name = top;
position = "{295, 740}";
},
{
name = topright;
position = "{677, 1196}";
}
);
guideLines = (
{
angle = 258.0239;
position = "{191, 424}";
},
{
angle = 77.954;
position = "{259, 429}";
}
);
layerId = "63C36BCE-C2CB-4BF3-9C7E-344D74934179";
paths = (
{
closed = 1;
nodes = (
"328 750 LINE",
"304 750 LINE",
"255 725 LINE",
"90 712 LINE",
"85 688 LINE",
"247 688 LINE",
"131 143 LINE SMOOTH",
"112 52 OFFCURVE",
"144 -10 OFFCURVE",
"229 -10 CURVE SMOOTH",
"314 -10 OFFCURVE",
"361 52 OFFCURVE",
"417 129 CURVE SMOOTH",
"439 159 LINE",
"420 173 LINE",
"398 144 LINE SMOOTH",
"364 99 OFFCURVE",
"321 40 OFFCURVE",
"258 40 CURVE SMOOTH",
"207 40 OFFCURVE",
"185 79 OFFCURVE",
"199 143 CURVE SMOOTH"
);
}
);
width = 500;
}
);
unicode = 006C;
},
{
glyphname = lslash;
lastChange = "2020-08-16 17:00:33 +0000";
layers = (
{
components = (
{
name = l;
}
);
layerId = "94EC0173-ED25-4379-B549-8ECC2838F2C2";
paths = (
{
closed = 1;
nodes = (
"107 325 LINE",
"107 291 LINE",
"394 461 LINE",
"394 495 LINE"
);
}
);
width = 500;
},
{
components = (
{
name = l;
}
);
layerId = "63C36BCE-C2CB-4BF3-9C7E-344D74934179";
paths = (
{
closed = 1;
nodes = (
"70 325 LINE",
"63 291 LINE",
"386 461 LINE",
"393 495 LINE"
);
}
);
width = 500;
},
{
layerId = "3F0F5FFA-301F-4B90-BC1A-8916131A4004";
width = 600;
}
);
unicode = 0142;
},
{
glyphname = m;
lastChange = "2020-09-01 17:07:29 +0000";
layers = (
{
components = (
{
alignment = -1;
name = "serif-top-3";
transform = "{1, 0, 0, 1, -281, -150}";
}
);
layerId = "94EC0173-ED25-4379-B549-8ECC2838F2C2";
paths = (
{
closed = 1;
nodes = (
"180 0 LINE",
"180 34 LINE",
"131 34 LINE",
"131 426 LINE",
"131 426 OFFCURVE",
"140 505 OFFCURVE",
"187 505 CURVE SMOOTH",
"209 505 OFFCURVE",
"223 491 OFFCURVE",
"223 467 CURVE SMOOTH",
"223 0 LINE",
"336 0 LINE",
"336 34 LINE",
"287 34 LINE",
"287 426 LINE",
"287 426 OFFCURVE",
"296 505 OFFCURVE",
"346 505 CURVE SMOOTH",
"367 505 OFFCURVE",
"379 491 OFFCURVE",
"379 467 CURVE SMOOTH",
"379 0 LINE",
"493 0 LINE",
"493 34 LINE",
"444 34 LINE",
"444 470 LINE SMOOTH",
"444 522 OFFCURVE",
"420 550 OFFCURVE",
"379 550 CURVE SMOOTH",
"317 550 OFFCURVE",
"290 479 OFFCURVE",
"290 479 CURVE",
"280 479 LINE",
"287 470 LINE",
"287 522 OFFCURVE",
"262 550 OFFCURVE",
"223 550 CURVE SMOOTH",
"160 550 OFFCURVE",
"134 479 OFFCURVE",
"134 479 CURVE",
"131 479 LINE",
"131 505 LINE",
"66 505 LINE",
"66 34 LINE",
"22 34 LINE",
"22 0 LINE"
);
}
);
width = 500;
},
{
layerId = "3F0F5FFA-301F-4B90-BC1A-8916131A4004";
paths = (
{
closed = 1;
nodes = (
"37 56 LINE",
"105 56 LINE",
"105 371 LINE",
"105 371 OFFCURVE",
"122 464 OFFCURVE",
"176 464 CURVE SMOOTH",
"200 464 OFFCURVE",
"217 446 OFFCURVE",
"217 410 CURVE SMOOTH",
"217 56 LINE",
"285 56 LINE",
"285 415 LINE SMOOTH",
"285 479 OFFCURVE",
"255 510 OFFCURVE",
"210 510 CURVE SMOOTH",
"132 510 OFFCURVE",
"109 415 OFFCURVE",
"109 415 CURVE",
"105 415 LINE",
"105 510 LINE",
"37 510 LINE"
);
}
);
width = 600;
},
{
guideLines = (
{
angle = 255.9638;
position = "{218, 212}";
},
{
angle = 253.1645;
position = "{381, 251}";
},
{
position = "{285, 142}";
},
{
angle = 75.4889;
position = "{163, 378}";
}
);
layerId = "63C36BCE-C2CB-4BF3-9C7E-344D74934179";
paths = (
{
closed = 1;
nodes = (
"294 17 OFFCURVE",
"310 -10 OFFCURVE",
"344 -10 CURVE SMOOTH",
"381 -10 OFFCURVE",
"414 33 OFFCURVE",
"461 97 CURVE SMOOTH",
"506 158 LINE",
"489 170 LINE",
"441 106 LINE SMOOTH",
"411 66 OFFCURVE",
"393 42 OFFCURVE",
"377 42 CURVE SMOOTH",
"358 42 OFFCURVE",
"368 76 OFFCURVE",
"371 84 CURVE SMOOTH",
"476 430 LINE SMOOTH",
"499 505 OFFCURVE",
"484 550 OFFCURVE",
"441 550 CURVE SMOOTH",
"371 550 OFFCURVE",
"332 432 OFFCURVE",
"295 315 CURVE SMOOTH",
"288 293 LINE",
"277 293 LINE",
"326 453 LINE SMOOTH",
"347 523 OFFCURVE",
"321 550 OFFCURVE",
"291 550 CURVE SMOOTH",
"219 550 OFFCURVE",
"179 396 OFFCURVE",
"158 316 CURVE SMOOTH",
"152 293 LINE",
"141 293 LINE",
"185 463 LINE SMOOTH",
"201 524 OFFCURVE",
"180 550 OFFCURVE",
"155 550 CURVE SMOOTH",
"126 550 OFFCURVE",
"103 517 OFFCURVE",
"48 443 CURVE SMOOTH",
"25 412 LINE",
"42 399 LINE",
"68 434 LINE SMOOTH",
"108 488 OFFCURVE",
"117 498 OFFCURVE",
"128 498 CURVE SMOOTH",
"145 498 OFFCURVE",
"142 474 OFFCURVE",
"138 456 CURVE SMOOTH",
"41 0 LINE",
"95 0 LINE",
"169 291 LINE SMOOTH",
"209 449 OFFCURVE",
"242 497 OFFCURVE",
"266 497 CURVE SMOOTH",
"286 497 OFFCURVE",
"281 465 OFFCURVE",
"276 446 CURVE SMOOTH",
"165 0 LINE",
"214 0 LINE",
"303 285 LINE SMOOTH",
"331 376 OFFCURVE",
"373 497 OFFCURVE",
"416 497 CURVE SMOOTH",
"439 497 OFFCURVE",
"428 460 OFFCURVE",
"423 444 CURVE SMOOTH",
"312 77 LINE SMOOTH"
);
}
);
width = 500;
}
);
unicode = 006D;
},
{
glyphname = n;
lastChange = "2020-08-16 04:11:29 +0000";
layers = (
{
anchors = (
{
name = bottom;
position = "{250, 0}";
},
{
name = top;
position = "{250, 540}";
}
);
components = (
{
alignment = -1;
name = ncurve;
transform = "{1, 0, 0, 1, 11, 0}";
},
{
alignment = -1;
name = "serif-top2";
transform = "{1, 0, 0, 1, -236, -150}";
}
);
layerId = "94EC0173-ED25-4379-B549-8ECC2838F2C2";
paths = (
{
closed = 1;
nodes = (
"265 0 LINE",
"265 28 LINE",
"166 36 LINE",
"166 146 LINE",
"98 146 LINE",
"98 36 LINE",
"14 28 LINE",
"14 0 LINE"
);
}
);
width = 500;
},
{
layerId = "3F0F5FFA-301F-4B90-BC1A-8916131A4004";
width = 600;
},
{
anchors = (
{
name = bottom;
position = "{193, 0}";
},
{
name = top;
position = "{307, 540}";
}
);
guideLines = (
{
angle = 254.0546;
position = "{107, 0}";
},
{
position = "{285, 142}";
},
{
angle = 233.1301;
position = "{469, 124}";
}
);
layerId = "63C36BCE-C2CB-4BF3-9C7E-344D74934179";
paths = (
{
closed = 1;
nodes = (
"228 463 LINE SMOOTH",
"248 523 OFFCURVE",
"216 550 OFFCURVE",
"180 550 CURVE SMOOTH",
"133 550 OFFCURVE",
"102 501 OFFCURVE",
"59 443 CURVE SMOOTH",
"36 412 LINE",
"53 399 LINE",
"79 434 LINE SMOOTH",
"109 474 OFFCURVE",
"126 498 OFFCURVE",
"147 498 CURVE SMOOTH",
"168 498 OFFCURVE",
"163 475 OFFCURVE",
"159 456 CURVE SMOOTH",
"62 0 LINE",
"131 0 LINE",
"209 368 OFFCURVE",
"278 497 OFFCURVE",
"363 497 CURVE SMOOTH",
"404 497 OFFCURVE",
"412 468 OFFCURVE",
"399 424 CURVE SMOOTH",
"296 77 LINE SMOOTH",
"278 17 OFFCURVE",
"309 -10 OFFCURVE",
"347 -10 CURVE SMOOTH",
"400 -10 OFFCURVE",
"433 39 OFFCURVE",
"475 97 CURVE SMOOTH",
"499 130 LINE",
"482 142 LINE",
"455 106 LINE SMOOTH",
"425 66 OFFCURVE",
"407 42 OFFCURVE",
"384 42 CURVE SMOOTH",
"354 42 OFFCURVE",
"362 74 OFFCURVE",
"365 84 CURVE SMOOTH",
"468 430 LINE SMOOTH",
"490 504 OFFCURVE",
"455 550 OFFCURVE",
"394 550 CURVE SMOOTH",
"286 550 OFFCURVE",
"224 406 OFFCURVE",
"187 293 CURVE",
"172 293 LINE"
);
}
);
width = 500;
}
);
unicode = 006E;
},
{
glyphname = eng;
lastChange = "2020-08-15 13:47:19 +0000";
layers = (
{
layerId = "94EC0173-ED25-4379-B549-8ECC2838F2C2";
paths = (
{
closed = 1;
nodes = (
"128 488 LINE",
"128 36 LINE",
"44 28 LINE",
"44 0 LINE",
"295 0 LINE",
"295 28 LINE",
"196 36 LINE",
"196 421 LINE",
"196 421 OFFCURVE",
"217 504 OFFCURVE",
"295 504 CURVE SMOOTH",
"341 504 OFFCURVE",
"365 476 OFFCURVE",
"365 424 CURVE SMOOTH",
"365 -2 LINE SMOOTH",
"365 -117 OFFCURVE",
"305 -171 OFFCURVE",
"231 -164 CURVE",
"203 -114 LINE SMOOTH",
"195 -100 OFFCURVE",
"177 -68 OFFCURVE",
"140 -68 CURVE SMOOTH",
"113 -68 OFFCURVE",
"100 -86 OFFCURVE",
"100 -111 CURVE SMOOTH",
"100 -160 OFFCURVE",
"157 -190 OFFCURVE",
"233 -190 CURVE SMOOTH",
"366 -190 OFFCURVE",
"433 -101 OFFCURVE",
"433 18 CURVE SMOOTH",
"433 430 LINE SMOOTH",
"433 503 OFFCURVE",
"396 550 OFFCURVE",
"326 550 CURVE SMOOTH",
"234 550 OFFCURVE",
"199 469 OFFCURVE",
"199 469 CURVE",
"196 469 LINE",
"196 550 LINE",
"172 550 LINE",
"128 525 LINE",
"26 512 LINE",
"26 488 LINE"
);
}
);
width = 500;
},
{
guideLines = (
{
angle = 253.4675;
position = "{348, 251}";
},
{
angle = 73.4224;
position = "{417, 257}";
}
);
layerId = "63C36BCE-C2CB-4BF3-9C7E-344D74934179";
paths = (
{
closed = 1;
nodes = (
"468 430 LINE SMOOTH",
"490 504 OFFCURVE",
"455 550 OFFCURVE",
"394 550 CURVE SMOOTH",
"286 550 OFFCURVE",
"224 406 OFFCURVE",
"187 293 CURVE",
"174 293 LINE",
"228 463 LINE SMOOTH",
"247 523 OFFCURVE",
"216 550 OFFCURVE",
"180 550 CURVE SMOOTH",
"133 550 OFFCURVE",
"102 501 OFFCURVE",
"59 443 CURVE SMOOTH",
"36 412 LINE",
"53 399 LINE",
"79 434 LINE SMOOTH",
"109 474 OFFCURVE",
"126 498 OFFCURVE",
"147 498 CURVE SMOOTH",
"168 498 OFFCURVE",
"163 475 OFFCURVE",
"159 456 CURVE SMOOTH",
"62 0 LINE",
"131 0 LINE",
"209 368 OFFCURVE",
"278 497 OFFCURVE",
"363 497 CURVE SMOOTH",
"404 497 OFFCURVE",
"412 468 OFFCURVE",
"399 424 CURVE SMOOTH",
"286 43 LINE SMOOTH",
"245 -95 OFFCURVE",
"213 -161 OFFCURVE",
"121 -161 CURVE SMOOTH",
"91 -161 OFFCURVE",
"79 -155 OFFCURVE",
"79 -155 CURVE",
"72 -128 LINE SMOOTH",
"65 -101 OFFCURVE",
"53 -60 OFFCURVE",
"14 -60 CURVE SMOOTH",
"-14 -60 OFFCURVE",
"-33 -81 OFFCURVE",
"-33 -108 CURVE SMOOTH",
"-33 -155 OFFCURVE",
"30 -190 OFFCURVE",
"110 -190 CURVE SMOOTH",
"287 -190 OFFCURVE",
"331 -30 OFFCURVE",
"353 43 CURVE SMOOTH"
);
}
);
width = 500;
},
{
layerId = "3F0F5FFA-301F-4B90-BC1A-8916131A4004";
width = 600;
}
);
unicode = 014B;
},
{
glyphname = o;
lastChange = "2020-08-15 07:24:41 +0000";
layers = (
{
anchors = (
{
name = bottom;
position = "{250, 0}";
},
{
name = center;
position = "{250, 270}";
},
{
name = ogonek;
position = "{450, 10}";
},
{
name = top;
position = "{250, 540}";
},
{
name = topright;
position = "{358, 490}";
}
);
layerId = "94EC0173-ED25-4379-B549-8ECC2838F2C2";
paths = (
{
closed = 1;
nodes = (
"384 -10 OFFCURVE",
"447 130 OFFCURVE",
"447 270 CURVE SMOOTH",
"447 410 OFFCURVE",
"384 550 OFFCURVE",
"250 550 CURVE SMOOTH",
"116 550 OFFCURVE",
"53 410 OFFCURVE",
"53 270 CURVE SMOOTH",
"53 130 OFFCURVE",
"116 -10 OFFCURVE",
"250 -10 CURVE SMOOTH"
);
},
{
closed = 1;
nodes = (
"166 22 OFFCURVE",
"123 96 OFFCURVE",
"123 220 CURVE SMOOTH",
"123 320 LINE SMOOTH",
"123 444 OFFCURVE",
"166 518 OFFCURVE",
"250 518 CURVE SMOOTH",
"334 518 OFFCURVE",
"377 444 OFFCURVE",
"377 320 CURVE SMOOTH",
"377 220 LINE SMOOTH",
"377 96 OFFCURVE",
"334 22 OFFCURVE",
"250 22 CURVE SMOOTH"
);
}
);
width = 500;
},
{
layerId = "3F0F5FFA-301F-4B90-BC1A-8916131A4004";
paths = (
{
closed = 1;
nodes = (
"380 -10 OFFCURVE",
"446 120 OFFCURVE",
"446 250 CURVE SMOOTH",
"446 380 OFFCURVE",
"380 510 OFFCURVE",
"245 510 CURVE SMOOTH",
"110 510 OFFCURVE",
"44 380 OFFCURVE",
"44 250 CURVE SMOOTH",
"44 120 OFFCURVE",
"110 -10 OFFCURVE",
"245 -10 CURVE SMOOTH"
);
},
{
closed = 1;
nodes = (
"157 22 OFFCURVE",
"114 147 OFFCURVE",
"114 283 CURVE SMOOTH",
"114 395 OFFCURVE",
"155 478 OFFCURVE",
"233 478 CURVE SMOOTH",
"333 478 OFFCURVE",
"376 353 OFFCURVE",
"376 217 CURVE SMOOTH",
"376 105 OFFCURVE",
"335 22 OFFCURVE",
"257 22 CURVE SMOOTH"
);
}
);
width = 600;
},
{
anchors = (
{
name = bottom;
position = "{193, 0}";
},
{
name = center;
position = "{250, 270}";
},
{
name = ogonek;
position = "{395, 10}";
},
{
name = top;
position = "{321, 540}";
},
{
name = topright;
position = "{399, 484}";
}
);
layerId = "63C36BCE-C2CB-4BF3-9C7E-344D74934179";
paths = (
{
closed = 1;
nodes = (
"333 -10 OFFCURVE",
"452 178 OFFCURVE",
"452 357 CURVE SMOOTH",
"452 465 OFFCURVE",
"408 550 OFFCURVE",
"316 550 CURVE SMOOTH",
"176 550 OFFCURVE",
"58 359 OFFCURVE",
"58 183 CURVE SMOOTH",
"58 77 OFFCURVE",
"101 -10 OFFCURVE",
"194 -10 CURVE SMOOTH"
);
},
{
closed = 1;
nodes = (
"129 22 OFFCURVE",
"100 96 OFFCURVE",
"127 220 CURVE SMOOTH",
"149 320 LINE SMOOTH",
"176 444 OFFCURVE",
"235 518 OFFCURVE",
"308 518 CURVE SMOOTH",
"382 518 OFFCURVE",
"409 444 OFFCURVE",
"383 320 CURVE SMOOTH",
"362 220 LINE SMOOTH",
"336 96 OFFCURVE",
"276 22 OFFCURVE",
"202 22 CURVE SMOOTH"
);
}
);
width = 500;
}
);
unicode = 006F;
},
{
glyphname = oslash;
lastChange = "2020-08-16 16:57:37 +0000";
layers = (
{
components = (
{
alignment = -1;
name = o;
transform = "{1, 0, 0, 1, 0, 1}";
}
);
layerId = "94EC0173-ED25-4379-B549-8ECC2838F2C2";
paths = (
{
closed = 1;
nodes = (
"421.225 535.479 LINE",
"393.512 551.479 LINE",
"78.412 5.71 LINE",
"106.125 -10.29 LINE"
);
}
);
width = 500;
},
{
components = (
{
alignment = -1;
name = o;
transform = "{1, 0, 0, 1, -5, 1}";
}
);
layerId = "63C36BCE-C2CB-4BF3-9C7E-344D74934179";
paths = (
{
closed = 1;
nodes = (
"478 535 LINE",
"454 551 LINE",
"23 6 LINE",
"47 -10 LINE"
);
}
);
width = 500;
},
{
layerId = "3F0F5FFA-301F-4B90-BC1A-8916131A4004";
width = 600;
}
);
unicode = 00F8;
},
{
glyphname = oe;
lastChange = "2020-08-15 13:28:22 +0000";
layers = (
{
layerId = "94EC0173-ED25-4379-B549-8ECC2838F2C2";
paths = (
{
closed = 1;
nodes = (
"340 -10 OFFCURVE",
"341 550 OFFCURVE",
"150 550 CURVE SMOOTH",
"-40 550 OFFCURVE",
"-41 -10 OFFCURVE",
"150 -10 CURVE SMOOTH"
);
},
{
closed = 1;
nodes = (
"108 22 OFFCURVE",
"74 69 OFFCURVE",
"74 200 CURVE SMOOTH",
"74 340 LINE SMOOTH",
"74 471 OFFCURVE",
"108 518 OFFCURVE",
"150 518 CURVE SMOOTH",
"192 518 OFFCURVE",
"226 471 OFFCURVE",
"226 340 CURVE SMOOTH",
"226 200 LINE SMOOTH",
"226 69 OFFCURVE",
"192 22 OFFCURVE",
"150 22 CURVE SMOOTH"
);
},
{
closed = 1;
nodes = (
"452 -10 OFFCURVE",
"490 54 OFFCURVE",
"490 168 CURVE SMOOTH",
"490 193 LINE",
"458 193 LINE",
"458 168 LINE SMOOTH",
"458 46 OFFCURVE",
"414 25 OFFCURVE",
"379 25 CURVE SMOOTH",
"294 25 OFFCURVE",
"294 144 OFFCURVE",
"294 200 CURVE SMOOTH",
"294 340 LINE SMOOTH",
"294 471 OFFCURVE",
"328 518 OFFCURVE",
"373 518 CURVE SMOOTH",
"414 518 OFFCURVE",
"434 477 OFFCURVE",
"434 419 CURVE SMOOTH",
"434 350 OFFCURVE",
"406 350 OFFCURVE",
"375 350 CURVE SMOOTH",
"266 350 LINE",
"266 324 LINE",
"492 324 LINE",
"492 324 OFFCURVE",
"494 341 OFFCURVE",
"494 367 CURVE SMOOTH",
"494 484 OFFCURVE",
"450 550 OFFCURVE",
"380 550 CURVE SMOOTH",
"278 550 OFFCURVE",
"226 408 OFFCURVE",
"226 266 CURVE SMOOTH",
"226 128 OFFCURVE",
"276 -10 OFFCURVE",
"381 -10 CURVE SMOOTH"
);
}
);
width = 500;
},
{
layerId = "63C36BCE-C2CB-4BF3-9C7E-344D74934179";
paths = (
{
closed = 1;
nodes = (
"84 340 LINE SMOOTH",
"112 471 OFFCURVE",
"156 518 OFFCURVE",
"198 518 CURVE SMOOTH",
"239 518 OFFCURVE",
"264 471 OFFCURVE",
"236 340 CURVE SMOOTH",
"206 200 LINE SMOOTH",
"178 69 OFFCURVE",
"134 22 OFFCURVE",
"92 22 CURVE SMOOTH",
"51 22 OFFCURVE",
"26 69 OFFCURVE",
"54 200 CURVE SMOOTH"
);
},
{
closed = 1;
nodes = (
"137 -10 OFFCURVE",
"184 32 OFFCURVE",
"220 93 CURVE",
"231 31 OFFCURVE",
"267 -10 OFFCURVE",
"326 -10 CURVE SMOOTH",
"419 -10 OFFCURVE",
"449 94 OFFCURVE",
"465 158 CURVE SMOOTH",
"468 170 LINE",
"443 178 LINE",
"437 158 LINE SMOOTH",
"417 91 OFFCURVE",
"392 25 OFFCURVE",
"334 25 CURVE SMOOTH",
"292 25 OFFCURVE",
"266 65 OFFCURVE",
"266 127 CURVE SMOOTH",
"266 147 OFFCURVE",
"269 182 OFFCURVE",
"277 220 CURVE SMOOTH",
"294 300 LINE",
"297 300 LINE SMOOTH",
"394 300 OFFCURVE",
"538 371 OFFCURVE",
"538 469 CURVE SMOOTH",
"538 520 OFFCURVE",
"500 550 OFFCURVE",
"450 550 CURVE SMOOTH",
"380 550 OFFCURVE",
"331 507 OFFCURVE",
"296 445 CURVE",
"286 507 OFFCURVE",
"257 550 OFFCURVE",
"204 550 CURVE SMOOTH",
"15 550 OFFCURVE",
"-106 -10 OFFCURVE",
"85 -10 CURVE SMOOTH"
);
},
{
closed = 1;
nodes = (
"324 444 OFFCURVE",
"365 519 OFFCURVE",
"428 519 CURVE SMOOTH",
"460 519 OFFCURVE",
"472 498 OFFCURVE",
"472 470 CURVE SMOOTH",
"472 393 OFFCURVE",
"384 323 OFFCURVE",
"298 322 CURVE"
);
}
);
width = 500;
},
{
layerId = "3F0F5FFA-301F-4B90-BC1A-8916131A4004";
width = 600;
}
);
unicode = 0153;
},
{
glyphname = p;
lastChange = "2020-08-16 02:00:06 +0000";
layers = (
{
components = (
{
name = "serif-top2";
transform = "{1, 0, 0, 1, -207, -150}";
}
);
guideLines = (
{
angle = 90;
position = "{195, 138}";
}
);
layerId = "94EC0173-ED25-4379-B549-8ECC2838F2C2";
paths = (
{
closed = 1;
nodes = (
"359 -190 LINE",
"359 -156 LINE",
"195 -156 LINE",
"195 36 LINE",
"213 13 OFFCURVE",
"246 -10 OFFCURVE",
"295 -10 CURVE SMOOTH",
"412 -10 OFFCURVE",
"475 123 OFFCURVE",
"475 288 CURVE SMOOTH",
"475 440 OFFCURVE",
"422 550 OFFCURVE",
"322 550 CURVE SMOOTH",
"234 550 OFFCURVE",
"198 465 OFFCURVE",
"198 465 CURVE",
"195 465 LINE",
"127 515 LINE",
"127 -156 LINE",
"8 -156 LINE",
"8 -190 LINE"
);
},
{
closed = 1;
nodes = (
"195 401 LINE SMOOTH",
"195 401 OFFCURVE",
"207 509 OFFCURVE",
"300 509 CURVE SMOOTH",
"351 509 OFFCURVE",
"398 477 OFFCURVE",
"398 396 CURVE SMOOTH",
"398 159 LINE SMOOTH",
"398 68 OFFCURVE",
"358 22 OFFCURVE",
"295 22 CURVE SMOOTH",
"239 22 OFFCURVE",
"195 59 OFFCURVE",
"195 159 CURVE SMOOTH"
);
}
);
width = 500;
},
{
layerId = "3F0F5FFA-301F-4B90-BC1A-8916131A4004";
width = 600;
},
{
guideLines = (
{
angle = 90;
position = "{185, 138}";
},
{
angle = 258.0239;
position = "{114, -152}";
},
{
angle = 78.0888;
position = "{225, 186}";
}
);
layerId = "63C36BCE-C2CB-4BF3-9C7E-344D74934179";
paths = (
{
closed = 1;
nodes = (
"273 -186 LINE",
"273 -152 LINE",
"114 -152 LINE",
"147 3 LINE",
"165 -4 OFFCURVE",
"188 -10 OFFCURVE",
"216 -10 CURVE SMOOTH",
"384 -10 OFFCURVE",
"480 233 OFFCURVE",
"480 397 CURVE SMOOTH",
"480 491 OFFCURVE",
"447 550 OFFCURVE",
"381 550 CURVE SMOOTH",
"322 550 OFFCURVE",
"271 504 OFFCURVE",
"255 490 CURVE",
"242 490 LINE",
"283 647 LINE",
"216 647 LINE",
"46 -152 LINE",
"-58 -152 LINE",
"-58 -186 LINE"
);
},
{
closed = 1;
nodes = (
"245 465 LINE",
"245 465 OFFCURVE",
"299 514 OFFCURVE",
"353 514 CURVE SMOOTH",
"402 514 OFFCURVE",
"429 475 OFFCURVE",
"413 400 CURVE SMOOTH",
"367 182 LINE SMOOTH",
"344 75 OFFCURVE",
"294 22 OFFCURVE",
"222 22 CURVE SMOOTH",
"178 22 OFFCURVE",
"156 42 OFFCURVE",
"156 42 CURVE"
);
},
{
closed = 1;
nodes = (
"51 414 LINE",
"51 362 LINE",
"62 362 LINE",
"198 450 LINE",
"198 470 LINE"
);
}
);
width = 500;
}
);
unicode = 0070;
},
{
glyphname = thorn;
lastChange = "2020-08-15 15:23:37 +0000";
layers = (
{
components = (
{
name = "serif-top2";
transform = "{1, 0, 0, 1, -207, 50}";
}
);
layerId = "94EC0173-ED25-4379-B549-8ECC2838F2C2";
paths = (
{
closed = 1;
nodes = (
"359 -190 LINE",
"359 -162 LINE",
"195 -152 LINE",
"195 36 LINE",
"213 13 OFFCURVE",
"246 -10 OFFCURVE",
"295 -10 CURVE SMOOTH",
"412 -10 OFFCURVE",
"475 123 OFFCURVE",
"475 288 CURVE SMOOTH",
"475 440 OFFCURVE",
"422 550 OFFCURVE",
"322 550 CURVE SMOOTH",
"234 550 OFFCURVE",
"198 465 OFFCURVE",
"198 465 CURVE",
"195 465 LINE",
"195 601 LINE",
"127 601 LINE",
"127 -152 LINE",
"8 -162 LINE",
"8 -190 LINE"
);
},
{
closed = 1;
nodes = (
"195 401 LINE SMOOTH",
"195 401 OFFCURVE",
"207 509 OFFCURVE",
"300 509 CURVE SMOOTH",
"351 509 OFFCURVE",
"398 477 OFFCURVE",
"398 396 CURVE SMOOTH",
"398 159 LINE SMOOTH",
"398 68 OFFCURVE",
"358 22 OFFCURVE",
"295 22 CURVE SMOOTH",
"239 22 OFFCURVE",
"195 59 OFFCURVE",
"195 159 CURVE SMOOTH"
);
}
);
width = 500;
},
{
guideLines = (
{
angle = 257.9741;
position = "{156, 42}";
}
);
layerId = "63C36BCE-C2CB-4BF3-9C7E-344D74934179";
paths = (
{
closed = 1;
nodes = (
"46 -152 LINE",
"-58 -162 LINE",
"-58 -190 LINE",
"273 -190 LINE",
"273 -162 LINE",
"114 -152 LINE",
"147 3 LINE",
"165 -4 OFFCURVE",
"188 -10 OFFCURVE",
"216 -10 CURVE SMOOTH",
"384 -10 OFFCURVE",
"480 233 OFFCURVE",
"480 397 CURVE SMOOTH",
"480 491 OFFCURVE",
"447 550 OFFCURVE",
"381 550 CURVE SMOOTH",
"322 550 OFFCURVE",
"271 504 OFFCURVE",
"255 490 CURVE",
"250 490 LINE",
"306 750 LINE",
"282 750 LINE",
"233 725 LINE",
"138 712 LINE",
"133 688 LINE",
"225 688 LINE"
);
},
{
closed = 1;
nodes = (
"245 465 LINE",
"245 465 OFFCURVE",
"299 514 OFFCURVE",
"353 514 CURVE SMOOTH",
"402 514 OFFCURVE",
"429 475 OFFCURVE",
"413 400 CURVE SMOOTH",
"367 182 LINE SMOOTH",
"344 75 OFFCURVE",
"294 22 OFFCURVE",
"222 22 CURVE SMOOTH",
"178 22 OFFCURVE",
"156 42 OFFCURVE",
"156 42 CURVE"
);
},
{
closed = 1;
nodes = (
"51 414 LINE",
"51 362 LINE",
"62 362 LINE",
"198 450 LINE",
"198 470 LINE"
);
}
);
width = 500;
},
{
layerId = "3F0F5FFA-301F-4B90-BC1A-8916131A4004";
width = 600;
}
);
unicode = 00FE;
},
{
glyphname = q;
lastChange = "2020-08-16 04:12:19 +0000";
layers = (
{
layerId = "94EC0173-ED25-4379-B549-8ECC2838F2C2";
paths = (
{
closed = 1;
nodes = (
"85 98 OFFCURVE",
"134 -10 OFFCURVE",
"239 -10 CURVE SMOOTH",
"326 -10 OFFCURVE",
"362 75 OFFCURVE",
"362 75 CURVE",
"365 75 LINE",
"365 -156 LINE",
"201 -156 LINE",
"201 -190 LINE",
"532 -190 LINE",
"532 -156 LINE",
"433 -156 LINE",
"433 540 LINE",
"400 540 LINE",
"400 455 LINE",
"390 455 LINE",
"390 455 OFFCURVE",
"363 550 OFFCURVE",
"267 550 CURVE SMOOTH",
"145 550 OFFCURVE",
"85 412 OFFCURVE",
"85 251 CURVE SMOOTH"
);
},
{
closed = 1;
nodes = (
"162 381 LINE SMOOTH",
"162 472 OFFCURVE",
"202 518 OFFCURVE",
"265 518 CURVE SMOOTH",
"321 518 OFFCURVE",
"365 481 OFFCURVE",
"365 381 CURVE SMOOTH",
"365 139 LINE",
"365 139 OFFCURVE",
"353 31 OFFCURVE",
"260 31 CURVE SMOOTH",
"209 31 OFFCURVE",
"162 63 OFFCURVE",
"162 144 CURVE SMOOTH"
);
}
);
width = 500;
},
{
layerId = "3F0F5FFA-301F-4B90-BC1A-8916131A4004";
width = 600;
},
{
layerId = "63C36BCE-C2CB-4BF3-9C7E-344D74934179";
paths = (
{
closed = 1;
nodes = (
"389 517 OFFCURVE",
"406 478 OFFCURVE",
"406 478 CURVE",
"380 352 OFFCURVE",
"285 31 OFFCURVE",
"184 31 CURVE SMOOTH",
"142 31 OFFCURVE",
"125 81 OFFCURVE",
"143 144 CURVE SMOOTH",
"209 381 LINE SMOOTH",
"232 465 OFFCURVE",
"275 517 OFFCURVE",
"336 517 CURVE SMOOTH"
);
},
{
closed = 1;
nodes = (
"72 57 OFFCURVE",
"106 -9 OFFCURVE",
"167 -9 CURVE SMOOTH",
"256 -9 OFFCURVE",
"324 133 OFFCURVE",
"364 254 CURVE SMOOTH",
"382 308 LINE",
"397 308 LINE",
"331 98 LINE",
"274 -152 LINE",
"108 -152 LINE",
"108 -186 LINE",
"416 -186 LINE",
"416 -152 LINE",
"342 -152 LINE",
"491 551 LINE",
"467 551 LINE",
"419 531 LINE",
"419 531 OFFCURVE",
"397 550 OFFCURVE",
"353 550 CURVE SMOOTH",
"187 550 OFFCURVE",
"82 286 OFFCURVE",
"76 144 CURVE SMOOTH"
);
}
);
width = 500;
}
);
unicode = 0071;
},
{
glyphname = r;
lastChange = "2020-08-16 04:11:22 +0000";
layers = (
{
anchors = (
{
name = bottom;
position = "{161, 0}";
},
{
name = top;
position = "{250, 540}";
}
);
components = (
{
name = "stem-lower";
transform = "{1, 0, 0, 0.61481, -134, 0}";
},
{
name = "serif-top2";
transform = "{1, 0, 0, 1, -209, -150}";
}
);
guideLines = (
{
angle = 72.7185;
position = "{197, 377}";
}
);
layerId = "94EC0173-ED25-4379-B549-8ECC2838F2C2";
paths = (
{
closed = 1;
nodes = (
"5 34 LINE",
"5 0 LINE",
"356 0 LINE",
"356 34 LINE"
);
},
{
closed = 1;
nodes = (
"377 468 OFFCURVE",
"390 441 OFFCURVE",
"424 441 CURVE SMOOTH",
"452 441 OFFCURVE",
"465 459 OFFCURVE",
"465 484 CURVE SMOOTH",
"465 527 OFFCURVE",
"424 550 OFFCURVE",
"373 550 CURVE SMOOTH",
"292 550 OFFCURVE",
"232 481 OFFCURVE",
"201 389 CURVE SMOOTH",
"196 374 LINE",
"173 374 LINE",
"173 217 LINE",
"193 217 LINE",
"193 289 LINE",
"207 334 LINE SMOOTH",
"237 430 OFFCURVE",
"279 516 OFFCURVE",
"352 516 CURVE",
"367 487 LINE SMOOTH"
);
}
);
width = 500;
},
{
layerId = "3F0F5FFA-301F-4B90-BC1A-8916131A4004";
width = 600;
},
{
anchors = (
{
name = bottom;
position = "{100, 0}";
},
{
name = top;
position = "{307, 540}";
}
);
guideLines = (
{
angle = 72.7185;
position = "{158, 377}";
},
{
angle = 78.0814;
position = "{185, 145}";
},
{
position = "{305, 293}";
}
);
layerId = "63C36BCE-C2CB-4BF3-9C7E-344D74934179";
paths = (
{
closed = 1;
nodes = (
"235 448 LINE SMOOTH",
"255 506 OFFCURVE",
"237 550 OFFCURVE",
"183 550 CURVE SMOOTH",
"125 550 OFFCURVE",
"94 501 OFFCURVE",
"51 443 CURVE SMOOTH",
"28 412 LINE",
"45 399 LINE",
"71 434 LINE SMOOTH",
"101 474 OFFCURVE",
"119 498 OFFCURVE",
"145 498 CURVE SMOOTH",
"171 498 OFFCURVE",
"175 475 OFFCURVE",
"171 456 CURVE SMOOTH",
"74 0 LINE",
"130 0 LINE",
"181 178 LINE SMOOTH",
"238 378 OFFCURVE",
"333 516 OFFCURVE",
"401 516 CURVE",
"398 493 LINE SMOOTH",
"393 453 OFFCURVE",
"412 428 OFFCURVE",
"449 428 CURVE SMOOTH",
"486 428 OFFCURVE",
"508 455 OFFCURVE",
"508 486 CURVE SMOOTH",
"508 522 OFFCURVE",
"478 550 OFFCURVE",
"427 550 CURVE SMOOTH",
"336 550 OFFCURVE",
"264 461 OFFCURVE",
"194 288 CURVE",
"179 288 LINE"
);
}
);
width = 500;
}
);
unicode = 0072;
},
{
glyphname = s;
lastChange = "2020-08-17 02:29:24 +0000";
layers = (
{
anchors = (
{
name = bottom;
position = "{295, 0}";
},
{
name = top;
position = "{267, 540}";
}
);
layerId = "94EC0173-ED25-4379-B549-8ECC2838F2C2";
paths = (
{
closed = 1;
nodes = (
"380 -10 OFFCURVE",
"444 50 OFFCURVE",
"444 131 CURVE SMOOTH",
"444 297 OFFCURVE",
"181 314 OFFCURVE",
"181 443 CURVE SMOOTH",
"181 478 OFFCURVE",
"200 517 OFFCURVE",
"261 517 CURVE SMOOTH",
"359 517 OFFCURVE",
"388 418 OFFCURVE",
"388 349 CURVE SMOOTH",
"388 346 LINE",
"430 346 LINE",
"430 540 LINE",
"398 540 LINE",
"398 449 LINE",
"390 449 LINE",
"379 486 OFFCURVE",
"350 550 OFFCURVE",
"258 550 CURVE SMOOTH",
"174 550 OFFCURVE",
"121 496 OFFCURVE",
"121 422 CURVE SMOOTH",
"121 257 OFFCURVE",
"384 252 OFFCURVE",
"384 107 CURVE SMOOTH",
"384 57 OFFCURVE",
"352 24 OFFCURVE",
"292 24 CURVE SMOOTH",
"158 24 OFFCURVE",
"154 189 OFFCURVE",
"154 222 CURVE SMOOTH",
"154 234 LINE",
"102 234 LINE",
"102 0 LINE",
"134 0 LINE",
"134 133 LINE",
"142 133 LINE",
"142 133 OFFCURVE",
"158 -10 OFFCURVE",
"295 -10 CURVE SMOOTH"
);
}
);
width = 500;
},
{
layerId = "3F0F5FFA-301F-4B90-BC1A-8916131A4004";
paths = (
{
closed = 1;
nodes = (
"353 444 OFFCURVE",
"325 510 OFFCURVE",
"229 510 CURVE SMOOTH",
"142 510 OFFCURVE",
"86 456 OFFCURVE",
"86 381 CURVE SMOOTH",
"86 220 OFFCURVE",
"345 249 OFFCURVE",
"345 104 CURVE SMOOTH",
"345 51 OFFCURVE",
"311 13 OFFCURVE",
"246 13 CURVE SMOOTH",
"127 13 OFFCURVE",
"111 145 OFFCURVE",
"111 222 CURVE SMOOTH",
"111 234 LINE",
"66 234 LINE",
"66 0 LINE",
"89 0 LINE",
"89 130 LINE",
"96 130 LINE",
"106 79 OFFCURVE",
"138 -10 OFFCURVE",
"252 -10 CURVE SMOOTH",
"346 -10 OFFCURVE",
"413 51 OFFCURVE",
"413 133 CURVE SMOOTH",
"413 296 OFFCURVE",
"154 273 OFFCURVE",
"154 406 CURVE SMOOTH",
"154 446 OFFCURVE",
"177 487 OFFCURVE",
"238 487 CURVE SMOOTH",
"352 487 OFFCURVE",
"352 345 OFFCURVE",
"352 312 CURVE SMOOTH",
"352 306 LINE",
"390 306 LINE",
"390 500 LINE",
"370 500 LINE",
"370 409 LINE",
"363 409 LINE"
);
}
);
width = 600;
},
{
anchors = (
{
name = bottom;
position = "{221, 0}";
},
{
name = top;
position = "{345, 540}";
}
);
layerId = "63C36BCE-C2CB-4BF3-9C7E-344D74934179";
paths = (
{
closed = 1;
nodes = (
"114 -10 OFFCURVE",
"57 30 OFFCURVE",
"57 84 CURVE SMOOTH",
"57 117 OFFCURVE",
"78 134 OFFCURVE",
"105 134 CURVE SMOOTH",
"148 134 OFFCURVE",
"157 94 OFFCURVE",
"162 68 CURVE SMOOTH",
"170 25 LINE",
"170 25 OFFCURVE",
"185 19 OFFCURVE",
"218 19 CURVE SMOOTH",
"311 19 OFFCURVE",
"357 67 OFFCURVE",
"357 125 CURVE SMOOTH",
"357 245 OFFCURVE",
"156 262 OFFCURVE",
"156 400 CURVE SMOOTH",
"156 481 OFFCURVE",
"223 550 OFFCURVE",
"345 550 CURVE SMOOTH",
"433 550 OFFCURVE",
"481 514 OFFCURVE",
"481 472 CURVE SMOOTH",
"481 447 OFFCURVE",
"464 428 OFFCURVE",
"438 428 CURVE SMOOTH",
"405 428 OFFCURVE",
"393 460 OFFCURVE",
"385 490 CURVE SMOOTH",
"378 515 LINE",
"378 515 OFFCURVE",
"365 521 OFFCURVE",
"335 521 CURVE SMOOTH",
"254 521 OFFCURVE",
"217 476 OFFCURVE",
"217 430 CURVE SMOOTH",
"217 322 OFFCURVE",
"418 289 OFFCURVE",
"418 156 CURVE SMOOTH",
"418 89 OFFCURVE",
"368 -10 OFFCURVE",
"213 -10 CURVE SMOOTH"
);
}
);
width = 500;
}
);
unicode = 0073;
},
{
glyphname = germandbls;
lastChange = "2020-08-17 02:30:08 +0000";
layers = (
{
layerId = "94EC0173-ED25-4379-B549-8ECC2838F2C2";
paths = (
{
closed = 1;
nodes = (
"200 0 LINE",
"200 585 LINE SMOOTH",
"200 700 OFFCURVE",
"253 747 OFFCURVE",
"319 747 CURVE SMOOTH",
"381 747 OFFCURVE",
"414 706 OFFCURVE",
"414 652 CURVE SMOOTH",
"414 533 OFFCURVE",
"260 529 OFFCURVE",
"260 411 CURVE SMOOTH",
"260 267 OFFCURVE",
"489 251 OFFCURVE",
"489 108 CURVE SMOOTH",
"489 56 OFFCURVE",
"459 24 OFFCURVE",
"403 24 CURVE SMOOTH",
"348 24 OFFCURVE",
"313 55 OFFCURVE",
"313 122 CURVE SMOOTH",
"313 144 LINE",
"265 144 LINE",
"265 0 LINE",
"293 0 LINE",
"293 58 LINE",
"301 58 LINE",
"301 58 OFFCURVE",
"321 -10 OFFCURVE",
"409 -10 CURVE SMOOTH",
"487 -10 OFFCURVE",
"549 43 OFFCURVE",
"549 128 CURVE SMOOTH",
"549 290 OFFCURVE",
"320 301 OFFCURVE",
"320 437 CURVE SMOOTH",
"320 552 OFFCURVE",
"485 542 OFFCURVE",
"485 654 CURVE SMOOTH",
"485 705 OFFCURVE",
"451 773 OFFCURVE",
"329 773 CURVE SMOOTH",
"190 773 OFFCURVE",
"132 685 OFFCURVE",
"132 565 CURVE SMOOTH",
"132 540 LINE",
"38 530 LINE",
"38 508 LINE",
"132 508 LINE",
"132 38 LINE",
"15 28 LINE",
"15 0 LINE"
);
}
);
width = 500;
},
{
layerId = "63C36BCE-C2CB-4BF3-9C7E-344D74934179";
paths = (
{
closed = 1;
nodes = (
"-200 -80 OFFCURVE",
"-181 -60 OFFCURVE",
"-153 -60 CURVE SMOOTH",
"-114 -60 OFFCURVE",
"-99 -101 OFFCURVE",
"-95 -128 CURVE SMOOTH",
"-91 -158 LINE",
"-91 -158 OFFCURVE",
"-85 -161 OFFCURVE",
"-71 -161 CURVE SMOOTH",
"0 -161 OFFCURVE",
"13 -81 OFFCURVE",
"39 43 CURVE SMOOTH",
"137 508 LINE",
"41 508 LINE",
"46 530 LINE",
"144 540 LINE",
"172 671 OFFCURVE",
"232 773 OFFCURVE",
"369 773 CURVE SMOOTH",
"464 773 OFFCURVE",
"517 724 OFFCURVE",
"517 659 CURVE SMOOTH",
"517 542 OFFCURVE",
"348 549 OFFCURVE",
"348 427 CURVE SMOOTH",
"348 322 OFFCURVE",
"471 286 OFFCURVE",
"471 163 CURVE SMOOTH",
"471 81 OFFCURVE",
"417 -10 OFFCURVE",
"297 -10 CURVE SMOOTH",
"221 -10 OFFCURVE",
"160 27 OFFCURVE",
"160 84 CURVE SMOOTH",
"160 117 OFFCURVE",
"181 134 OFFCURVE",
"209 134 CURVE SMOOTH",
"253 134 OFFCURVE",
"261 93 OFFCURVE",
"265 68 CURVE SMOOTH",
"273 22 LINE",
"273 22 OFFCURVE",
"290 19 OFFCURVE",
"306 19 CURVE SMOOTH",
"363 19 OFFCURVE",
"412 55 OFFCURVE",
"412 131 CURVE SMOOTH",
"412 251 OFFCURVE",
"289 270 OFFCURVE",
"289 390 CURVE SMOOTH",
"289 530 OFFCURVE",
"456 541 OFFCURVE",
"456 658 CURVE SMOOTH",
"456 710 OFFCURVE",
"423 744 OFFCURVE",
"364 744 CURVE SMOOTH",
"249 744 OFFCURVE",
"227 614 OFFCURVE",
"211 540 CURVE SMOOTH",
"106 43 LINE SMOOTH",
"93 -19 OFFCURVE",
"56 -190 OFFCURVE",
"-84 -190 CURVE SMOOTH",
"-137 -190 OFFCURVE",
"-200 -166 OFFCURVE",
"-200 -110 CURVE SMOOTH"
);
}
);
width = 500;
},
{
layerId = "3F0F5FFA-301F-4B90-BC1A-8916131A4004";
width = 600;
}
);
unicode = 00DF;
},
{
glyphname = t;
lastChange = "2020-08-17 02:36:58 +0000";
layers = (
{
anchors = (
{
name = bottom;
position = "{305, 0}";
},
{
name = center;
position = "{250, 270}";
},
{
name = top;
position = "{260, 540}";
},
{
name = topright;
position = "{480, 540}";
}
);
layerId = "94EC0173-ED25-4379-B549-8ECC2838F2C2";
paths = (
{
closed = 1;
nodes = (
"433 -10 OFFCURVE",
"462 106 OFFCURVE",
"462 182 CURVE SMOOTH",
"462 208 LINE",
"432 208 LINE",
"432 182 LINE SMOOTH",
"432 102 OFFCURVE",
"400 31 OFFCURVE",
"312 31 CURVE SMOOTH",
"238 31 OFFCURVE",
"201 83 OFFCURVE",
"201 175 CURVE SMOOTH",
"201 508 LINE",
"462 508 LINE",
"462 540 LINE",
"201 540 LINE",
"201 647 LINE",
"178 647 LINE",
"133 540 LINE",
"19 540 LINE",
"19 508 LINE",
"133 508 LINE",
"133 170 LINE SMOOTH",
"133 51 OFFCURVE",
"200 -10 OFFCURVE",
"297 -10 CURVE SMOOTH"
);
}
);
width = 500;
},
{
layerId = "3F0F5FFA-301F-4B90-BC1A-8916131A4004";
width = 600;
},
{
anchors = (
{
name = bottom;
position = "{203, 0}";
},
{
name = center;
position = "{250, 270}";
},
{
name = top;
position = "{317, 540}";
},
{
name = topright;
position = "{537, 540}";
}
);
guideLines = (
{
angle = 77.964;
position = "{222, 342}";
},
{
angle = 258.0876;
position = "{151, 326}";
}
);
layerId = "63C36BCE-C2CB-4BF3-9C7E-344D74934179";
paths = (
{
closed = 1;
nodes = (
"295 -10 OFFCURVE",
"342 52 OFFCURVE",
"398 129 CURVE SMOOTH",
"420 159 LINE",
"401 173 LINE",
"379 144 LINE SMOOTH",
"345 99 OFFCURVE",
"302 40 OFFCURVE",
"239 40 CURVE SMOOTH",
"186 40 OFFCURVE",
"167 82 OFFCURVE",
"180 143 CURVE SMOOTH",
"257 508 LINE",
"471 508 LINE",
"481 540 LINE",
"264 540 LINE",
"287 647 LINE",
"212 647 LINE",
"196 540 LINE",
"59 540 LINE",
"49 508 LINE",
"189 508 LINE",
"112 143 LINE SMOOTH",
"93 52 OFFCURVE",
"124 -10 OFFCURVE",
"210 -10 CURVE SMOOTH"
);
}
);
width = 500;
}
);
unicode = 0074;
},
{
glyphname = u;
lastChange = "2020-08-16 10:07:59 +0000";
layers = (
{
anchors = (
{
name = bottom;
position = "{250, 0}";
},
{
name = ogonek;
position = "{347, -3}";
},
{
name = top;
position = "{250, 540}";
},
{
name = topright;
position = "{401, 493}";
}
);
components = (
{
alignment = -1;
name = "serif-top2";
transform = "{1, 0, 0, 1, 1, -150}";
},
{
alignment = -1;
name = "serif-top-5";
transform = "{-1, 0, 0, -1, 737, 690}";
},
{
alignment = -1;
name = "serif-top2";
transform = "{1, 0, 0, 1, -236, -150}";
}
);
layerId = "94EC0173-ED25-4379-B549-8ECC2838F2C2";
paths = (
{
closed = 1;
nodes = (
"335 405 LINE",
"335 129 LINE SMOOTH",
"335 129 OFFCURVE",
"314 36 OFFCURVE",
"235 36 CURVE SMOOTH",
"189 36 OFFCURVE",
"166 64 OFFCURVE",
"166 121 CURVE SMOOTH",
"166 405 LINE",
"98 405 LINE",
"98 119 LINE SMOOTH",
"98 30 OFFCURVE",
"145 -10 OFFCURVE",
"209 -10 CURVE SMOOTH",
"300 -10 OFFCURVE",
"332 85 OFFCURVE",
"332 85 CURVE",
"335 85 LINE",
"335 34 LINE",
"403 34 LINE",
"403 405 LINE"
);
}
);
width = 500;
},
{
layerId = "3F0F5FFA-301F-4B90-BC1A-8916131A4004";
width = 600;
},
{
anchors = (
{
name = bottom;
position = "{193, 0}";
},
{
name = ogonek;
position = "{294, 0}";
},
{
name = top;
position = "{286, 540}";
},
{
name = topright;
position = "{440, 487}";
}
);
layerId = "63C36BCE-C2CB-4BF3-9C7E-344D74934179";
paths = (
{
closed = 1;
nodes = (
"253 523 OFFCURVE",
"220 550 OFFCURVE",
"183 550 CURVE SMOOTH",
"136 550 OFFCURVE",
"104 501 OFFCURVE",
"61 443 CURVE SMOOTH",
"38 412 LINE",
"55 399 LINE",
"81 434 LINE SMOOTH",
"111 474 OFFCURVE",
"126 498 OFFCURVE",
"151 498 CURVE SMOOTH",
"178 498 OFFCURVE",
"171 472 OFFCURVE",
"166 456 CURVE SMOOTH",
"63 147 LINE SMOOTH",
"31 52 OFFCURVE",
"59 -10 OFFCURVE",
"126 -10 CURVE SMOOTH",
"234 -10 OFFCURVE",
"298 142 OFFCURVE",
"332 247 CURVE",
"347 247 LINE",
"291 77 LINE SMOOTH",
"271 17 OFFCURVE",
"303 -10 OFFCURVE",
"339 -10 CURVE SMOOTH",
"386 -10 OFFCURVE",
"417 39 OFFCURVE",
"460 97 CURVE SMOOTH",
"483 128 LINE",
"466 141 LINE",
"440 106 LINE SMOOTH",
"410 66 OFFCURVE",
"393 42 OFFCURVE",
"372 42 CURVE SMOOTH",
"351 42 OFFCURVE",
"356 65 OFFCURVE",
"360 84 CURVE SMOOTH",
"457 540 LINE",
"388 540 LINE",
"311 176 OFFCURVE",
"241 43 OFFCURVE",
"159 43 CURVE SMOOTH",
"117 43 OFFCURVE",
"106 78 OFFCURVE",
"125 136 CURVE SMOOTH",
"233 463 LINE SMOOTH"
);
}
);
width = 500;
}
);
unicode = 0075;
},
{
glyphname = v;
lastChange = "2020-08-16 01:54:47 +0000";
layers = (
{
layerId = "94EC0173-ED25-4379-B549-8ECC2838F2C2";
paths = (
{
closed = 1;
nodes = (
"56 506 LINE",
"226 0 LINE",
"266 0 LINE",
"435 506 LINE",
"502 506 LINE",
"502 540 LINE",
"334 540 LINE",
"334 506 LINE",
"403 506 LINE",
"264 89 LINE",
"125 506 LINE",
"225 506 LINE",
"225 540 LINE",
"-21 540 LINE",
"-21 506 LINE"
);
}
);
width = 500;
},
{
layerId = "3F0F5FFA-301F-4B90-BC1A-8916131A4004";
width = 600;
},
{
guideLines = (
{
angle = 71.3854;
position = "{223, 484}";
}
);
layerId = "63C36BCE-C2CB-4BF3-9C7E-344D74934179";
paths = (
{
closed = 1;
nodes = (
"483 550 OFFCURVE",
"496 492 OFFCURVE",
"496 415 CURVE SMOOTH",
"496 194 OFFCURVE",
"394 -10 OFFCURVE",
"214 -10 CURVE SMOOTH",
"124 -10 OFFCURVE",
"80 41 OFFCURVE",
"80 116 CURVE SMOOTH",
"80 233 OFFCURVE",
"185 342 OFFCURVE",
"239 399 CURVE SMOOTH",
"306 470 LINE",
"261 470 OFFCURVE",
"209 499 OFFCURVE",
"143 499 CURVE SMOOTH",
"89 499 OFFCURVE",
"87 480 OFFCURVE",
"87 480 CURVE",
"112 475 LINE SMOOTH",
"140 469 OFFCURVE",
"148 455 OFFCURVE",
"148 437 CURVE SMOOTH",
"148 377 OFFCURVE",
"59 380 OFFCURVE",
"59 441 CURVE SMOOTH",
"59 479 OFFCURVE",
"95 550 OFFCURVE",
"169 550 CURVE SMOOTH",
"241 550 OFFCURVE",
"266 484 OFFCURVE",
"300 484 CURVE SMOOTH",
"302 484 LINE",
"296 540 LINE",
"364 540 LINE",
"276 408 LINE SMOOTH",
"218 321 OFFCURVE",
"156 232 OFFCURVE",
"156 134 CURVE SMOOTH",
"156 63 OFFCURVE",
"191 27 OFFCURVE",
"247 27 CURVE SMOOTH",
"371 27 OFFCURVE",
"459 198 OFFCURVE",
"459 336 CURVE SMOOTH",
"459 454 OFFCURVE",
"395 448 OFFCURVE",
"395 503 CURVE SMOOTH",
"395 538 OFFCURVE",
"421 550 OFFCURVE",
"440 550 CURVE SMOOTH"
);
}
);
width = 500;
}
);
unicode = 0076;
},
{
glyphname = w;
lastChange = "2020-09-01 17:06:45 +0000";
layers = (
{
anchors = (
{
name = bottom;
position = "{253, 0}";
},
{
name = top;
position = "{283, 540}";
}
);
guideLines = (
{
angle = -80.2788;
position = "{142, 502}";
},
{
angle = 80.3192;
position = "{260, 502}";
}
);
layerId = "94EC0173-ED25-4379-B549-8ECC2838F2C2";
paths = (
{
closed = 1;
nodes = (
"84 506 LINE",
"170 0 LINE",
"205 0 LINE",
"263 340 LINE",
"326 0 LINE",
"357 0 LINE",
"443 506 LINE",
"479 506 LINE",
"479 540 LINE",
"366 540 LINE",
"366 506 LINE",
"416 506 LINE",
"357 156 LINE",
"298 506 LINE",
"334 506 LINE",
"334 540 LINE",
"224 540 LINE",
"224 506 LINE",
"264 506 LINE",
"205 156 LINE",
"146 506 LINE",
"197 506 LINE",
"197 540 LINE",
"27 540 LINE",
"27 506 LINE"
);
}
);
width = 500;
},
{
layerId = "3F0F5FFA-301F-4B90-BC1A-8916131A4004";
width = 600;
},
{
anchors = (
{
name = bottom;
position = "{193, 0}";
},
{
name = top;
position = "{347, 540}";
}
);
layerId = "63C36BCE-C2CB-4BF3-9C7E-344D74934179";
paths = (
{
closed = 1;
nodes = (
"240 59 OFFCURVE",
"250 -10 OFFCURVE",
"308 -10 CURVE SMOOTH",
"405 -10 OFFCURVE",
"481 185 OFFCURVE",
"481 399 CURVE SMOOTH",
"481 502 OFFCURVE",
"464 549 OFFCURVE",
"423 549 CURVE SMOOTH",
"397 549 OFFCURVE",
"380 529 OFFCURVE",
"380 504 CURVE SMOOTH",
"380 483 OFFCURVE",
"392 467 OFFCURVE",
"398 459 CURVE SMOOTH",
"414 439 OFFCURVE",
"448 418 OFFCURVE",
"448 334 CURVE SMOOTH",
"448 223 OFFCURVE",
"388 45 OFFCURVE",
"312 45 CURVE SMOOTH",
"261 45 OFFCURVE",
"261 124 OFFCURVE",
"261 146 CURVE SMOOTH",
"261 169 LINE",
"261 169 OFFCURVE",
"320 270 OFFCURVE",
"320 346 CURVE SMOOTH",
"320 375 OFFCURVE",
"311 384 OFFCURVE",
"298 384 CURVE SMOOTH",
"235 384 OFFCURVE",
"236 171 OFFCURVE",
"236 171 CURVE",
"224 142 LINE SMOOTH",
"215 120 OFFCURVE",
"185 47 OFFCURVE",
"126 47 CURVE SMOOTH",
"94 47 OFFCURVE",
"78 69 OFFCURVE",
"78 114 CURVE SMOOTH",
"78 199 OFFCURVE",
"135 312 OFFCURVE",
"199 408 CURVE SMOOTH",
"287 540 LINE",
"219 540 LINE",
"225 484 LINE",
"223 484 LINE SMOOTH",
"207 484 OFFCURVE",
"207 550 OFFCURVE",
"147 550 CURVE SMOOTH",
"88 550 OFFCURVE",
"41 489 OFFCURVE",
"41 441 CURVE SMOOTH",
"41 406 OFFCURVE",
"67 393 OFFCURVE",
"84 393 CURVE SMOOTH",
"105 393 OFFCURVE",
"130 409 OFFCURVE",
"130 438 CURVE SMOOTH",
"130 468 OFFCURVE",
"102 474 OFFCURVE",
"95 475 CURVE SMOOTH",
"70 480 LINE",
"70 480 OFFCURVE",
"77 499 OFFCURVE",
"109 499 CURVE SMOOTH",
"149 499 OFFCURVE",
"191 470 OFFCURVE",
"229 470 CURVE",
"183 423 LINE SMOOTH",
"85 323 OFFCURVE",
"13 196 OFFCURVE",
"13 90 CURVE SMOOTH",
"13 22 OFFCURVE",
"43 -10 OFFCURVE",
"93 -10 CURVE SMOOTH",
"171 -10 OFFCURVE",
"215 69 OFFCURVE",
"229 104 CURVE",
"240 104 LINE"
);
}
);
width = 500;
}
);
unicode = 0077;
},
{
glyphname = x;
lastChange = "2020-08-17 02:51:08 +0000";
layers = (
{
layerId = "94EC0173-ED25-4379-B549-8ECC2838F2C2";
paths = (
{
closed = 1;
nodes = (
"101 34 LINE",
"30 34 LINE",
"30 0 LINE",
"193 0 LINE",
"193 34 LINE",
"133 34 LINE",
"259 284 LINE",
"227 284 LINE"
);
},
{
closed = 1;
nodes = (
"97 506 LINE",
"336 34 LINE",
"259 34 LINE",
"259 0 LINE",
"476 0 LINE",
"476 34 LINE",
"405 34 LINE",
"166 506 LINE",
"236 506 LINE",
"236 540 LINE",
"26 540 LINE",
"26 506 LINE"
);
},
{
closed = 1;
nodes = (
"381 506 LINE",
"452 506 LINE",
"452 540 LINE",
"294 540 LINE",
"294 506 LINE",
"349 506 LINE",
"237 284 LINE",
"269 284 LINE"
);
}
);
width = 500;
},
{
layerId = "3F0F5FFA-301F-4B90-BC1A-8916131A4004";
width = 600;
},
{
layerId = "63C36BCE-C2CB-4BF3-9C7E-344D74934179";
paths = (
{
closed = 1;
nodes = (
"408 -10 OFFCURVE",
"423 54 OFFCURVE",
"439 97 CURVE SMOOTH",
"456 144 LINE",
"432 151 LINE",
"416 106 LINE SMOOTH",
"409 86 OFFCURVE",
"390 42 OFFCURVE",
"362 42 CURVE SMOOTH",
"331 42 OFFCURVE",
"322 89 OFFCURVE",
"317 119 CURVE SMOOTH",
"268 425 LINE SMOOTH",
"262 463 OFFCURVE",
"246 550 OFFCURVE",
"180 550 CURVE SMOOTH",
"118 550 OFFCURVE",
"93 477 OFFCURVE",
"81 443 CURVE SMOOTH",
"65 397 LINE",
"89 389 LINE",
"105 434 LINE SMOOTH",
"113 456 OFFCURVE",
"128 498 OFFCURVE",
"157 498 CURVE SMOOTH",
"189 498 OFFCURVE",
"198 445 OFFCURVE",
"202 421 CURVE SMOOTH",
"251 115 LINE SMOOTH",
"256 85 OFFCURVE",
"271 -10 OFFCURVE",
"346 -10 CURVE SMOOTH"
);
},
{
closed = 1;
nodes = (
"144 -10 OFFCURVE",
"189 95 OFFCURVE",
"246 223 CURVE SMOOTH",
"276 290 LINE",
"255 300 LINE",
"224 233 LINE SMOOTH",
"163 101 OFFCURVE",
"127 26 OFFCURVE",
"94 22 CURVE",
"97 38 LINE SMOOTH",
"103 71 OFFCURVE",
"92 94 OFFCURVE",
"61 94 CURVE SMOOTH",
"27 94 OFFCURVE",
"10 67 OFFCURVE",
"10 41 CURVE SMOOTH",
"10 11 OFFCURVE",
"32 -10 OFFCURVE",
"67 -10 CURVE SMOOTH"
);
},
{
closed = 1;
nodes = (
"291 308 LINE SMOOTH",
"352 440 OFFCURVE",
"388 515 OFFCURVE",
"421 519 CURVE",
"418 503 LINE SMOOTH",
"412 470 OFFCURVE",
"423 447 OFFCURVE",
"454 447 CURVE SMOOTH",
"488 447 OFFCURVE",
"505 474 OFFCURVE",
"505 500 CURVE SMOOTH",
"505 530 OFFCURVE",
"483 551 OFFCURVE",
"448 551 CURVE SMOOTH",
"371 551 OFFCURVE",
"326 446 OFFCURVE",
"269 318 CURVE SMOOTH",
"239 251 LINE",
"260 241 LINE"
);
}
);
width = 500;
}
);
unicode = 0078;
},
{
glyphname = y;
lastChange = "2020-08-16 03:27:18 +0000";
layers = (
{
anchors = (
{
name = bottom;
position = "{375, 0}";
},
{
name = top;
position = "{277, 540}";
}
);
guideLines = (
{
angle = 251.565;
position = "{396, 502}";
},
{
angle = 108.9746;
position = "{71, 502}";
},
{
angle = 251.565;
position = "{428, 502}";
}
);
layerId = "94EC0173-ED25-4379-B549-8ECC2838F2C2";
paths = (
{
closed = 1;
nodes = (
"-37 -162 OFFCURVE",
"7 -190 OFFCURVE",
"73 -190 CURVE SMOOTH",
"201 -190 OFFCURVE",
"253 -85 OFFCURVE",
"287 18 CURVE SMOOTH",
"448 506 LINE",
"515 506 LINE",
"515 540 LINE",
"347 540 LINE",
"347 506 LINE",
"416 506 LINE",
"289 121 LINE",
"158 506 LINE",
"258 506 LINE",
"258 540 LINE",
"12 540 LINE",
"12 506 LINE",
"91 506 LINE",
"256 22 LINE",
"211 -112 OFFCURVE",
"152 -165 OFFCURVE",
"81 -159 CURVE",
"75 -137 LINE SMOOTH",
"68 -110 OFFCURVE",
"58 -68 OFFCURVE",
"15 -68 CURVE SMOOTH",
"-19 -68 OFFCURVE",
"-37 -92 OFFCURVE",
"-37 -119 CURVE SMOOTH"
);
}
);
width = 500;
},
{
layerId = "3F0F5FFA-301F-4B90-BC1A-8916131A4004";
width = 600;
},
{
anchors = (
{
name = bottom;
position = "{342, 0}";
},
{
name = top;
position = "{300, 540}";
}
);
guideLines = (
{
angle = 233.427;
position = "{126, 507}";
}
);
layerId = "63C36BCE-C2CB-4BF3-9C7E-344D74934179";
paths = (
{
closed = 1;
nodes = (
"-152 -158 OFFCURVE",
"-120 -190 OFFCURVE",
"-50 -190 CURVE SMOOTH",
"206 -190 OFFCURVE",
"455 232 OFFCURVE",
"455 460 CURVE SMOOTH",
"455 525 OFFCURVE",
"435 550 OFFCURVE",
"404 550 CURVE SMOOTH",
"376 550 OFFCURVE",
"356 530 OFFCURVE",
"356 496 CURVE SMOOTH",
"356 448 OFFCURVE",
"397 431 OFFCURVE",
"397 362 CURVE SMOOTH",
"397 254 OFFCURVE",
"300 64 OFFCURVE",
"183 -52 CURVE",
"183 -52 OFFCURVE",
"254 73 OFFCURVE",
"254 298 CURVE SMOOTH",
"254 477 OFFCURVE",
"209 550 OFFCURVE",
"142 550 CURVE SMOOTH",
"96 550 OFFCURVE",
"65 516 OFFCURVE",
"32 476 CURVE SMOOTH",
"11 451 LINE",
"24 439 LINE",
"45 462 LINE SMOOTH",
"74 494 OFFCURVE",
"89 507 OFFCURVE",
"109 507 CURVE SMOOTH",
"154 507 OFFCURVE",
"190 444 OFFCURVE",
"190 272 CURVE SMOOTH",
"190 12 OFFCURVE",
"108 -166 OFFCURVE",
"-45 -166 CURVE",
"-43 -137 LINE SMOOTH",
"-41 -102 OFFCURVE",
"-51 -61 OFFCURVE",
"-96 -61 CURVE SMOOTH",
"-130 -61 OFFCURVE",
"-152 -86 OFFCURVE",
"-152 -119 CURVE SMOOTH"
);
}
);
width = 500;
}
);
unicode = 0079;
},
{
glyphname = z;
lastChange = "2020-08-15 08:30:52 +0000";
layers = (
{
anchors = (
{
name = bottom;
position = "{250, 0}";
},
{
name = center;
position = "{250, 270}";
},
{
name = top;
position = "{280, 540}";
}
);
layerId = "94EC0173-ED25-4379-B549-8ECC2838F2C2";
paths = (
{
closed = 1;
nodes = (
"433 540 LINE",
"85 540 LINE",
"85 316 LINE",
"113 316 LINE",
"127 436 LINE SMOOTH",
"133 484 OFFCURVE",
"162 508 OFFCURVE",
"210 508 CURVE SMOOTH",
"395 508 LINE"
);
},
{
closed = 1;
nodes = (
"61 20 LINE",
"61 0 LINE",
"119 0 LINE",
"457 520 LINE",
"457 540 LINE",
"399 540 LINE"
);
},
{
closed = 1;
nodes = (
"79 0 LINE",
"452 0 LINE",
"452 224 LINE",
"424 224 LINE",
"410 104 LINE SMOOTH",
"404 56 OFFCURVE",
"375 32 OFFCURVE",
"327 32 CURVE SMOOTH",
"79 32 LINE"
);
}
);
width = 500;
},
{
layerId = "3F0F5FFA-301F-4B90-BC1A-8916131A4004";
width = 600;
},
{
anchors = (
{
name = bottom;
position = "{193, 0}";
},
{
name = center;
position = "{250, 270}";
},
{
name = top;
position = "{307, 540}";
}
);
guideLines = (
{
angle = 228.5006;
position = "{422, 506}";
}
);
layerId = "63C36BCE-C2CB-4BF3-9C7E-344D74934179";
paths = (
{
closed = 1;
nodes = (
"2 32 OFFCURVE",
"5 -11 OFFCURVE",
"45 -11 CURVE SMOOTH",
"83 -11 OFFCURVE",
"83 27 OFFCURVE",
"83 36 CURVE SMOOTH",
"83 58 LINE SMOOTH",
"83 64 OFFCURVE",
"83 78 OFFCURVE",
"102 78 CURVE SMOOTH",
"147 78 OFFCURVE",
"229 -11 OFFCURVE",
"316 -11 CURVE SMOOTH",
"399 -11 OFFCURVE",
"427 70 OFFCURVE",
"427 106 CURVE SMOOTH",
"427 170 OFFCURVE",
"338 171 OFFCURVE",
"338 113 CURVE SMOOTH",
"338 85 OFFCURVE",
"359 77 OFFCURVE",
"375 74 CURVE SMOOTH",
"400 69 LINE",
"400 69 OFFCURVE",
"398 50 OFFCURVE",
"350 50 CURVE SMOOTH",
"271 50 OFFCURVE",
"204 102 OFFCURVE",
"144 102 CURVE SMOOTH",
"113 102 OFFCURVE",
"99 88 OFFCURVE",
"99 88 CURVE",
"93 92 LINE",
"467 472 LINE SMOOTH",
"503 509 OFFCURVE",
"496 550 OFFCURVE",
"458 550 CURVE SMOOTH",
"421 550 OFFCURVE",
"421 512 OFFCURVE",
"421 503 CURVE SMOOTH",
"421 481 LINE SMOOTH",
"421 475 OFFCURVE",
"421 461 OFFCURVE",
"402 461 CURVE SMOOTH",
"357 461 OFFCURVE",
"295 550 OFFCURVE",
"208 550 CURVE SMOOTH",
"125 550 OFFCURVE",
"97 469 OFFCURVE",
"97 433 CURVE SMOOTH",
"97 369 OFFCURVE",
"186 368 OFFCURVE",
"186 426 CURVE SMOOTH",
"186 454 OFFCURVE",
"165 462 OFFCURVE",
"149 465 CURVE SMOOTH",
"124 470 LINE",
"124 470 OFFCURVE",
"126 489 OFFCURVE",
"174 489 CURVE SMOOTH",
"253 489 OFFCURVE",
"300 437 OFFCURVE",
"360 437 CURVE SMOOTH",
"391 437 OFFCURVE",
"405 451 OFFCURVE",
"405 451 CURVE",
"411 447 LINE",
"28 58 LINE SMOOTH"
);
}
);
width = 500;
}
);
unicode = 007A;
},
{
glyphname = c.001;
layers = (
{
anchors = (
{
name = bottom;
position = "{283, 0}";
},
{
name = top;
position = "{250, 540}";
}
);
layerId = "94EC0173-ED25-4379-B549-8ECC2838F2C2";
paths = (
{
closed = 1;
nodes = (
"370 -10 OFFCURVE",
"440 60 OFFCURVE",
"440 168 CURVE SMOOTH",
"440 193 LINE",
"408 193 LINE",
"408 168 LINE SMOOTH",
"408 47 OFFCURVE",
"330 25 OFFCURVE",
"279 25 CURVE SMOOTH",
"190 25 OFFCURVE",
"142 95 OFFCURVE",
"142 220 CURVE SMOOTH",
"142 320 LINE SMOOTH",
"142 443 OFFCURVE",
"196 518 OFFCURVE",
"290 518 CURVE SMOOTH",
"359 518 OFFCURVE",
"391 478 OFFCURVE",
"391 478 CURVE",
"367 437 OFFCURVE",
"343 419 OFFCURVE",
"343 392 CURVE SMOOTH",
"343 367 OFFCURVE",
"364 352 OFFCURVE",
"386 352 CURVE SMOOTH",
"412 352 OFFCURVE",
"441 372 OFFCURVE",
"441 419 CURVE SMOOTH",
"441 493 OFFCURVE",
"371 550 OFFCURVE",
"283 550 CURVE SMOOTH",
"155 550 OFFCURVE",
"68 428 OFFCURVE",
"68 263 CURVE SMOOTH",
"68 114 OFFCURVE",
"139 -10 OFFCURVE",
"271 -10 CURVE SMOOTH"
);
}
);
width = 500;
},
{
layerId = "3F0F5FFA-301F-4B90-BC1A-8916131A4004";
width = 600;
},
{
anchors = (
{
name = bottom;
position = "{235, 0}";
},
{
name = top;
position = "{297, 540}";
}
);
layerId = "63C36BCE-C2CB-4BF3-9C7E-344D74934179";
paths = (
{
closed = 1;
nodes = (
"266 519 OFFCURVE",
"195 443 OFFCURVE",
"169 320 CURVE SMOOTH",
"148 220 LINE SMOOTH",
"122 95 OFFCURVE",
"160 25 OFFCURVE",
"235 25 CURVE SMOOTH",
"331 25 OFFCURVE",
"375 128 OFFCURVE",
"388 163 CURVE SMOOTH",
"403 204 LINE",
"428 196 LINE",
"416 163 LINE SMOOTH",
"374 48 OFFCURVE",
"302 -10 OFFCURVE",
"220 -10 CURVE SMOOTH",
"126 -10 OFFCURVE",
"73 67 OFFCURVE",
"73 185 CURVE SMOOTH",
"73 363 OFFCURVE",
"192 550 OFFCURVE",
"355 550 CURVE SMOOTH",
"424 550 OFFCURVE",
"485 516 OFFCURVE",
"485 468 CURVE SMOOTH",
"485 441 OFFCURVE",
"466 420 OFFCURVE",
"436 420 CURVE SMOOTH",
"404 420 OFFCURVE",
"383 444 OFFCURVE",
"377 488 CURVE SMOOTH",
"373 516 LINE",
"373 516 OFFCURVE",
"363 519 OFFCURVE",
"347 519 CURVE SMOOTH"
);
}
);
width = 500;
}
);
},
{
glyphname = e.001;
layers = (
{
anchors = (
{
name = bottom;
position = "{250, 0}";
},
{
name = ogonek;
position = "{308, 0}";
},
{
name = top;
position = "{269, 540}";
}
);
guideLines = (
{
angle = 90;
position = "{260, 233}";
}
);
layerId = "94EC0173-ED25-4379-B549-8ECC2838F2C2";
paths = (
{
closed = 1;
nodes = (
"190 25 OFFCURVE",
"135 95 OFFCURVE",
"135 220 CURVE SMOOTH",
"135 320 LINE SMOOTH",
"135 432 OFFCURVE",
"183 518 OFFCURVE",
"270 518 CURVE SMOOTH",
"334 518 OFFCURVE",
"382 472 OFFCURVE",
"382 390 CURVE SMOOTH",
"382 330 OFFCURVE",
"356 330 OFFCURVE",
"335 330 CURVE SMOOTH",
"107 330 LINE",
"107 304 LINE",
"446 304 LINE",
"446 304 OFFCURVE",
"448 322 OFFCURVE",
"448 345 CURVE SMOOTH",
"448 474 OFFCURVE",
"377 550 OFFCURVE",
"272 550 CURVE SMOOTH",
"128 550 OFFCURVE",
"61 408 OFFCURVE",
"61 268 CURVE SMOOTH",
"61 119 OFFCURVE",
"137 -10 OFFCURVE",
"272 -10 CURVE SMOOTH",
"371 -10 OFFCURVE",
"441 60 OFFCURVE",
"441 168 CURVE SMOOTH",
"441 193 LINE",
"409 193 LINE",
"409 168 LINE SMOOTH",
"409 47 OFFCURVE",
"331 25 OFFCURVE",
"280 25 CURVE SMOOTH"
);
}
);
width = 500;
},
{
layerId = "3F0F5FFA-301F-4B90-BC1A-8916131A4004";
paths = (
{
closed = 1;
nodes = (
"169 25 OFFCURVE",
"123 95 OFFCURVE",
"123 220 CURVE SMOOTH",
"123 320 LINE SMOOTH",
"123 444 OFFCURVE",
"167 518 OFFCURVE",
"247 518 CURVE SMOOTH",
"318 518 OFFCURVE",
"353 461 OFFCURVE",
"353 401 CURVE SMOOTH",
"353 340 OFFCURVE",
"317 340 OFFCURVE",
"295 340 CURVE SMOOTH",
"99 340 LINE",
"99 315 LINE",
"411 315 LINE",
"413 337 OFFCURVE",
"413 344 OFFCURVE",
"413 348 CURVE SMOOTH",
"413 474 OFFCURVE",
"351 550 OFFCURVE",
"250 550 CURVE SMOOTH",
"116 550 OFFCURVE",
"53 410 OFFCURVE",
"53 267 CURVE SMOOTH",
"53 119 OFFCURVE",
"120 -10 OFFCURVE",
"247 -10 CURVE SMOOTH",
"384 -10 OFFCURVE",
"409 139 OFFCURVE",
"409 233 CURVE",
"381 233 LINE",
"381 95 OFFCURVE",
"329 25 OFFCURVE",
"250 25 CURVE SMOOTH"
);
}
);
width = 600;
},
{
anchors = (
{
name = bottom;
position = "{193, 0}";
},
{
name = ogonek;
position = "{240, 0}";
},
{
name = top;
position = "{333, 540}";
}
);
guideLines = (
{
angle = 90;
position = "{260, 233}";
}
);
layerId = "63C36BCE-C2CB-4BF3-9C7E-344D74934179";
paths = (
{
closed = 1;
nodes = (
"325 -10 OFFCURVE",
"385 93 OFFCURVE",
"410 163 CURVE SMOOTH",
"422 196 LINE",
"397 204 LINE",
"382 163 LINE SMOOTH",
"369 128 OFFCURVE",
"322 25 OFFCURVE",
"229 25 CURVE SMOOTH",
"152 25 OFFCURVE",
"116 95 OFFCURVE",
"142 220 CURVE SMOOTH",
"163 320 LINE SMOOTH",
"189 443 OFFCURVE",
"244 519 OFFCURVE",
"323 519 CURVE SMOOTH",
"372 519 OFFCURVE",
"403 488 OFFCURVE",
"403 437 CURVE SMOOTH",
"403 320 OFFCURVE",
"250 281 OFFCURVE",
"116 301 CURVE",
"116 279 LINE",
"241 261 OFFCURVE",
"469 291 OFFCURVE",
"469 439 CURVE SMOOTH",
"469 508 OFFCURVE",
"418 550 OFFCURVE",
"344 550 CURVE SMOOTH",
"186 550 OFFCURVE",
"67 361 OFFCURVE",
"67 188 CURVE SMOOTH",
"67 66 OFFCURVE",
"125 -10 OFFCURVE",
"217 -10 CURVE SMOOTH"
);
}
);
width = 500;
}
);
},
{
glyphname = ordfeminine;
lastChange = "2020-08-17 02:44:17 +0000";
layers = (
{
layerId = "94EC0173-ED25-4379-B549-8ECC2838F2C2";
paths = (
{
closed = 1;
nodes = (
"394 216 OFFCURVE",
"405 278 OFFCURVE",
"405 278 CURVE",
"391 282 LINE",
"391 282 OFFCURVE",
"383 251 OFFCURVE",
"363 251 CURVE SMOOTH",
"351 251 OFFCURVE",
"346 262 OFFCURVE",
"346 279 CURVE SMOOTH",
"346 455 LINE SMOOTH",
"346 501 OFFCURVE",
"321 550 OFFCURVE",
"246 550 CURVE SMOOTH",
"159 550 OFFCURVE",
"118 481 OFFCURVE",
"118 441 CURVE SMOOTH",
"118 420 OFFCURVE",
"129 404 OFFCURVE",
"150 404 CURVE SMOOTH",
"169 404 OFFCURVE",
"182 419 OFFCURVE",
"182 438 CURVE SMOOTH",
"182 453 OFFCURVE",
"174 462 OFFCURVE",
"154 484 CURVE",
"154 484 OFFCURVE",
"176 525 OFFCURVE",
"224 525 CURVE SMOOTH",
"266 525 OFFCURVE",
"296 498 OFFCURVE",
"296 455 CURVE SMOOTH",
"296 274 LINE SMOOTH",
"296 231 OFFCURVE",
"317 216 OFFCURVE",
"344 216 CURVE SMOOTH"
);
},
{
closed = 1;
nodes = (
"269 216 OFFCURVE",
"297 272 OFFCURVE",
"297 272 CURVE",
"297 297 LINE",
"297 297 OFFCURVE",
"278 249 OFFCURVE",
"230 249 CURVE SMOOTH",
"199 249 OFFCURVE",
"175 269 OFFCURVE",
"175 302 CURVE SMOOTH",
"175 344 OFFCURVE",
"203 360 OFFCURVE",
"245 378 CURVE SMOOTH",
"300 401 LINE",
"300 419 LINE",
"238 395 LINE SMOOTH",
"176 371 OFFCURVE",
"126 349 OFFCURVE",
"126 290 CURVE SMOOTH",
"126 249 OFFCURVE",
"157 216 OFFCURVE",
"206 216 CURVE SMOOTH"
);
}
);
width = 500;
},
{
layerId = "63C36BCE-C2CB-4BF3-9C7E-344D74934179";
paths = (
{
closed = 1;
nodes = (
"206 449 LINE SMOOTH",
"220 499 OFFCURVE",
"245 526 OFFCURVE",
"279 526 CURVE SMOOTH",
"310 526 OFFCURVE",
"323 506 OFFCURVE",
"323 506 CURVE",
"308 431 OFFCURVE",
"249 247 OFFCURVE",
"190 247 CURVE SMOOTH",
"165 247 OFFCURVE",
"159 278 OFFCURVE",
"167 308 CURVE SMOOTH"
);
},
{
closed = 1;
nodes = (
"331 538 OFFCURVE",
"318 550 OFFCURVE",
"289 550 CURVE SMOOTH",
"139 550 OFFCURVE",
"59 216 OFFCURVE",
"176 216 CURVE SMOOTH",
"243 216 OFFCURVE",
"282 314 OFFCURVE",
"302 373 CURVE SMOOTH",
"313 405 LINE",
"322 405 LINE",
"283 280 LINE SMOOTH",
"268 231 OFFCURVE",
"288 216 OFFCURVE",
"313 216 CURVE SMOOTH",
"348 216 OFFCURVE",
"370 244 OFFCURVE",
"395 280 CURVE SMOOTH",
"409 300 LINE",
"397 308 LINE",
"380 285 LINE SMOOTH",
"362 261 OFFCURVE",
"354 250 OFFCURVE",
"340 250 CURVE SMOOTH",
"327 250 OFFCURVE",
"327 263 OFFCURVE",
"329 272 CURVE SMOOTH",
"388 550 LINE",
"364 550 LINE",
"331 538 LINE"
);
}
);
width = 500;
},
{
components = (
{
name = a;
}
);
layerId = "3F0F5FFA-301F-4B90-BC1A-8916131A4004";
width = 600;
}
);
unicode = 00AA;
},
{
glyphname = ordmasculine;
lastChange = "2020-08-17 02:44:27 +0000";
layers = (
{
layerId = "94EC0173-ED25-4379-B549-8ECC2838F2C2";
paths = (
{
closed = 1;
nodes = (
"422 216 OFFCURVE",
"422 550 OFFCURVE",
"250 550 CURVE SMOOTH",
"78 550 OFFCURVE",
"78 216 OFFCURVE",
"250 216 CURVE SMOOTH"
);
},
{
closed = 1;
nodes = (
"200 242 OFFCURVE",
"174 286 OFFCURVE",
"174 360 CURVE SMOOTH",
"174 406 LINE SMOOTH",
"174 480 OFFCURVE",
"200 524 OFFCURVE",
"250 524 CURVE SMOOTH",
"300 524 OFFCURVE",
"326 480 OFFCURVE",
"326 406 CURVE SMOOTH",
"326 360 LINE SMOOTH",
"326 286 OFFCURVE",
"300 242 OFFCURVE",
"250 242 CURVE SMOOTH"
);
}
);
width = 500;
},
{
layerId = "63C36BCE-C2CB-4BF3-9C7E-344D74934179";
paths = (
{
closed = 1;
nodes = (
"408 216 OFFCURVE",
"479 550 OFFCURVE",
"307 550 CURVE SMOOTH",
"135 550 OFFCURVE",
"65 216 OFFCURVE",
"236 216 CURVE SMOOTH"
);
},
{
closed = 1;
nodes = (
"192 242 OFFCURVE",
"175 286 OFFCURVE",
"191 360 CURVE SMOOTH",
"201 406 LINE SMOOTH",
"217 480 OFFCURVE",
"253 524 OFFCURVE",
"302 524 CURVE SMOOTH",
"352 524 OFFCURVE",
"369 480 OFFCURVE",
"353 406 CURVE SMOOTH",
"343 360 LINE SMOOTH",
"327 286 OFFCURVE",
"291 242 OFFCURVE",
"242 242 CURVE SMOOTH"
);
}
);
width = 500;
},
{
components = (
{
name = o;
}
);
layerId = "3F0F5FFA-301F-4B90-BC1A-8916131A4004";
width = 600;
}
);
unicode = 00BA;
},
{
glyphname = zero;
lastChange = "2020-08-14 09:17:40 +0000";
layers = (
{
layerId = "94EC0173-ED25-4379-B549-8ECC2838F2C2";
paths = (
{
closed = 1;
nodes = (
"523 -10 OFFCURVE",
"524 750 OFFCURVE",
"250 750 CURVE SMOOTH",
"-24 750 OFFCURVE",
"-23 -10 OFFCURVE",
"250 -10 CURVE SMOOTH"
);
},
{
closed = 1;
nodes = (
"156 27 OFFCURVE",
"119 100 OFFCURVE",
"119 215 CURVE SMOOTH",
"119 525 LINE SMOOTH",
"119 640 OFFCURVE",
"157 713 OFFCURVE",
"250 713 CURVE SMOOTH",
"343 713 OFFCURVE",
"381 640 OFFCURVE",
"381 525 CURVE SMOOTH",
"381 215 LINE SMOOTH",
"381 100 OFFCURVE",
"344 27 OFFCURVE",
"250 27 CURVE SMOOTH"
);
}
);
width = 500;
},
{
layerId = "3F0F5FFA-301F-4B90-BC1A-8916131A4004";
width = 600;
},
{
layerId = "63C36BCE-C2CB-4BF3-9C7E-344D74934179";
paths = (
{
closed = 1;
nodes = (
"477 -10 OFFCURVE",
"639 750 OFFCURVE",
"366 750 CURVE SMOOTH",
"92 750 OFFCURVE",
"-69 -10 OFFCURVE",
"204 -10 CURVE SMOOTH"
);
},
{
closed = 1;
nodes = (
"120 27 OFFCURVE",
"96 97 OFFCURVE",
"121 215 CURVE SMOOTH",
"187 525 LINE SMOOTH",
"211 637 OFFCURVE",
"262 713 OFFCURVE",
"358 713 CURVE SMOOTH",
"449 713 OFFCURVE",
"474 643 OFFCURVE",
"449 525 CURVE SMOOTH",
"383 215 LINE SMOOTH",
"358 97 OFFCURVE",
"303 27 OFFCURVE",
"212 27 CURVE SMOOTH"
);
}
);
width = 500;
}
);
unicode = 0030;
},
{
glyphname = one;
lastChange = "2020-08-16 03:27:50 +0000";
layers = (
{
layerId = "94EC0173-ED25-4379-B549-8ECC2838F2C2";
paths = (
{
closed = 1;
nodes = (
"473 0 LINE",
"473 34 LINE",
"284 34 LINE",
"284 750 LINE",
"260 750 LINE",
"229 699 OFFCURVE",
"188 676 OFFCURVE",
"123 670 CURVE SMOOTH",
"34 662 LINE",
"34 635 LINE",
"216 635 LINE",
"216 34 LINE",
"-3 34 LINE",
"-3 0 LINE"
);
}
);
width = 500;
},
{
layerId = "3F0F5FFA-301F-4B90-BC1A-8916131A4004";
width = 600;
},
{
layerId = "63C36BCE-C2CB-4BF3-9C7E-344D74934179";
paths = (
{
closed = 1;
nodes = (
"443 0 LINE",
"450 34 LINE",
"261 34 LINE",
"413 750 LINE",
"389 750 LINE",
"347 697 OFFCURVE",
"297 675 OFFCURVE",
"235 670 CURVE SMOOTH",
"135 662 LINE",
"129 635 LINE",
"321 635 LINE",
"193 34 LINE",
"-6 34 LINE",
"-13 0 LINE"
);
}
);
width = 500;
}
);
unicode = 0031;
},
{
glyphname = two;
lastChange = "2020-08-14 09:16:40 +0000";
layers = (
{
layerId = "94EC0173-ED25-4379-B549-8ECC2838F2C2";
paths = (
{
closed = 1;
nodes = (
"142 -10 OFFCURVE",
"157 7 OFFCURVE",
"157 27 CURVE SMOOTH",
"157 52 OFFCURVE",
"134 65 OFFCURVE",
"125 70 CURVE SMOOTH",
"99 85 LINE",
"99 85 OFFCURVE",
"125 138 OFFCURVE",
"170 138 CURVE SMOOTH",
"245 138 OFFCURVE",
"247 -10 OFFCURVE",
"357 -10 CURVE SMOOTH",
"449 -10 OFFCURVE",
"451 94 OFFCURVE",
"451 153 CURVE SMOOTH",
"451 249 LINE",
"421 249 LINE",
"421 154 LINE SMOOTH",
"421 109 OFFCURVE",
"421 51 OFFCURVE",
"372 51 CURVE SMOOTH",
"303 51 OFFCURVE",
"275 166 OFFCURVE",
"183 166 CURVE SMOOTH",
"118 166 OFFCURVE",
"87 106 OFFCURVE",
"87 106 CURVE",
"87 196 OFFCURVE",
"147 251 OFFCURVE",
"202 292 CURVE SMOOTH",
"292 359 LINE SMOOTH",
"347 400 OFFCURVE",
"435 464 OFFCURVE",
"435 573 CURVE SMOOTH",
"435 672 OFFCURVE",
"364 750 OFFCURVE",
"257 750 CURVE SMOOTH",
"137 750 OFFCURVE",
"68 649 OFFCURVE",
"68 559 CURVE SMOOTH",
"68 495 OFFCURVE",
"103 467 OFFCURVE",
"133 467 CURVE SMOOTH",
"157 467 OFFCURVE",
"179 485 OFFCURVE",
"179 515 CURVE SMOOTH",
"179 546 OFFCURVE",
"155 566 OFFCURVE",
"146 574 CURVE SMOOTH",
"105 612 LINE",
"105 612 OFFCURVE",
"128 715 OFFCURVE",
"235 715 CURVE SMOOTH",
"314 715 OFFCURVE",
"366 660 OFFCURVE",
"366 571 CURVE SMOOTH",
"366 474 OFFCURVE",
"305 421 OFFCURVE",
"271 392 CURVE SMOOTH",
"183 317 LINE SMOOTH",
"144 284 OFFCURVE",
"58 215 OFFCURVE",
"58 88 CURVE SMOOTH",
"58 17 OFFCURVE",
"85 -10 OFFCURVE",
"117 -10 CURVE SMOOTH"
);
}
);
width = 500;
},
{
layerId = "3F0F5FFA-301F-4B90-BC1A-8916131A4004";
width = 600;
},
{
layerId = "63C36BCE-C2CB-4BF3-9C7E-344D74934179";
paths = (
{
closed = 1;
nodes = (
"103 -10 OFFCURVE",
"114 7 OFFCURVE",
"114 27 CURVE SMOOTH",
"114 50 OFFCURVE",
"98 65 OFFCURVE",
"92 70 CURVE SMOOTH",
"69 90 LINE",
"69 90 OFFCURVE",
"105 138 OFFCURVE",
"150 138 CURVE SMOOTH",
"229 138 OFFCURVE",
"207 -10 OFFCURVE",
"318 -10 CURVE SMOOTH",
"411 -10 OFFCURVE",
"435 94 OFFCURVE",
"447 153 CURVE SMOOTH",
"466 246 LINE",
"442 249 LINE",
"422 154 LINE SMOOTH",
"413 112 OFFCURVE",
"395 51 OFFCURVE",
"345 51 CURVE SMOOTH",
"277 51 OFFCURVE",
"261 166 OFFCURVE",
"172 166 CURVE SMOOTH",
"106 166 OFFCURVE",
"58 103 OFFCURVE",
"58 103 CURVE",
"75 187 OFFCURVE",
"157 252 OFFCURVE",
"216 290 CURVE SMOOTH",
"321 357 LINE SMOOTH",
"368 387 OFFCURVE",
"516 467 OFFCURVE",
"516 600 CURVE SMOOTH",
"516 686 OFFCURVE",
"455 750 OFFCURVE",
"358 750 CURVE SMOOTH",
"240 750 OFFCURVE",
"136 655 OFFCURVE",
"136 554 CURVE SMOOTH",
"136 505 OFFCURVE",
"160 487 OFFCURVE",
"184 487 CURVE SMOOTH",
"215 487 OFFCURVE",
"242 515 OFFCURVE",
"242 547 CURVE SMOOTH",
"242 572 OFFCURVE",
"226 587 OFFCURVE",
"220 594 CURVE SMOOTH",
"188 632 LINE",
"188 632 OFFCURVE",
"227 715 OFFCURVE",
"324 715 CURVE SMOOTH",
"398 715 OFFCURVE",
"444 667 OFFCURVE",
"444 594 CURVE SMOOTH",
"444 484 OFFCURVE",
"338 414 OFFCURVE",
"307 392 CURVE SMOOTH",
"203 317 LINE SMOOTH",
"144 274 OFFCURVE",
"24 185 OFFCURVE",
"24 61 CURVE SMOOTH",
"24 10 OFFCURVE",
"51 -10 OFFCURVE",
"75 -10 CURVE SMOOTH"
);
}
);
width = 500;
}
);
unicode = 0032;
},
{
glyphname = three;
lastChange = "2020-08-14 09:20:42 +0000";
layers = (
{
guideLines = (
{
angle = 48.0484;
position = "{276, 540}";
}
);
layerId = "94EC0173-ED25-4379-B549-8ECC2838F2C2";
paths = (
{
closed = 1;
nodes = (
"416 673 LINE",
"416 740 LINE",
"83 740 LINE",
"83 526 LINE",
"111 526 LINE",
"118 601 LINE SMOOTH",
"123 659 OFFCURVE",
"180 673 OFFCURVE",
"208 673 CURVE SMOOTH",
"381 673 LINE",
"121 386 LINE",
"142 366 LINE",
"182 399 OFFCURVE",
"222 423 OFFCURVE",
"274 423 CURVE SMOOTH",
"351 423 OFFCURVE",
"381 369 OFFCURVE",
"381 302 CURVE SMOOTH",
"381 167 LINE SMOOTH",
"381 75 OFFCURVE",
"327 25 OFFCURVE",
"240 25 CURVE SMOOTH",
"146 25 OFFCURVE",
"100 83 OFFCURVE",
"95 156 CURVE",
"125 177 LINE SMOOTH",
"146 192 OFFCURVE",
"171 208 OFFCURVE",
"171 241 CURVE SMOOTH",
"171 269 OFFCURVE",
"153 288 OFFCURVE",
"126 288 CURVE SMOOTH",
"89 288 OFFCURVE",
"61 251 OFFCURVE",
"61 182 CURVE SMOOTH",
"61 75 OFFCURVE",
"127 -10 OFFCURVE",
"242 -10 CURVE SMOOTH",
"356 -10 OFFCURVE",
"449 74 OFFCURVE",
"449 236 CURVE SMOOTH",
"449 394 OFFCURVE",
"364 455 OFFCURVE",
"280 455 CURVE SMOOTH",
"244 455 OFFCURVE",
"218 444 OFFCURVE",
"203 436 CURVE",
"201 439 LINE"
);
}
);
width = 500;
},
{
layerId = "3F0F5FFA-301F-4B90-BC1A-8916131A4004";
width = 600;
},
{
guideLines = (
{
angle = 48.0484;
position = "{276, 540}";
}
);
layerId = "63C36BCE-C2CB-4BF3-9C7E-344D74934179";
paths = (
{
closed = 1;
nodes = (
"521 673 LINE",
"535 740 LINE",
"202 740 LINE",
"157 526 LINE",
"185 526 LINE",
"208 601 LINE SMOOTH",
"226 659 OFFCURVE",
"283 673 OFFCURVE",
"313 673 CURVE SMOOTH",
"486 673 LINE",
"165 386 LINE",
"182 366 LINE",
"229 399 OFFCURVE",
"274 423 OFFCURVE",
"326 423 CURVE SMOOTH",
"403 423 OFFCURVE",
"421 369 OFFCURVE",
"407 302 CURVE SMOOTH",
"378 167 LINE SMOOTH",
"358 75 OFFCURVE",
"297 25 OFFCURVE",
"204 25 CURVE SMOOTH",
"102 25 OFFCURVE",
"70 85 OFFCURVE",
"80 156 CURVE",
"114 177 LINE SMOOTH",
"130 187 OFFCURVE",
"175 210 OFFCURVE",
"175 251 CURVE SMOOTH",
"175 274 OFFCURVE",
"161 288 OFFCURVE",
"139 288 CURVE SMOOTH",
"89 288 OFFCURVE",
"46 214 OFFCURVE",
"46 135 CURVE SMOOTH",
"46 50 OFFCURVE",
"97 -10 OFFCURVE",
"197 -10 CURVE SMOOTH",
"361 -10 OFFCURVE",
"469 152 OFFCURVE",
"469 302 CURVE SMOOTH",
"469 415 OFFCURVE",
"408 455 OFFCURVE",
"339 455 CURVE SMOOTH",
"303 455 OFFCURVE",
"274 444 OFFCURVE",
"257 436 CURVE",
"256 439 LINE"
);
}
);
width = 500;
}
);
unicode = 0033;
},
{
glyphname = four;
lastChange = "2020-08-16 03:28:18 +0000";
layers = (
{
guideLines = (
{
angle = 238.9338;
position = "{314, 740}";
}
);
layerId = "94EC0173-ED25-4379-B549-8ECC2838F2C2";
paths = (
{
closed = 1;
nodes = (
"280 213 LINE",
"280 34 LINE",
"151 34 LINE",
"151 0 LINE",
"477 0 LINE",
"477 34 LINE",
"348 34 LINE",
"348 213 LINE",
"472 213 LINE",
"472 247 LINE",
"348 247 LINE",
"348 740 LINE",
"310 740 LINE",
"13 247 LINE",
"13 213 LINE"
);
},
{
closed = 1;
nodes = (
"280 636 LINE",
"280 247 LINE",
"46 247 LINE"
);
}
);
width = 500;
},
{
layerId = "3F0F5FFA-301F-4B90-BC1A-8916131A4004";
width = 600;
},
{
guideLines = (
{
angle = 238.9338;
position = "{314, 740}";
}
);
layerId = "63C36BCE-C2CB-4BF3-9C7E-344D74934179";
paths = (
{
closed = 1;
nodes = (
"305 213 LINE",
"267 34 LINE",
"138 34 LINE",
"131 0 LINE",
"447 0 LINE",
"454 34 LINE",
"335 34 LINE",
"373 213 LINE",
"477 213 LINE",
"484 247 LINE",
"380 247 LINE",
"485 740 LINE",
"447 740 LINE",
"45 247 LINE",
"38 213 LINE"
);
},
{
closed = 1;
nodes = (
"395 636 LINE",
"312 247 LINE",
"78 247 LINE"
);
}
);
width = 500;
}
);
unicode = 0034;
},
{
glyphname = five;
lastChange = "2020-08-14 09:14:34 +0000";
layers = (
{
guideLines = (
{
angle = 83.3865;
position = "{132, 568}";
}
);
layerId = "94EC0173-ED25-4379-B549-8ECC2838F2C2";
paths = (
{
closed = 1;
nodes = (
"57 74 OFFCURVE",
"126 -10 OFFCURVE",
"243 -10 CURVE SMOOTH",
"362 -10 OFFCURVE",
"449 78 OFFCURVE",
"449 237 CURVE SMOOTH",
"449 384 OFFCURVE",
"373 465 OFFCURVE",
"264 465 CURVE SMOOTH",
"159 465 OFFCURVE",
"111 389 OFFCURVE",
"111 389 CURVE",
"144 673 LINE",
"432 673 LINE",
"432 750 LINE",
"414 750 LINE",
"384 740 LINE",
"126 740 LINE",
"81 348 LINE",
"110 344 LINE",
"110 344 OFFCURVE",
"149 433 OFFCURVE",
"260 433 CURVE SMOOTH",
"346 433 OFFCURVE",
"381 380 OFFCURVE",
"381 312 CURVE SMOOTH",
"381 167 LINE SMOOTH",
"381 75 OFFCURVE",
"331 25 OFFCURVE",
"240 25 CURVE SMOOTH",
"148 25 OFFCURVE",
"96 83 OFFCURVE",
"91 156 CURVE",
"121 177 LINE SMOOTH",
"142 192 OFFCURVE",
"167 208 OFFCURVE",
"167 241 CURVE SMOOTH",
"167 269 OFFCURVE",
"149 288 OFFCURVE",
"122 288 CURVE SMOOTH",
"85 288 OFFCURVE",
"57 251 OFFCURVE",
"57 182 CURVE SMOOTH"
);
}
);
width = 500;
},
{
layerId = "3F0F5FFA-301F-4B90-BC1A-8916131A4004";
width = 600;
},
{
guideLines = (
{
angle = 83.3865;
position = "{132, 568}";
}
);
layerId = "63C36BCE-C2CB-4BF3-9C7E-344D74934179";
paths = (
{
closed = 1;
nodes = (
"56 46 OFFCURVE",
"119 -10 OFFCURVE",
"211 -10 CURVE SMOOTH",
"357 -10 OFFCURVE",
"472 139 OFFCURVE",
"472 301 CURVE SMOOTH",
"472 413 OFFCURVE",
"417 465 OFFCURVE",
"332 465 CURVE SMOOTH",
"229 465 OFFCURVE",
"163 389 OFFCURVE",
"163 389 CURVE",
"257 673 LINE",
"537 673 LINE",
"553 750 LINE",
"535 750 LINE",
"503 740 LINE",
"253 740 LINE",
"125 348 LINE",
"153 344 LINE",
"153 344 OFFCURVE",
"212 433 OFFCURVE",
"320 433 CURVE SMOOTH",
"401 433 OFFCURVE",
"427 382 OFFCURVE",
"412 312 CURVE SMOOTH",
"381 167 LINE SMOOTH",
"361 75 OFFCURVE",
"303 25 OFFCURVE",
"216 25 CURVE SMOOTH",
"124 25 OFFCURVE",
"80 82 OFFCURVE",
"91 156 CURVE",
"124 177 LINE SMOOTH",
"140 187 OFFCURVE",
"185 211 OFFCURVE",
"185 252 CURVE SMOOTH",
"185 274 OFFCURVE",
"172 288 OFFCURVE",
"150 288 CURVE SMOOTH",
"99 288 OFFCURVE",
"56 214 OFFCURVE",
"56 138 CURVE SMOOTH"
);
}
);
width = 500;
}
);
unicode = 0035;
},
{
glyphname = six;
lastChange = "2020-08-14 09:21:11 +0000";
layers = (
{
guideLines = (
{
angle = 90;
position = "{119, 285}";
}
);
layerId = "94EC0173-ED25-4379-B549-8ECC2838F2C2";
paths = (
{
closed = 1;
nodes = (
"375 -10 OFFCURVE",
"449 102 OFFCURVE",
"449 231 CURVE SMOOTH",
"449 355 OFFCURVE",
"381 465 OFFCURVE",
"262 465 CURVE SMOOTH",
"125 465 OFFCURVE",
"107 318 OFFCURVE",
"107 318 CURVE",
"99 318 LINE",
"99 363 LINE SMOOTH",
"99 580 OFFCURVE",
"166 720 OFFCURVE",
"284 720 CURVE SMOOTH",
"346 720 OFFCURVE",
"395 683 OFFCURVE",
"395 634 CURVE",
"371 616 LINE SMOOTH",
"351 601 OFFCURVE",
"331 588 OFFCURVE",
"331 559 CURVE SMOOTH",
"331 532 OFFCURVE",
"348 516 OFFCURVE",
"372 516 CURVE SMOOTH",
"410 516 OFFCURVE",
"430 555 OFFCURVE",
"430 606 CURVE SMOOTH",
"430 697 OFFCURVE",
"369 750 OFFCURVE",
"283 750 CURVE SMOOTH",
"120 750 OFFCURVE",
"41 560 OFFCURVE",
"41 332 CURVE SMOOTH",
"41 67 OFFCURVE",
"148 -10 OFFCURVE",
"251 -10 CURVE SMOOTH"
);
},
{
closed = 1;
nodes = (
"180 25 OFFCURVE",
"129 76 OFFCURVE",
"129 170 CURVE SMOOTH",
"129 285 LINE SMOOTH",
"129 379 OFFCURVE",
"183 433 OFFCURVE",
"260 433 CURVE SMOOTH",
"332 433 OFFCURVE",
"381 379 OFFCURVE",
"381 285 CURVE SMOOTH",
"381 170 LINE SMOOTH",
"381 76 OFFCURVE",
"332 25 OFFCURVE",
"256 25 CURVE SMOOTH"
);
}
);
width = 500;
},
{
layerId = "3F0F5FFA-301F-4B90-BC1A-8916131A4004";
width = 600;
},
{
guideLines = (
{
angle = 90;
position = "{119, 285}";
}
);
layerId = "63C36BCE-C2CB-4BF3-9C7E-344D74934179";
paths = (
{
closed = 1;
nodes = (
"375 -10 OFFCURVE",
"475 154 OFFCURVE",
"475 294 CURVE SMOOTH",
"475 395 OFFCURVE",
"424 465 OFFCURVE",
"332 465 CURVE SMOOTH",
"199 465 OFFCURVE",
"149 318 OFFCURVE",
"149 318 CURVE",
"141 318 LINE",
"151 363 LINE SMOOTH",
"200 584 OFFCURVE",
"295 720 OFFCURVE",
"411 720 CURVE SMOOTH",
"472 720 OFFCURVE",
"515 683 OFFCURVE",
"504 634 CURVE",
"477 616 LINE SMOOTH",
"459 604 OFFCURVE",
"423 584 OFFCURVE",
"423 549 CURVE SMOOTH",
"423 528 OFFCURVE",
"436 516 OFFCURVE",
"456 516 CURVE SMOOTH",
"501 516 OFFCURVE",
"538 578 OFFCURVE",
"538 639 CURVE SMOOTH",
"538 711 OFFCURVE",
"486 750 OFFCURVE",
"415 750 CURVE SMOOTH",
"212 750 OFFCURVE",
"69 426 OFFCURVE",
"69 199 CURVE SMOOTH",
"69 34 OFFCURVE",
"145 -10 OFFCURVE",
"223 -10 CURVE SMOOTH"
);
},
{
closed = 1;
nodes = (
"157 25 OFFCURVE",
"120 76 OFFCURVE",
"140 170 CURVE SMOOTH",
"164 285 LINE SMOOTH",
"184 379 OFFCURVE",
"249 433 OFFCURVE",
"321 433 CURVE SMOOTH",
"393 433 OFFCURVE",
"431 379 OFFCURVE",
"411 285 CURVE SMOOTH",
"387 170 LINE SMOOTH",
"367 76 OFFCURVE",
"309 25 OFFCURVE",
"233 25 CURVE SMOOTH"
);
}
);
width = 500;
}
);
unicode = 0036;
},
{
glyphname = seven;
lastChange = "2020-08-14 09:20:52 +0000";
layers = (
{
layerId = "94EC0173-ED25-4379-B549-8ECC2838F2C2";
paths = (
{
closed = 1;
nodes = (
"88 740 LINE",
"58 740 LINE",
"58 521 LINE",
"88 521 LINE",
"88 586 LINE SMOOTH",
"88 631 OFFCURVE",
"88 689 OFFCURVE",
"137 689 CURVE SMOOTH",
"206 689 OFFCURVE",
"244 594 OFFCURVE",
"336 594 CURVE SMOOTH",
"401 594 OFFCURVE",
"422 634 OFFCURVE",
"422 634 CURVE",
"422 471 OFFCURVE",
"176 456 OFFCURVE",
"176 47 CURVE SMOOTH",
"176 0 LINE",
"241 0 LINE",
"241 47 LINE SMOOTH",
"241 459 OFFCURVE",
"451 455 OFFCURVE",
"451 652 CURVE SMOOTH",
"451 723 OFFCURVE",
"424 750 OFFCURVE",
"392 750 CURVE SMOOTH",
"367 750 OFFCURVE",
"352 733 OFFCURVE",
"352 713 CURVE SMOOTH",
"352 688 OFFCURVE",
"375 675 OFFCURVE",
"384 670 CURVE SMOOTH",
"410 655 LINE",
"410 655 OFFCURVE",
"394 622 OFFCURVE",
"349 622 CURVE SMOOTH",
"274 622 OFFCURVE",
"254 750 OFFCURVE",
"161 750 CURVE SMOOTH",
"116 750 OFFCURVE",
"99 715 OFFCURVE",
"92 692 CURVE",
"88 692 LINE"
);
}
);
width = 500;
},
{
layerId = "3F0F5FFA-301F-4B90-BC1A-8916131A4004";
width = 600;
},
{
layerId = "63C36BCE-C2CB-4BF3-9C7E-344D74934179";
paths = (
{
closed = 1;
nodes = (
"199 740 LINE",
"169 740 LINE",
"122 521 LINE",
"152 521 LINE",
"166 586 LINE SMOOTH",
"176 631 OFFCURVE",
"186 689 OFFCURVE",
"238 689 CURVE SMOOTH",
"305 689 OFFCURVE",
"323 594 OFFCURVE",
"418 594 CURVE SMOOTH",
"482 594 OFFCURVE",
"517 639 OFFCURVE",
"517 639 CURVE",
"482 476 OFFCURVE",
"226 456 OFFCURVE",
"139 47 CURVE SMOOTH",
"129 0 LINE",
"194 0 LINE",
"204 47 LINE SMOOTH",
"300 498 OFFCURVE",
"548 465 OFFCURVE",
"548 681 CURVE SMOOTH",
"548 734 OFFCURVE",
"529 750 OFFCURVE",
"503 750 CURVE SMOOTH",
"473 750 OFFCURVE",
"456 730 OFFCURVE",
"456 704 CURVE SMOOTH",
"456 679 OFFCURVE",
"474 669 OFFCURVE",
"494 659 CURVE SMOOTH",
"502 655 LINE",
"502 655 OFFCURVE",
"478 622 OFFCURVE",
"437 622 CURVE SMOOTH",
"357 622 OFFCURVE",
"367 750 OFFCURVE",
"276 750 CURVE SMOOTH",
"229 750 OFFCURVE",
"204 715 OFFCURVE",
"192 692 CURVE",
"188 692 LINE"
);
}
);
width = 500;
}
);
unicode = 0037;
},
{
glyphname = eight;
lastChange = "2020-08-14 09:17:48 +0000";
layers = (
{
layerId = "94EC0173-ED25-4379-B549-8ECC2838F2C2";
paths = (
{
closed = 1;
nodes = (
"389 -10 OFFCURVE",
"455 109 OFFCURVE",
"455 227 CURVE SMOOTH",
"455 383 OFFCURVE",
"335 435 OFFCURVE",
"335 435 CURVE",
"335 443 LINE",
"335 443 OFFCURVE",
"421 480 OFFCURVE",
"421 589 CURVE SMOOTH",
"421 696 OFFCURVE",
"342 750 OFFCURVE",
"254 750 CURVE SMOOTH",
"166 750 OFFCURVE",
"87 696 OFFCURVE",
"87 587 CURVE SMOOTH",
"87 480 OFFCURVE",
"173 443 OFFCURVE",
"173 443 CURVE",
"173 435 LINE",
"173 435 OFFCURVE",
"53 383 OFFCURVE",
"53 227 CURVE SMOOTH",
"53 109 OFFCURVE",
"119 -10 OFFCURVE",
"254 -10 CURVE SMOOTH"
);
},
{
closed = 1;
nodes = (
"169 25 OFFCURVE",
"124 72 OFFCURVE",
"124 157 CURVE SMOOTH",
"124 291 LINE SMOOTH",
"124 376 OFFCURVE",
"169 423 OFFCURVE",
"254 423 CURVE SMOOTH",
"339 423 OFFCURVE",
"384 376 OFFCURVE",
"384 291 CURVE SMOOTH",
"384 157 LINE SMOOTH",
"384 72 OFFCURVE",
"339 25 OFFCURVE",
"254 25 CURVE SMOOTH"
);
},
{
closed = 1;
nodes = (
"183 455 OFFCURVE",
"146 492 OFFCURVE",
"146 560 CURVE SMOOTH",
"146 615 LINE SMOOTH",
"146 683 OFFCURVE",
"183 720 OFFCURVE",
"254 720 CURVE SMOOTH",
"325 720 OFFCURVE",
"362 683 OFFCURVE",
"362 615 CURVE SMOOTH",
"362 560 LINE SMOOTH",
"362 492 OFFCURVE",
"325 455 OFFCURVE",
"254 455 CURVE SMOOTH"
);
}
);
width = 500;
},
{
layerId = "3F0F5FFA-301F-4B90-BC1A-8916131A4004";
width = 600;
},
{
layerId = "63C36BCE-C2CB-4BF3-9C7E-344D74934179";
paths = (
{
closed = 1;
nodes = (
"348 -10 OFFCURVE",
"458 144 OFFCURVE",
"458 280 CURVE SMOOTH",
"458 397 OFFCURVE",
"376 435 OFFCURVE",
"376 435 CURVE",
"378 443 LINE",
"378 443 OFFCURVE",
"499 500 OFFCURVE",
"499 623 CURVE SMOOTH",
"499 711 OFFCURVE",
"438 750 OFFCURVE",
"363 750 CURVE SMOOTH",
"249 750 OFFCURVE",
"156 659 OFFCURVE",
"156 554 CURVE SMOOTH",
"156 470 OFFCURVE",
"216 443 OFFCURVE",
"216 443 CURVE",
"214 435 LINE",
"214 435 OFFCURVE",
"43 357 OFFCURVE",
"43 169 CURVE SMOOTH",
"43 70 OFFCURVE",
"90 -10 OFFCURVE",
"198 -10 CURVE SMOOTH"
);
},
{
closed = 1;
nodes = (
"122 25 OFFCURVE",
"88 72 OFFCURVE",
"106 157 CURVE SMOOTH",
"135 291 LINE SMOOTH",
"153 376 OFFCURVE",
"209 423 OFFCURVE",
"294 423 CURVE SMOOTH",
"379 423 OFFCURVE",
"413 376 OFFCURVE",
"395 291 CURVE SMOOTH",
"366 157 LINE SMOOTH",
"348 72 OFFCURVE",
"292 25 OFFCURVE",
"207 25 CURVE SMOOTH"
);
},
{
closed = 1;
nodes = (
"229 455 OFFCURVE",
"199 492 OFFCURVE",
"214 560 CURVE SMOOTH",
"226 615 LINE SMOOTH",
"241 683 OFFCURVE",
"284 720 OFFCURVE",
"355 720 CURVE SMOOTH",
"426 720 OFFCURVE",
"455 683 OFFCURVE",
"441 615 CURVE SMOOTH",
"430 560 LINE SMOOTH",
"416 492 OFFCURVE",
"372 455 OFFCURVE",
"301 455 CURVE SMOOTH"
);
}
);
width = 500;
}
);
unicode = 0038;
},
{
glyphname = zeroinferior;
lastChange = "2020-08-16 17:01:12 +0000";
layers = (
{
layerId = "94EC0173-ED25-4379-B549-8ECC2838F2C2";
paths = (
{
closed = 1;
nodes = (
"425 -10 OFFCURVE",
"426 340 OFFCURVE",
"250 340 CURVE SMOOTH",
"74 340 OFFCURVE",
"75 -10 OFFCURVE",
"250 -10 CURVE SMOOTH"
);
},
{
closed = 1;
nodes = (
"199 17 OFFCURVE",
"170 60 OFFCURVE",
"170 123 CURVE SMOOTH",
"170 207 LINE SMOOTH",
"170 270 OFFCURVE",
"200 313 OFFCURVE",
"250 313 CURVE SMOOTH",
"300 313 OFFCURVE",
"330 270 OFFCURVE",
"330 207 CURVE SMOOTH",
"330 123 LINE SMOOTH",
"330 60 OFFCURVE",
"301 17 OFFCURVE",
"250 17 CURVE SMOOTH"
);
}
);
width = 500;
},
{
layerId = "63C36BCE-C2CB-4BF3-9C7E-344D74934179";
paths = (
{
closed = 1;
nodes = (
"359 -10 OFFCURVE",
"435 340 OFFCURVE",
"259 340 CURVE SMOOTH",
"83 340 OFFCURVE",
"10 -10 OFFCURVE",
"185 -10 CURVE SMOOTH"
);
},
{
closed = 1;
nodes = (
"141 17 OFFCURVE",
"119 58 OFFCURVE",
"133 123 CURVE SMOOTH",
"151 207 LINE SMOOTH",
"165 272 OFFCURVE",
"205 313 OFFCURVE",
"253 313 CURVE SMOOTH",
"301 313 OFFCURVE",
"325 273 OFFCURVE",
"311 207 CURVE SMOOTH",
"293 123 LINE SMOOTH",
"279 58 OFFCURVE",
"240 17 OFFCURVE",
"190 17 CURVE SMOOTH"
);
}
);
width = 500;
},
{
components = (
{
name = zero;
}
);
layerId = "3F0F5FFA-301F-4B90-BC1A-8916131A4004";
width = 600;
}
);
unicode = 2080;
},
{
glyphname = oneinferior;
lastChange = "2020-08-16 17:05:49 +0000";
layers = (
{
layerId = "94EC0173-ED25-4379-B549-8ECC2838F2C2";
paths = (
{
closed = 1;
nodes = (
"373 0 LINE",
"373 28 LINE",
"282 28 LINE",
"284 330 LINE",
"270 330 LINE",
"244 298 OFFCURVE",
"237 288 OFFCURVE",
"180 284 CURVE SMOOTH",
"154 282 LINE",
"154 261 LINE",
"239 261 LINE",
"239 28 LINE",
"137 28 LINE",
"137 0 LINE"
);
}
);
width = 500;
},
{
layerId = "63C36BCE-C2CB-4BF3-9C7E-344D74934179";
paths = (
{
closed = 1;
nodes = (
"306 0 LINE",
"312 28 LINE",
"231 28 LINE",
"297 330 LINE",
"283 330 LINE",
"250 298 OFFCURVE",
"242 289 OFFCURVE",
"183 284 CURVE SMOOTH",
"157 282 LINE",
"152 261 LINE",
"237 261 LINE",
"188 28 LINE",
"106 28 LINE",
"100 0 LINE"
);
}
);
width = 500;
},
{
components = (
{
name = one;
}
);
layerId = "3F0F5FFA-301F-4B90-BC1A-8916131A4004";
width = 600;
}
);
unicode = 2081;
},
{
glyphname = twoinferior;
lastChange = "2020-08-17 02:26:54 +0000";
layers = (
{
layerId = "94EC0173-ED25-4379-B549-8ECC2838F2C2";
paths = (
{
closed = 1;
nodes = (
"191 -10 OFFCURVE",
"199 1 OFFCURVE",
"199 13 CURVE SMOOTH",
"199 32 OFFCURVE",
"182 34 OFFCURVE",
"178 35 CURVE SMOOTH",
"163 38 LINE",
"163 38 OFFCURVE",
"171 51 OFFCURVE",
"194 51 CURVE SMOOTH",
"246 51 OFFCURVE",
"254 -10 OFFCURVE",
"311 -10 CURVE SMOOTH",
"365 -10 OFFCURVE",
"365 43 OFFCURVE",
"365 72 CURVE SMOOTH",
"365 103 LINE",
"346 103 LINE",
"346 75 LINE SMOOTH",
"346 65 OFFCURVE",
"346 40 OFFCURVE",
"318 40 CURVE SMOOTH",
"285 40 OFFCURVE",
"256 78 OFFCURVE",
"213 78 CURVE SMOOTH",
"177 78 OFFCURVE",
"157 52 OFFCURVE",
"157 52 CURVE",
"157 70 OFFCURVE",
"187 94 OFFCURVE",
"230 118 CURVE SMOOTH",
"257 133 LINE SMOOTH",
"287 150 OFFCURVE",
"354 187 OFFCURVE",
"354 250 CURVE SMOOTH",
"354 299 OFFCURVE",
"314 340 OFFCURVE",
"253 340 CURVE SMOOTH",
"193 340 OFFCURVE",
"143 301 OFFCURVE",
"143 247 CURVE SMOOTH",
"143 216 OFFCURVE",
"159 196 OFFCURVE",
"184 196 CURVE SMOOTH",
"206 196 OFFCURVE",
"217 211 OFFCURVE",
"217 227 CURVE SMOOTH",
"217 239 OFFCURVE",
"210 250 OFFCURVE",
"198 258 CURVE SMOOTH",
"169 278 LINE",
"169 278 OFFCURVE",
"191 315 OFFCURVE",
"238 315 CURVE SMOOTH",
"276 315 OFFCURVE",
"304 289 OFFCURVE",
"304 245 CURVE SMOOTH",
"304 194 OFFCURVE",
"267 170 OFFCURVE",
"244 155 CURVE SMOOTH",
"219 139 LINE SMOOTH",
"183 116 OFFCURVE",
"136 78 OFFCURVE",
"136 33 CURVE SMOOTH",
"136 8 OFFCURVE",
"151 -10 OFFCURVE",
"174 -10 CURVE SMOOTH"
);
}
);
width = 500;
},
{
layerId = "63C36BCE-C2CB-4BF3-9C7E-344D74934179";
paths = (
{
closed = 1;
nodes = (
"135 -10 OFFCURVE",
"144 1 OFFCURVE",
"144 13 CURVE SMOOTH",
"144 24 OFFCURVE",
"136 36 OFFCURVE",
"121 37 CURVE SMOOTH",
"111 38 LINE",
"111 38 OFFCURVE",
"123 51 OFFCURVE",
"146 51 CURVE SMOOTH",
"196 51 OFFCURVE",
"192 -10 OFFCURVE",
"250 -10 CURVE SMOOTH",
"304 -10 OFFCURVE",
"315 43 OFFCURVE",
"321 72 CURVE SMOOTH",
"327 103 LINE",
"308 103 LINE",
"302 75 LINE SMOOTH",
"300 65 OFFCURVE",
"295 40 OFFCURVE",
"267 40 CURVE SMOOTH",
"234 40 OFFCURVE",
"213 78 OFFCURVE",
"170 78 CURVE SMOOTH",
"134 78 OFFCURVE",
"108 52 OFFCURVE",
"108 52 CURVE",
"112 70 OFFCURVE",
"141 92 OFFCURVE",
"195 118 CURVE SMOOTH",
"226 133 LINE SMOOTH",
"257 148 OFFCURVE",
"349 189 OFFCURVE",
"349 263 CURVE SMOOTH",
"349 307 OFFCURVE",
"317 340 OFFCURVE",
"263 340 CURVE SMOOTH",
"193 340 OFFCURVE",
"134 286 OFFCURVE",
"134 233 CURVE SMOOTH",
"134 209 OFFCURVE",
"146 196 OFFCURVE",
"166 196 CURVE SMOOTH",
"187 196 OFFCURVE",
"206 213 OFFCURVE",
"206 233 CURVE SMOOTH",
"206 241 OFFCURVE",
"203 250 OFFCURVE",
"193 258 CURVE SMOOTH",
"168 278 LINE",
"168 278 OFFCURVE",
"197 315 OFFCURVE",
"243 315 CURVE SMOOTH",
"275 315 OFFCURVE",
"298 296 OFFCURVE",
"298 258 CURVE SMOOTH",
"298 196 OFFCURVE",
"236 166 OFFCURVE",
"217 155 CURVE SMOOTH",
"189 139 LINE SMOOTH",
"117 98 OFFCURVE",
"82 58 OFFCURVE",
"82 24 CURVE SMOOTH",
"82 1 OFFCURVE",
"98 -10 OFFCURVE",
"116 -10 CURVE SMOOTH"
);
}
);
width = 500;
},
{
components = (
{
name = two;
}
);
layerId = "3F0F5FFA-301F-4B90-BC1A-8916131A4004";
width = 600;
}
);
unicode = 2082;
},
{
glyphname = threeinferior;
lastChange = "2020-08-16 17:02:33 +0000";
layers = (
{
guideLines = (
{
angle = 38.3675;
position = "{359, 371}";
}
);
layerId = "94EC0173-ED25-4379-B549-8ECC2838F2C2";
paths = (
{
closed = 1;
nodes = (
"352 299 LINE",
"352 330 LINE",
"168 330 LINE",
"168 230 LINE",
"182 230 LINE",
"185 257 LINE SMOOTH",
"188 284 OFFCURVE",
"201 291 OFFCURVE",
"226 291 CURVE SMOOTH",
"310 291 LINE",
"173 175 LINE",
"186 157 LINE",
"186 157 OFFCURVE",
"209 175 OFFCURVE",
"246 175 CURVE SMOOTH",
"287 175 OFFCURVE",
"313 153 OFFCURVE",
"313 114 CURVE SMOOTH",
"313 80 LINE SMOOTH",
"313 47 OFFCURVE",
"293 14 OFFCURVE",
"237 14 CURVE SMOOTH",
"200 14 OFFCURVE",
"176 32 OFFCURVE",
"172 66 CURVE",
"183 69 LINE SMOOTH",
"210 76 OFFCURVE",
"216 93 OFFCURVE",
"216 106 CURVE SMOOTH",
"216 124 OFFCURVE",
"204 135 OFFCURVE",
"186 135 CURVE SMOOTH",
"165 135 OFFCURVE",
"145 119 OFFCURVE",
"145 81 CURVE SMOOTH",
"145 23 OFFCURVE",
"188 -10 OFFCURVE",
"248 -10 CURVE SMOOTH",
"317 -10 OFFCURVE",
"364 29 OFFCURVE",
"364 101 CURVE SMOOTH",
"364 170 OFFCURVE",
"321 198 OFFCURVE",
"262 198 CURVE SMOOTH",
"237 198 OFFCURVE",
"230 193 OFFCURVE",
"230 193 CURVE",
"229 194 LINE"
);
}
);
width = 500;
},
{
layerId = "63C36BCE-C2CB-4BF3-9C7E-344D74934179";
paths = (
{
closed = 1;
nodes = (
"356 299 LINE",
"362 330 LINE",
"178 330 LINE",
"157 230 LINE",
"171 230 LINE",
"180 257 LINE SMOOTH",
"189 284 OFFCURVE",
"204 291 OFFCURVE",
"228 291 CURVE SMOOTH",
"312 291 LINE",
"150 175 LINE",
"160 157 LINE",
"160 157 OFFCURVE",
"187 175 OFFCURVE",
"223 175 CURVE SMOOTH",
"264 175 OFFCURVE",
"285 153 OFFCURVE",
"277 114 CURVE SMOOTH",
"270 80 LINE SMOOTH",
"262 41 OFFCURVE",
"229 14 OFFCURVE",
"182 14 CURVE SMOOTH",
"144 14 OFFCURVE",
"123 32 OFFCURVE",
"126 66 CURVE",
"138 69 LINE SMOOTH",
"166 76 OFFCURVE",
"180 95 OFFCURVE",
"180 113 CURVE SMOOTH",
"180 127 OFFCURVE",
"170 135 OFFCURVE",
"155 135 CURVE SMOOTH",
"124 135 OFFCURVE",
"100 100 OFFCURVE",
"100 59 CURVE SMOOTH",
"100 15 OFFCURVE",
"134 -10 OFFCURVE",
"186 -10 CURVE SMOOTH",
"268 -10 OFFCURVE",
"329 52 OFFCURVE",
"329 124 CURVE SMOOTH",
"329 180 OFFCURVE",
"293 198 OFFCURVE",
"245 198 CURVE SMOOTH",
"220 198 OFFCURVE",
"211 193 OFFCURVE",
"211 193 CURVE",
"210 194 LINE"
);
}
);
width = 500;
},
{
components = (
{
name = three;
}
);
layerId = "3F0F5FFA-301F-4B90-BC1A-8916131A4004";
width = 600;
}
);
unicode = 2083;
},
{
glyphname = fourinferior;
lastChange = "2020-08-16 17:02:46 +0000";
layers = (
{
guideLines = (
{
angle = 233.6334;
position = "{129, 110}";
},
{
angle = 270;
position = "{251, 55}";
}
);
layerId = "94EC0173-ED25-4379-B549-8ECC2838F2C2";
paths = (
{
closed = 1;
nodes = (
"251 82 LINE",
"251 28 LINE",
"183 28 LINE",
"183 0 LINE",
"368 0 LINE",
"368 28 LINE",
"294 28 LINE",
"294 82 LINE",
"366 82 LINE",
"366 110 LINE",
"294 110 LINE",
"294 330 LINE",
"264 330 LINE",
"112 110 LINE",
"112 82 LINE"
);
},
{
closed = 1;
nodes = (
"251 276 LINE",
"251 110 LINE",
"139 110 LINE"
);
}
);
width = 500;
},
{
layerId = "63C36BCE-C2CB-4BF3-9C7E-344D74934179";
paths = (
{
closed = 1;
nodes = (
"218 82 LINE",
"207 28 LINE",
"139 28 LINE",
"133 0 LINE",
"318 0 LINE",
"324 28 LINE",
"250 28 LINE",
"261 82 LINE",
"333 82 LINE",
"339 110 LINE",
"267 110 LINE",
"314 330 LINE",
"284 330 LINE",
"85 110 LINE",
"79 82 LINE"
);
},
{
closed = 1;
nodes = (
"259 276 LINE",
"224 110 LINE",
"112 110 LINE"
);
}
);
width = 500;
},
{
components = (
{
name = four;
}
);
layerId = "3F0F5FFA-301F-4B90-BC1A-8916131A4004";
width = 600;
}
);
unicode = 2084;
},
{
glyphname = fiveinferior;
lastChange = "2020-08-16 17:02:53 +0000";
layers = (
{
guideLines = (
{
angle = 263.3456;
position = "{188, 181}";
}
);
layerId = "94EC0173-ED25-4379-B549-8ECC2838F2C2";
paths = (
{
closed = 1;
nodes = (
"211 14 OFFCURVE",
"178 27 OFFCURVE",
"174 61 CURVE",
"185 64 LINE SMOOTH",
"212 71 OFFCURVE",
"218 88 OFFCURVE",
"218 101 CURVE SMOOTH",
"218 119 OFFCURVE",
"206 130 OFFCURVE",
"188 130 CURVE SMOOTH",
"167 130 OFFCURVE",
"147 114 OFFCURVE",
"147 76 CURVE SMOOTH",
"147 18 OFFCURVE",
"195 -10 OFFCURVE",
"248 -10 CURVE SMOOTH",
"397 -10 OFFCURVE",
"399 212 OFFCURVE",
"261 212 CURVE SMOOTH",
"210 212 OFFCURVE",
"188 181 OFFCURVE",
"188 181 CURVE",
"201 296 LINE",
"345 296 LINE",
"345 340 LINE",
"337 340 LINE",
"323 335 LINE",
"185 335 LINE",
"164 155 LINE",
"187 153 LINE",
"187 153 OFFCURVE",
"205 190 OFFCURVE",
"256 190 CURVE SMOOTH",
"296 190 OFFCURVE",
"312 166 OFFCURVE",
"312 134 CURVE SMOOTH",
"312 80 LINE SMOOTH",
"312 37 OFFCURVE",
"289 14 OFFCURVE",
"244 14 CURVE SMOOTH"
);
}
);
width = 500;
},
{
layerId = "63C36BCE-C2CB-4BF3-9C7E-344D74934179";
paths = (
{
closed = 1;
nodes = (
"154 14 OFFCURVE",
"124 27 OFFCURVE",
"127 61 CURVE",
"139 64 LINE SMOOTH",
"164 70 OFFCURVE",
"180 88 OFFCURVE",
"180 108 CURVE SMOOTH",
"180 122 OFFCURVE",
"170 130 OFFCURVE",
"156 130 CURVE SMOOTH",
"126 130 OFFCURVE",
"101 97 OFFCURVE",
"101 57 CURVE SMOOTH",
"101 12 OFFCURVE",
"139 -10 OFFCURVE",
"186 -10 CURVE SMOOTH",
"335 -10 OFFCURVE",
"383 212 OFFCURVE",
"247 212 CURVE SMOOTH",
"196 212 OFFCURVE",
"166 181 OFFCURVE",
"166 181 CURVE",
"204 296 LINE",
"348 296 LINE",
"357 340 LINE",
"349 340 LINE",
"334 335 LINE",
"196 335 LINE",
"137 155 LINE",
"160 153 LINE",
"160 153 OFFCURVE",
"186 190 OFFCURVE",
"236 190 CURVE SMOOTH",
"275 190 OFFCURVE",
"287 167 OFFCURVE",
"280 134 CURVE SMOOTH",
"269 80 LINE SMOOTH",
"260 37 OFFCURVE",
"233 14 OFFCURVE",
"187 14 CURVE SMOOTH"
);
}
);
width = 500;
},
{
components = (
{
name = five;
}
);
layerId = "3F0F5FFA-301F-4B90-BC1A-8916131A4004";
width = 600;
}
);
unicode = 2085;
},
{
glyphname = sixinferior;
lastChange = "2020-08-16 17:03:04 +0000";
layers = (
{
layerId = "94EC0173-ED25-4379-B549-8ECC2838F2C2";
paths = (
{
closed = 1;
nodes = (
"215 14 OFFCURVE",
"192 38 OFFCURVE",
"192 81 CURVE SMOOTH",
"192 116 LINE SMOOTH",
"192 159 OFFCURVE",
"216 184 OFFCURVE",
"252 184 CURVE SMOOTH",
"285 184 OFFCURVE",
"308 159 OFFCURVE",
"308 116 CURVE SMOOTH",
"308 81 LINE SMOOTH",
"308 38 OFFCURVE",
"285 14 OFFCURVE",
"250 14 CURVE SMOOTH"
);
},
{
closed = 1;
nodes = (
"291 316 OFFCURVE",
"318 308 OFFCURVE",
"321 288 CURVE",
"310 285 LINE SMOOTH",
"283 278 OFFCURVE",
"277 263 OFFCURVE",
"277 250 CURVE SMOOTH",
"277 232 OFFCURVE",
"289 221 OFFCURVE",
"307 221 CURVE SMOOTH",
"329 221 OFFCURVE",
"348 239 OFFCURVE",
"348 271 CURVE SMOOTH",
"348 322 OFFCURVE",
"302 340 OFFCURVE",
"262 340 CURVE SMOOTH",
"182 340 OFFCURVE",
"132 265 OFFCURVE",
"132 154 CURVE SMOOTH",
"132 41 OFFCURVE",
"181 -10 OFFCURVE",
"249 -10 CURVE SMOOTH",
"395 -10 OFFCURVE",
"390 209 OFFCURVE",
"259 209 CURVE SMOOTH",
"191 209 OFFCURVE",
"178 151 OFFCURVE",
"178 151 CURVE",
"175 151 LINE",
"175 162 LINE SMOOTH",
"175 261 OFFCURVE",
"212 316 OFFCURVE",
"269 316 CURVE SMOOTH"
);
}
);
width = 500;
},
{
layerId = "63C36BCE-C2CB-4BF3-9C7E-344D74934179";
paths = (
{
closed = 1;
nodes = (
"159 14 OFFCURVE",
"141 38 OFFCURVE",
"150 81 CURVE SMOOTH",
"157 116 LINE SMOOTH",
"166 159 OFFCURVE",
"195 184 OFFCURVE",
"232 184 CURVE SMOOTH",
"264 184 OFFCURVE",
"282 159 OFFCURVE",
"273 116 CURVE SMOOTH",
"266 81 LINE SMOOTH",
"257 38 OFFCURVE",
"230 14 OFFCURVE",
"195 14 CURVE SMOOTH"
);
},
{
closed = 1;
nodes = (
"298 316 OFFCURVE",
"324 308 OFFCURVE",
"323 288 CURVE",
"311 285 LINE SMOOTH",
"283 278 OFFCURVE",
"270 261 OFFCURVE",
"270 243 CURVE SMOOTH",
"270 229 OFFCURVE",
"280 221 OFFCURVE",
"294 221 CURVE SMOOTH",
"324 221 OFFCURVE",
"348 253 OFFCURVE",
"348 285 CURVE SMOOTH",
"348 326 OFFCURVE",
"310 340 OFFCURVE",
"276 340 CURVE SMOOTH",
"173 340 OFFCURVE",
"98 208 OFFCURVE",
"98 98 CURVE SMOOTH",
"98 21 OFFCURVE",
"133 -10 OFFCURVE",
"187 -10 CURVE SMOOTH",
"333 -10 OFFCURVE",
"375 209 OFFCURVE",
"244 209 CURVE SMOOTH",
"176 209 OFFCURVE",
"151 151 OFFCURVE",
"151 151 CURVE",
"148 151 LINE",
"150 162 LINE SMOOTH",
"167 258 OFFCURVE",
"218 316 OFFCURVE",
"277 316 CURVE SMOOTH"
);
}
);
width = 500;
},
{
components = (
{
name = six;
}
);
layerId = "3F0F5FFA-301F-4B90-BC1A-8916131A4004";
width = 600;
}
);
unicode = 2086;
},
{
glyphname = seveninferior;
lastChange = "2020-08-16 17:03:36 +0000";
layers = (
{
layerId = "94EC0173-ED25-4379-B549-8ECC2838F2C2";
paths = (
{
closed = 1;
nodes = (
"348 215 OFFCURVE",
"219 198 OFFCURVE",
"219 21 CURVE SMOOTH",
"219 0 LINE",
"266 0 LINE",
"266 21 LINE SMOOTH",
"266 207 OFFCURVE",
"373 207 OFFCURVE",
"373 295 CURVE SMOOTH",
"373 328 OFFCURVE",
"360 340 OFFCURVE",
"346 340 CURVE SMOOTH",
"335 340 OFFCURVE",
"328 332 OFFCURVE",
"328 323 CURVE SMOOTH",
"328 312 OFFCURVE",
"338 306 OFFCURVE",
"342 304 CURVE SMOOTH",
"354 297 LINE",
"354 297 OFFCURVE",
"350 287 OFFCURVE",
"333 287 CURVE SMOOTH",
"294 287 OFFCURVE",
"253 340 OFFCURVE",
"213 340 CURVE SMOOTH",
"191 340 OFFCURVE",
"183 324 OFFCURVE",
"180 314 CURVE",
"178 314 LINE",
"178 335 LINE",
"158 335 LINE",
"158 232 LINE",
"178 232 LINE",
"178 252 LINE SMOOTH",
"178 273 OFFCURVE",
"178 298 OFFCURVE",
"201 298 CURVE SMOOTH",
"231 298 OFFCURVE",
"281 255 OFFCURVE",
"319 255 CURVE SMOOTH",
"340 255 OFFCURVE",
"350 270 OFFCURVE",
"355 280 CURVE",
"358 279 LINE"
);
}
);
width = 500;
},
{
layerId = "63C36BCE-C2CB-4BF3-9C7E-344D74934179";
paths = (
{
closed = 1;
nodes = (
"348 215 OFFCURVE",
"210 199 OFFCURVE",
"176 21 CURVE SMOOTH",
"172 0 LINE",
"219 0 LINE",
"223 21 LINE SMOOTH",
"261 223 OFFCURVE",
"393 212 OFFCURVE",
"393 307 CURVE SMOOTH",
"393 334 OFFCURVE",
"382 343 OFFCURVE",
"370 343 CURVE SMOOTH",
"358 343 OFFCURVE",
"349 334 OFFCURVE",
"349 321 CURVE SMOOTH",
"349 317 OFFCURVE",
"350 308 OFFCURVE",
"361 302 CURVE SMOOTH",
"370 297 LINE",
"370 297 OFFCURVE",
"363 287 OFFCURVE",
"347 287 CURVE SMOOTH",
"308 287 OFFCURVE",
"278 340 OFFCURVE",
"238 340 CURVE SMOOTH",
"216 340 OFFCURVE",
"205 324 OFFCURVE",
"199 314 CURVE",
"197 314 LINE",
"202 335 LINE",
"182 335 LINE",
"160 232 LINE",
"180 232 LINE",
"184 252 LINE SMOOTH",
"188 273 OFFCURVE",
"195 298 OFFCURVE",
"217 298 CURVE SMOOTH",
"246 298 OFFCURVE",
"288 255 OFFCURVE",
"326 255 CURVE SMOOTH",
"348 255 OFFCURVE",
"362 270 OFFCURVE",
"369 280 CURVE",
"372 279 LINE"
);
}
);
width = 500;
},
{
components = (
{
name = seven;
}
);
layerId = "3F0F5FFA-301F-4B90-BC1A-8916131A4004";
width = 600;
}
);
unicode = 2087;
},
{
glyphname = eightinferior;
lastChange = "2020-08-16 17:03:43 +0000";
layers = (
{
layerId = "94EC0173-ED25-4379-B549-8ECC2838F2C2";
paths = (
{
closed = 1;
nodes = (
"177 -10 OFFCURVE",
"148 45 OFFCURVE",
"148 96 CURVE SMOOTH",
"148 168 OFFCURVE",
"202 188 OFFCURVE",
"202 188 CURVE",
"202 192 LINE",
"202 192 OFFCURVE",
"162 209 OFFCURVE",
"162 260 CURVE SMOOTH",
"162 309 OFFCURVE",
"200 340 OFFCURVE",
"254 340 CURVE SMOOTH",
"309 340 OFFCURVE",
"346 309 OFFCURVE",
"346 260 CURVE SMOOTH",
"346 209 OFFCURVE",
"306 192 OFFCURVE",
"306 192 CURVE",
"306 188 LINE",
"306 188 OFFCURVE",
"360 168 OFFCURVE",
"360 96 CURVE SMOOTH",
"360 45 OFFCURVE",
"331 -10 OFFCURVE",
"254 -10 CURVE SMOOTH"
);
},
{
closed = 1;
nodes = (
"220 177 OFFCURVE",
"199 155 OFFCURVE",
"199 116 CURVE SMOOTH",
"199 74 LINE SMOOTH",
"199 35 OFFCURVE",
"220 13 OFFCURVE",
"254 13 CURVE SMOOTH",
"288 13 OFFCURVE",
"309 35 OFFCURVE",
"309 74 CURVE SMOOTH",
"309 116 LINE SMOOTH",
"309 155 OFFCURVE",
"288 177 OFFCURVE",
"254 177 CURVE SMOOTH"
);
},
{
closed = 1;
nodes = (
"226 317 OFFCURVE",
"209 299 OFFCURVE",
"209 268 CURVE SMOOTH",
"209 251 LINE SMOOTH",
"209 219 OFFCURVE",
"226 201 OFFCURVE",
"254 201 CURVE SMOOTH",
"282 201 OFFCURVE",
"299 219 OFFCURVE",
"299 251 CURVE SMOOTH",
"299 268 LINE SMOOTH",
"299 299 OFFCURVE",
"282 317 OFFCURVE",
"254 317 CURVE SMOOTH"
);
}
);
width = 500;
},
{
layerId = "63C36BCE-C2CB-4BF3-9C7E-344D74934179";
paths = (
{
closed = 1;
nodes = (
"130 -10 OFFCURVE",
"107 28 OFFCURVE",
"107 73 CURVE SMOOTH",
"107 155 OFFCURVE",
"183 188 OFFCURVE",
"183 188 CURVE",
"184 192 LINE",
"184 192 OFFCURVE",
"157 204 OFFCURVE",
"157 244 CURVE SMOOTH",
"157 297 OFFCURVE",
"206 340 OFFCURVE",
"269 340 CURVE SMOOTH",
"316 340 OFFCURVE",
"345 316 OFFCURVE",
"345 275 CURVE SMOOTH",
"345 218 OFFCURVE",
"288 192 OFFCURVE",
"288 192 CURVE",
"287 188 LINE",
"287 188 OFFCURVE",
"325 174 OFFCURVE",
"325 118 CURVE SMOOTH",
"325 49 OFFCURVE",
"267 -10 OFFCURVE",
"191 -10 CURVE SMOOTH"
);
},
{
closed = 1;
nodes = (
"200 177 OFFCURVE",
"173 155 OFFCURVE",
"165 116 CURVE SMOOTH",
"156 74 LINE SMOOTH",
"148 35 OFFCURVE",
"163 13 OFFCURVE",
"197 13 CURVE SMOOTH",
"231 13 OFFCURVE",
"258 35 OFFCURVE",
"266 74 CURVE SMOOTH",
"275 116 LINE SMOOTH",
"283 155 OFFCURVE",
"268 177 OFFCURVE",
"234 177 CURVE SMOOTH"
);
},
{
closed = 1;
nodes = (
"233 317 OFFCURVE",
"212 297 OFFCURVE",
"207 268 CURVE SMOOTH",
"204 251 LINE SMOOTH",
"198 219 OFFCURVE",
"211 201 OFFCURVE",
"238 201 CURVE SMOOTH",
"264 201 OFFCURVE",
"286 217 OFFCURVE",
"294 251 CURVE SMOOTH",
"298 268 LINE SMOOTH",
"305 299 OFFCURVE",
"291 317 OFFCURVE",
"263 317 CURVE SMOOTH"
);
}
);
width = 500;
},
{
components = (
{
name = eight;
}
);
layerId = "3F0F5FFA-301F-4B90-BC1A-8916131A4004";
width = 600;
}
);
unicode = 2088;
},
{
glyphname = nineinferior;
lastChange = "2020-08-16 17:03:55 +0000";
layers = (
{
layerId = "94EC0173-ED25-4379-B549-8ECC2838F2C2";
paths = (
{
closed = 1;
nodes = (
"275 316 OFFCURVE",
"298 292 OFFCURVE",
"298 249 CURVE SMOOTH",
"298 214 LINE SMOOTH",
"298 171 OFFCURVE",
"274 146 OFFCURVE",
"238 146 CURVE SMOOTH",
"205 146 OFFCURVE",
"182 171 OFFCURVE",
"182 214 CURVE SMOOTH",
"182 249 LINE SMOOTH",
"182 292 OFFCURVE",
"205 316 OFFCURVE",
"240 316 CURVE SMOOTH"
);
},
{
closed = 1;
nodes = (
"199 14 OFFCURVE",
"172 22 OFFCURVE",
"169 42 CURVE",
"180 45 LINE SMOOTH",
"207 52 OFFCURVE",
"213 67 OFFCURVE",
"213 80 CURVE SMOOTH",
"213 98 OFFCURVE",
"201 109 OFFCURVE",
"183 109 CURVE SMOOTH",
"161 109 OFFCURVE",
"142 91 OFFCURVE",
"142 59 CURVE SMOOTH",
"142 8 OFFCURVE",
"188 -10 OFFCURVE",
"228 -10 CURVE SMOOTH",
"308 -10 OFFCURVE",
"358 65 OFFCURVE",
"358 176 CURVE SMOOTH",
"358 289 OFFCURVE",
"309 340 OFFCURVE",
"241 340 CURVE SMOOTH",
"95 340 OFFCURVE",
"100 121 OFFCURVE",
"231 121 CURVE SMOOTH",
"299 121 OFFCURVE",
"312 179 OFFCURVE",
"312 179 CURVE",
"315 179 LINE",
"315 168 LINE SMOOTH",
"315 69 OFFCURVE",
"278 14 OFFCURVE",
"221 14 CURVE SMOOTH"
);
}
);
width = 500;
},
{
layerId = "63C36BCE-C2CB-4BF3-9C7E-344D74934179";
paths = (
{
closed = 1;
nodes = (
"293 316 OFFCURVE",
"312 292 OFFCURVE",
"303 249 CURVE SMOOTH",
"296 214 LINE SMOOTH",
"287 171 OFFCURVE",
"257 146 OFFCURVE",
"221 146 CURVE SMOOTH",
"189 146 OFFCURVE",
"171 171 OFFCURVE",
"180 214 CURVE SMOOTH",
"187 249 LINE SMOOTH",
"196 292 OFFCURVE",
"223 316 OFFCURVE",
"258 316 CURVE SMOOTH"
);
},
{
closed = 1;
nodes = (
"154 14 OFFCURVE",
"129 22 OFFCURVE",
"130 42 CURVE",
"142 45 LINE SMOOTH",
"170 52 OFFCURVE",
"183 69 OFFCURVE",
"183 87 CURVE SMOOTH",
"183 101 OFFCURVE",
"173 109 OFFCURVE",
"158 109 CURVE SMOOTH",
"130 109 OFFCURVE",
"105 79 OFFCURVE",
"105 45 CURVE SMOOTH",
"105 4 OFFCURVE",
"142 -10 OFFCURVE",
"175 -10 CURVE SMOOTH",
"271 -10 OFFCURVE",
"355 108 OFFCURVE",
"355 230 CURVE SMOOTH",
"355 310 OFFCURVE",
"319 340 OFFCURVE",
"265 340 CURVE SMOOTH",
"119 340 OFFCURVE",
"79 121 OFFCURVE",
"209 121 CURVE SMOOTH",
"276 121 OFFCURVE",
"302 179 OFFCURVE",
"302 179 CURVE",
"305 179 LINE",
"303 168 LINE SMOOTH",
"284 65 OFFCURVE",
"231 14 OFFCURVE",
"176 14 CURVE SMOOTH"
);
}
);
width = 500;
},
{
components = (
{
name = nine;
}
);
layerId = "3F0F5FFA-301F-4B90-BC1A-8916131A4004";
width = 600;
}
);
unicode = 2089;
},
{
glyphname = fraction;
lastChange = "2020-08-16 17:06:11 +0000";
layers = (
{
layerId = "94EC0173-ED25-4379-B549-8ECC2838F2C2";
paths = (
{
closed = 1;
nodes = (
"418 740 LINE",
"389 740 LINE",
"77 0 LINE",
"106 0 LINE"
);
}
);
width = 500;
},
{
layerId = "63C36BCE-C2CB-4BF3-9C7E-344D74934179";
paths = (
{
closed = 1;
nodes = (
"422 740 LINE",
"393 740 LINE",
"81 0 LINE",
"110 0 LINE"
);
}
);
width = 500;
},
{
layerId = "3F0F5FFA-301F-4B90-BC1A-8916131A4004";
width = 600;
}
);
unicode = 2044;
},
{
glyphname = comma;
lastChange = "2020-08-14 08:06:36 +0000";
layers = (
{
anchors = (
{
name = _top;
position = "{250, -100}";
},
{
name = top;
position = "{250, 39}";
}
);
layerId = "94EC0173-ED25-4379-B549-8ECC2838F2C2";
paths = (
{
closed = 1;
nodes = (
"203 -101 OFFCURVE",
"305 -45 OFFCURVE",
"305 39 CURVE SMOOTH",
"305 81 OFFCURVE",
"279 100 OFFCURVE",
"250 100 CURVE SMOOTH",
"219 100 OFFCURVE",
"195 77 OFFCURVE",
"195 43 CURVE SMOOTH",
"195 7 OFFCURVE",
"222 -10 OFFCURVE",
"255 -10 CURVE",
"255 -42 OFFCURVE",
"191 -83 OFFCURVE",
"191 -83 CURVE",
"203 -101 LINE"
);
}
);
width = 500;
},
{
layerId = "3F0F5FFA-301F-4B90-BC1A-8916131A4004";
width = 600;
},
{
anchors = (
{
name = _top;
position = "{250, -100}";
},
{
name = top;
position = "{250, 39}";
}
);
layerId = "63C36BCE-C2CB-4BF3-9C7E-344D74934179";
paths = (
{
closed = 1;
nodes = (
"182 -101 OFFCURVE",
"315 -37 OFFCURVE",
"315 46 CURVE SMOOTH",
"315 81 OFFCURVE",
"292 100 OFFCURVE",
"265 100 CURVE SMOOTH",
"232 100 OFFCURVE",
"202 73 OFFCURVE",
"202 38 CURVE SMOOTH",
"202 8 OFFCURVE",
"225 -10 OFFCURVE",
"253 -10 CURVE",
"246 -42 OFFCURVE",
"173 -83 OFFCURVE",
"173 -83 CURVE",
"182 -101 LINE"
);
}
);
width = 500;
}
);
unicode = 002C;
},
{
glyphname = exclam;
lastChange = "2020-08-14 13:19:31 +0000";
layers = (
{
components = (
{
alignment = -1;
name = dotaccentcomb;
transform = "{1, 0, 0, 1, 5, -640}";
}
);
guideLines = (
{
position = "{237, 172}";
}
);
layerId = "94EC0173-ED25-4379-B549-8ECC2838F2C2";
paths = (
{
closed = 1;
nodes = (
"234 172 LINE",
"262 172 LINE",
"283 740 LINE",
"213 740 LINE"
);
}
);
width = 500;
},
{
components = (
{
alignment = -1;
name = dotaccentcomb;
transform = "{1, 0, 0, 1, -182, -640}";
}
);
layerId = "63C36BCE-C2CB-4BF3-9C7E-344D74934179";
paths = (
{
closed = 1;
nodes = (
"220 172 LINE",
"248 172 LINE",
"390 740 LINE",
"320 740 LINE"
);
}
);
width = 500;
},
{
layerId = "3F0F5FFA-301F-4B90-BC1A-8916131A4004";
width = 600;
}
);
unicode = 0021;
},
{
glyphname = question;
lastChange = "2020-08-14 13:20:23 +0000";
layers = (
{
components = (
{
alignment = -1;
name = dotaccentcomb;
transform = "{1, 0, 0, 1, -20, -640}";
}
);
guideLines = (
{
position = "{237, 172}";
}
);
layerId = "94EC0173-ED25-4379-B549-8ECC2838F2C2";
paths = (
{
closed = 1;
nodes = (
"237 380 OFFCURVE",
"435 414 OFFCURVE",
"435 577 CURVE SMOOTH",
"435 672 OFFCURVE",
"366 750 OFFCURVE",
"258 750 CURVE SMOOTH",
"137 750 OFFCURVE",
"68 649 OFFCURVE",
"68 559 CURVE SMOOTH",
"68 495 OFFCURVE",
"103 467 OFFCURVE",
"133 467 CURVE SMOOTH",
"157 467 OFFCURVE",
"179 485 OFFCURVE",
"179 515 CURVE SMOOTH",
"179 546 OFFCURVE",
"155 566 OFFCURVE",
"146 574 CURVE SMOOTH",
"105 612 LINE",
"105 612 OFFCURVE",
"128 715 OFFCURVE",
"235 715 CURVE SMOOTH",
"314 715 OFFCURVE",
"366 663 OFFCURVE",
"366 573 CURVE SMOOTH",
"366 417 OFFCURVE",
"209 384 OFFCURVE",
"209 197 CURVE SMOOTH",
"209 172 LINE",
"237 172 LINE",
"237 197 LINE SMOOTH"
);
}
);
width = 500;
},
{
layerId = "63C36BCE-C2CB-4BF3-9C7E-344D74934179";
paths = (
{
closed = 1;
nodes = (
"208 -10 OFFCURVE",
"239 24 OFFCURVE",
"239 57 CURVE SMOOTH",
"239 82 OFFCURVE",
"220 100 OFFCURVE",
"194 100 CURVE SMOOTH",
"159 100 OFFCURVE",
"126 68 OFFCURVE",
"126 33 CURVE SMOOTH",
"126 8 OFFCURVE",
"144 -10 OFFCURVE",
"171 -10 CURVE SMOOTH"
);
},
{
closed = 1;
nodes = (
"514 687 OFFCURVE",
"453 750 OFFCURVE",
"356 750 CURVE SMOOTH",
"238 750 OFFCURVE",
"134 655 OFFCURVE",
"134 554 CURVE SMOOTH",
"134 505 OFFCURVE",
"158 487 OFFCURVE",
"182 487 CURVE SMOOTH",
"213 487 OFFCURVE",
"240 515 OFFCURVE",
"240 547 CURVE SMOOTH",
"240 572 OFFCURVE",
"224 587 OFFCURVE",
"218 594 CURVE SMOOTH",
"186 632 LINE",
"186 632 OFFCURVE",
"225 715 OFFCURVE",
"323 715 CURVE SMOOTH",
"396 715 OFFCURVE",
"442 672 OFFCURVE",
"442 592 CURVE SMOOTH",
"442 425 OFFCURVE",
"241 403 OFFCURVE",
"200 197 CURVE SMOOTH",
"195 172 LINE",
"223 172 LINE",
"228 197 LINE SMOOTH",
"268 397 OFFCURVE",
"514 416 OFFCURVE",
"514 597 CURVE SMOOTH"
);
}
);
width = 500;
},
{
layerId = "3F0F5FFA-301F-4B90-BC1A-8916131A4004";
width = 600;
}
);
unicode = 003F;
},
{
glyphname = asterisk;
lastChange = "2020-08-15 02:58:45 +0000";
layers = (
{
layerId = "94EC0173-ED25-4379-B549-8ECC2838F2C2";
paths = (
{
closed = 1;
nodes = (
"391 415 LINE",
"334 374 LINE",
"252 522 LINE",
"248 522 LINE",
"166 374 LINE",
"109 415 LINE",
"225 539 LINE",
"224 543 LINE",
"57 575 LINE",
"79 641 LINE",
"232 569 LINE",
"236 572 LINE",
"215 740 LINE",
"285 740 LINE",
"264 572 LINE",
"268 569 LINE",
"421 641 LINE",
"442 575 LINE",
"276 543 LINE",
"275 539 LINE"
);
}
);
width = 500;
},
{
layerId = "63C36BCE-C2CB-4BF3-9C7E-344D74934179";
paths = (
{
closed = 1;
nodes = (
"469 415 LINE",
"412 374 LINE",
"330 522 LINE",
"326 522 LINE",
"244 374 LINE",
"187 415 LINE",
"303 539 LINE",
"302 543 LINE",
"135 575 LINE",
"157 641 LINE",
"310 569 LINE",
"314 572 LINE",
"293 740 LINE",
"363 740 LINE",
"342 572 LINE",
"346 569 LINE",
"499 641 LINE",
"520 575 LINE",
"354 543 LINE",
"353 539 LINE"
);
}
);
width = 500;
},
{
layerId = "3F0F5FFA-301F-4B90-BC1A-8916131A4004";
width = 600;
}
);
unicode = 002A;
},
{
glyphname = slash;
lastChange = "2020-08-14 09:23:27 +0000";
layers = (
{
layerId = "94EC0173-ED25-4379-B549-8ECC2838F2C2";
paths = (
{
closed = 1;
nodes = (
"394 774 LINE",
"359 774 LINE",
"47 -173 LINE",
"82 -173 LINE"
);
}
);
width = 500;
},
{
layerId = "3F0F5FFA-301F-4B90-BC1A-8916131A4004";
width = 600;
},
{
layerId = "63C36BCE-C2CB-4BF3-9C7E-344D74934179";
paths = (
{
closed = 1;
nodes = (
"559 774 LINE",
"522 774 LINE",
"9 -173 LINE",
"46 -173 LINE"
);
}
);
width = 500;
}
);
unicode = 002F;
},
{
glyphname = backslash;
lastChange = "2020-08-14 09:22:54 +0000";
layers = (
{
layerId = "94EC0173-ED25-4379-B549-8ECC2838F2C2";
paths = (
{
closed = 1;
nodes = (
"453 -173 LINE",
"141 774 LINE",
"106 774 LINE",
"418 -173 LINE"
);
}
);
width = 500;
},
{
layerId = "3F0F5FFA-301F-4B90-BC1A-8916131A4004";
width = 600;
},
{
layerId = "63C36BCE-C2CB-4BF3-9C7E-344D74934179";
paths = (
{
closed = 1;
nodes = (
"315 -173 LINE",
"204 774 LINE",
"171 774 LINE",
"282 -173 LINE"
);
}
);
width = 500;
}
);
unicode = 005C;
},
{
glyphname = parenleft;
lastChange = "2020-08-14 09:21:26 +0000";
layers = (
{
layerId = "94EC0173-ED25-4379-B549-8ECC2838F2C2";
paths = (
{
closed = 1;
nodes = (
"199 32 OFFCURVE",
"330 -122 OFFCURVE",
"330 -122 CURVE",
"302 -122 LINE",
"302 -122 OFFCURVE",
"159 32 OFFCURVE",
"159 319 CURVE SMOOTH",
"159 606 OFFCURVE",
"302 760 OFFCURVE",
"302 760 CURVE",
"330 760 LINE",
"330 760 OFFCURVE",
"199 606 OFFCURVE",
"199 319 CURVE SMOOTH"
);
}
);
width = 500;
},
{
layerId = "3F0F5FFA-301F-4B90-BC1A-8916131A4004";
width = 600;
},
{
layerId = "63C36BCE-C2CB-4BF3-9C7E-344D74934179";
paths = (
{
closed = 1;
nodes = (
"228 -34 OFFCURVE",
"286 -122 OFFCURVE",
"286 -122 CURVE",
"258 -122 LINE",
"258 -122 OFFCURVE",
"190 -30 OFFCURVE",
"190 156 CURVE SMOOTH",
"190 515 OFFCURVE",
"445 760 OFFCURVE",
"445 760 CURVE",
"473 760 LINE",
"473 760 OFFCURVE",
"228 506 OFFCURVE",
"228 143 CURVE SMOOTH"
);
}
);
width = 500;
}
);
unicode = 0028;
},
{
glyphname = braceleft;
lastChange = "2020-08-16 08:16:34 +0000";
layers = (
{
layerId = "94EC0173-ED25-4379-B549-8ECC2838F2C2";
paths = (
{
closed = 1;
nodes = (
"128 336 LINE",
"166 336 LINE SMOOTH",
"208 336 OFFCURVE",
"249 350 OFFCURVE",
"249 417 CURVE SMOOTH",
"249 489 OFFCURVE",
"201 594 OFFCURVE",
"201 668 CURVE SMOOTH",
"201 729 OFFCURVE",
"241 772 OFFCURVE",
"322 772 CURVE SMOOTH",
"376 772 LINE",
"376 748 LINE",
"328 748 LINE SMOOTH",
"266 748 OFFCURVE",
"241 717 OFFCURVE",
"241 670 CURVE SMOOTH",
"241 606 OFFCURVE",
"289 495 OFFCURVE",
"289 417 CURVE SMOOTH",
"289 369 OFFCURVE",
"265 326 OFFCURVE",
"206 326 CURVE",
"206 319 LINE",
"265 319 OFFCURVE",
"289 276 OFFCURVE",
"289 228 CURVE SMOOTH",
"289 150 OFFCURVE",
"241 39 OFFCURVE",
"241 -25 CURVE SMOOTH",
"241 -72 OFFCURVE",
"266 -103 OFFCURVE",
"328 -103 CURVE SMOOTH",
"376 -103 LINE",
"376 -127 LINE",
"322 -127 LINE SMOOTH",
"241 -127 OFFCURVE",
"201 -84 OFFCURVE",
"201 -23 CURVE SMOOTH",
"201 51 OFFCURVE",
"249 156 OFFCURVE",
"249 228 CURVE SMOOTH",
"249 295 OFFCURVE",
"208 309 OFFCURVE",
"166 309 CURVE SMOOTH",
"128 309 LINE"
);
}
);
width = 500;
},
{
layerId = "63C36BCE-C2CB-4BF3-9C7E-344D74934179";
paths = (
{
closed = 1;
nodes = (
"129 336 LINE",
"167 336 LINE SMOOTH",
"196 336 OFFCURVE",
"272 336 OFFCURVE",
"272 478 CURVE SMOOTH",
"272 514 OFFCURVE",
"267 568 OFFCURVE",
"267 603 CURVE SMOOTH",
"267 719 OFFCURVE",
"320 772 OFFCURVE",
"416 772 CURVE SMOOTH",
"470 772 LINE",
"465 748 LINE",
"417 748 LINE SMOOTH",
"386 748 OFFCURVE",
"309 748 OFFCURVE",
"309 614 CURVE SMOOTH",
"309 583 OFFCURVE",
"313 526 OFFCURVE",
"313 491 CURVE SMOOTH",
"313 377 OFFCURVE",
"272 326 OFFCURVE",
"205 326 CURVE",
"204 319 LINE",
"254 319 OFFCURVE",
"270 286 OFFCURVE",
"270 242 CURVE SMOOTH",
"270 134 OFFCURVE",
"163 60 OFFCURVE",
"163 -38 CURVE SMOOTH",
"163 -103 OFFCURVE",
"210 -103 OFFCURVE",
"236 -103 CURVE SMOOTH",
"284 -103 LINE",
"279 -127 LINE",
"225 -127 LINE SMOOTH",
"199 -127 OFFCURVE",
"123 -127 OFFCURVE",
"123 -39 CURVE SMOOTH",
"123 65 OFFCURVE",
"230 135 OFFCURVE",
"230 242 CURVE SMOOTH",
"230 309 OFFCURVE",
"189 309 OFFCURVE",
"161 309 CURVE SMOOTH",
"123 309 LINE"
);
}
);
width = 500;
},
{
layerId = "3F0F5FFA-301F-4B90-BC1A-8916131A4004";
width = 600;
}
);
unicode = 007B;
},
